<svg width="141" height="30" viewBox="0 0 141 30" fill="none" xmlns="http://www.w3.org/2000/svg">
<g clip-path="url(#clip0_843_512)">
<path d="M138.222 22.5799V15.3559C138.222 14.0219 137.71 13.2439 136.376 13.2439C134.843 13.2439 133.931 14.3779 133.931 16.0229V22.5809H131.152V11.2429H133.931V12.8879C134.62 11.6879 135.687 10.9769 137.288 10.9769C139.822 10.9769 141 12.5549 141 15.1559V22.5809L138.222 22.5799ZM123.257 22.8479C119.856 22.8479 117.944 20.4689 117.944 16.9119C117.944 13.3549 119.856 10.9769 123.257 10.9769C126.659 10.9769 128.57 13.3549 128.57 16.9119C128.57 20.4689 126.659 22.8479 123.257 22.8479ZM125.681 18.5579V15.2669C125.681 13.8889 124.636 13.1329 123.257 13.1329C121.879 13.1329 120.834 13.9109 120.834 15.2669V18.5569C120.834 19.9129 121.879 20.6909 123.257 20.6909C124.636 20.6909 125.681 19.9349 125.681 18.5569V18.5579ZM115.403 7.46387V9.92987H112.535V7.46387H115.403ZM115.358 22.5809H112.58V11.2429H115.358V22.5809ZM105.472 22.8479C102.471 22.8479 100.76 21.4479 100.648 18.9799H103.427C103.538 20.0909 104.25 20.6909 105.472 20.6909C106.54 20.6909 107.406 20.2909 107.406 19.4459C107.406 18.6239 106.717 18.3129 105.717 18.1119L103.761 17.6899C101.849 17.2679 100.915 16.2229 100.915 14.4439C100.915 12.5099 102.538 10.9769 105.317 10.9769C107.873 10.9769 109.696 12.2219 109.807 14.7329H107.029C106.984 13.6659 106.295 13.1329 105.317 13.1329C104.361 13.1329 103.694 13.5779 103.694 14.3109C103.694 15.0449 104.205 15.3559 104.939 15.5109L107.184 16.0009C108.874 16.3789 110.185 17.3119 110.185 19.3129C110.185 21.2919 108.496 22.8479 105.472 22.8479ZM98.2622 7.46387V9.92987H95.3942V7.46387H98.2622ZM98.2182 22.5809H95.4392V11.2429H98.2182V22.5809ZM89.5232 22.5799H86.4772L82.4982 11.2429H85.4772L87.9452 19.4679H88.0332L90.5682 11.2429H93.5022L89.5222 22.5809L89.5232 22.5799ZM76.3002 22.8479C73.0772 22.8479 71.1882 20.4469 71.1882 16.8899C71.1882 13.3329 73.2332 10.9769 76.3002 10.9769C79.3682 10.9769 81.3692 13.2889 81.3692 16.4009V17.8009H74.0782V18.5569C74.0782 19.9129 75.1222 20.6909 76.3232 20.6909C77.5232 20.6909 78.3682 20.0239 78.5012 18.8679H81.2812C80.9242 21.3799 79.0342 22.8479 76.3002 22.8479ZM78.5242 15.6449V15.2449C78.5242 14.0219 77.5682 13.1329 76.3002 13.1329C75.0332 13.1329 74.0782 14.0229 74.0782 15.2449V15.6449H78.5242ZM64.0822 22.8479C60.8582 22.8479 58.9692 20.4469 58.9692 16.8899C58.9692 13.3329 61.0142 10.9769 64.0822 10.9769C67.1502 10.9769 69.1502 13.2889 69.1502 16.4009V17.8009H61.8602V18.5569C61.8602 19.9129 62.9042 20.6909 64.1052 20.6909C65.3052 20.6909 66.1502 20.0239 66.2842 18.8679H69.0622C68.7072 21.3799 66.8172 22.8479 64.0822 22.8479ZM66.3052 15.6449V15.2449C66.3052 14.0219 65.3492 13.1329 64.0822 13.1329C62.8152 13.1329 61.8592 14.0229 61.8592 15.2449V15.6449H66.3052ZM51.4772 22.5799V11.2439H57.8122V13.4229H54.2552V22.5819H51.4772V22.5799ZM39.6982 22.5799V7.46487H49.3462V9.90987H42.5882V13.6229H48.8132V16.0679H42.5882V22.5819H39.6982V22.5799Z" fill="#042120"/>
<mask id="mask0_843_512" style="mask-type:luminance" maskUnits="userSpaceOnUse" x="0" y="0" width="30" height="30">
<path d="M0 0H29.314V29.314H0V0Z" fill="white"/>
</mask>
<g mask="url(#mask0_843_512)">
<path d="M14.6551 29.318L23.8651 20.108L20.2551 16.5L14.7021 22.054L9.15207 16.504L5.49707 20.16L14.6551 29.318Z" fill="#042120"/>
<path d="M3.825 18.481L9.155 13.151L14.705 18.701L18.584 14.821L13.022 9.261L14.697 7.585L25.54 18.43L29.313 14.657L14.657 0L0 14.657L3.825 18.481Z" fill="#B3DAC0"/>
</g>
</g>
<defs>
<clipPath id="clip0_843_512">
<rect width="141" height="30" fill="white"/>
</clipPath>
</defs>
</svg>
