<svg width="1727" height="519" viewBox="0 0 1727 519" fill="none" xmlns="http://www.w3.org/2000/svg">
<g clip-path="url(#clip0_125_116)">
<rect width="1728" height="519" fill="#0E5EB7"/>
<path d="M500.297 131H480.766L471 147.881L480.766 164.762H500.297L510.017 147.881L500.297 131ZM490.997 157.833C489.026 157.842 487.098 157.266 485.455 156.178C483.812 155.09 482.53 153.539 481.769 151.722C481.009 149.904 480.805 147.902 481.184 145.968C481.563 144.034 482.507 142.257 483.897 140.86C485.287 139.464 487.06 138.512 488.991 138.124C490.923 137.736 492.927 137.93 494.748 138.682C496.569 139.434 498.126 140.71 499.221 142.347C500.317 143.985 500.902 145.911 500.902 147.881C500.902 150.512 499.86 153.036 498.004 154.901C496.147 156.766 493.628 157.82 490.997 157.833Z" fill="#07478F"/>
<path d="M1457.56 -17H1422.52L1405 13.5L1422.52 44H1457.56L1475 13.5L1457.56 -17ZM1440.88 31.4807C1437.34 31.4973 1433.88 30.4569 1430.93 28.4913C1427.99 26.5257 1425.69 23.7234 1424.32 20.4393C1422.96 17.1553 1422.59 13.5373 1423.27 10.0439C1423.95 6.55045 1425.64 3.33876 1428.14 0.815704C1430.63 -1.70736 1433.81 -3.42825 1437.28 -4.12887C1440.74 -4.8295 1444.34 -4.47836 1447.61 -3.11994C1450.87 -1.76153 1453.67 0.543072 1455.63 3.50178C1457.6 6.46048 1458.65 9.94015 1458.65 13.5C1458.65 18.2542 1456.78 22.815 1453.45 26.1846C1450.12 29.5543 1445.6 31.4585 1440.88 31.4807Z" fill="#07478F"/>
<path d="M29.2974 472H9.76582L0 488.881L9.76582 505.762H29.2974L39.0167 488.881L29.2974 472ZM19.9966 498.833C18.0264 498.842 16.0978 498.266 14.4551 497.178C12.8124 496.09 11.5297 494.539 10.7693 492.722C10.0089 490.904 9.80519 488.902 10.1839 486.968C10.5626 485.034 11.5068 483.257 12.8967 481.86C14.2866 480.464 16.0598 479.512 17.9915 479.124C19.9232 478.736 21.9266 478.93 23.7477 479.682C25.5689 480.434 27.1259 481.71 28.2215 483.347C29.3171 484.985 29.9019 486.911 29.9019 488.881C29.902 491.512 28.8599 494.036 27.0036 495.901C25.1473 497.766 22.628 498.82 19.9966 498.833Z" fill="#07478F"/>
<path d="M1273.31 457H1237.77L1220 488L1237.77 519H1273.31L1291 488L1273.31 457ZM1256.39 506.275C1252.8 506.292 1249.29 505.235 1246.3 503.237C1243.32 501.239 1240.98 498.391 1239.6 495.053C1238.21 491.715 1237.84 488.038 1238.53 484.487C1239.22 480.937 1240.94 477.672 1243.47 475.108C1246 472.543 1249.22 470.794 1252.74 470.082C1256.25 469.37 1259.9 469.727 1263.21 471.108C1266.53 472.488 1269.36 474.831 1271.36 477.838C1273.35 480.845 1274.41 484.382 1274.41 488C1274.41 492.832 1272.52 497.468 1269.14 500.893C1265.76 504.317 1261.18 506.253 1256.39 506.275Z" fill="#07478F"/>
<path d="M-64 25.7213V32.2129C-64 34.2178 -63.605 36.2032 -62.8374 38.0555C-62.0699 39.9078 -60.9448 41.5909 -59.5266 43.0086C-58.1084 44.4264 -56.4247 45.5509 -54.5717 46.3182C-52.7186 47.0855 -50.7326 47.4804 -48.7269 47.4804H-40.2766C-38.844 52.5486 -36.8188 57.4304 -34.2429 62.0247L-40.2272 67.9411C-43.0875 70.8038 -44.694 74.6843 -44.694 78.7302C-44.694 82.7762 -43.0875 86.6567 -40.2272 89.5193L-35.6239 94.1045C-32.7824 96.9652 -28.9235 98.5849 -24.8908 98.6095C-20.8581 98.6341 -16.9797 97.0617 -14.1034 94.236L-8.13559 88.2703C-3.53386 90.8454 1.35517 92.8698 6.43056 94.3017V102.749C6.43056 106.794 8.03796 110.673 10.8991 113.533C13.7603 116.393 17.6409 118 21.6872 118H28.2634C32.3097 118 36.1903 116.393 39.0515 113.533C41.9127 110.673 43.5201 106.794 43.5201 102.749V94.236C48.5954 92.804 53.4845 90.7796 58.0863 88.2046L64.0541 94.1703C65.471 95.588 67.1535 96.7126 69.0054 97.4799C70.8574 98.2472 72.8425 98.6422 74.8472 98.6422C76.8519 98.6422 78.837 98.2472 80.6889 97.4799C82.5409 96.7126 84.2234 95.588 85.6403 94.1703L90.2436 89.5851C93.1038 86.7224 94.7104 82.8419 94.7104 78.7959C94.7104 74.75 93.1038 70.8695 90.2436 68.0068L84.2593 62.0247C86.8352 57.4304 88.8604 52.5486 90.2929 47.4804H98.7433C100.748 47.4804 102.733 47.0854 104.586 46.3179C106.438 45.5504 108.12 44.4256 109.537 43.0076C110.954 41.5897 112.078 39.9065 112.843 38.0543C113.609 36.202 114.002 34.2171 114 32.2129V25.7213C114.002 23.7179 113.609 21.7338 112.843 19.8825C112.077 18.0312 110.953 16.349 109.536 14.9324C108.119 13.5158 106.436 12.3925 104.584 11.6268C102.732 10.8612 100.747 10.4681 98.7433 10.4703H90.2929C88.8605 5.39679 86.8353 0.509533 84.2593 -4.09049L90.2436 -10.0726C93.1038 -12.9352 94.7104 -16.8158 94.7104 -20.8617C94.7104 -24.9076 93.1038 -28.7882 90.2436 -31.6508L85.6403 -36.236C84.2234 -37.6537 82.5409 -38.7783 80.6889 -39.5457C78.837 -40.313 76.8519 -40.7079 74.8472 -40.7079C72.8425 -40.7079 70.8574 -40.313 69.0054 -39.5457C67.1535 -38.7783 65.471 -37.6537 64.0541 -36.236L58.0863 -30.2703C53.4812 -32.8386 48.593 -34.8627 43.5201 -36.3017V-44.749C43.5157 -48.7925 41.9069 -52.6691 39.0467 -55.5283C36.1865 -58.3875 32.3084 -59.9956 28.2634 -60H21.6872C17.6423 -59.9956 13.7642 -58.3875 10.904 -55.5283C8.04372 -52.6691 6.43491 -48.7925 6.43056 -44.749V-36.3017C1.35764 -34.8627 -3.53057 -32.8386 -8.13559 -30.2703L-14.1034 -36.236C-15.5203 -37.6537 -17.2029 -38.7783 -19.0548 -39.5457C-20.9068 -40.313 -22.8918 -40.7079 -24.8966 -40.7079C-26.9013 -40.7079 -28.8863 -40.313 -30.7383 -39.5457C-32.5902 -38.7783 -34.2728 -37.6537 -35.6897 -36.236L-40.293 -31.6508C-43.1532 -28.7882 -44.7598 -24.9076 -44.7598 -20.8617C-44.7598 -16.8158 -43.1532 -12.9352 -40.293 -10.0726L-34.3087 -4.09049C-36.8847 0.509533 -38.9098 5.39679 -40.3423 10.4703H-48.7927C-52.8304 10.4834 -56.6984 12.0959 -59.5489 14.9546C-62.3994 17.8133 -64 21.685 -64 25.7213ZM-21.0742 29.0082C-21.0742 19.9071 -18.3744 11.0104 -13.3162 3.44306C-8.25802 -4.12424 -1.06865 -10.0222 7.3428 -13.5051C15.7542 -16.9879 25.01 -17.8992 33.9395 -16.1237C42.869 -14.3481 51.0713 -9.96552 57.5092 -3.53006C63.947 2.9054 68.3312 11.1047 70.1074 20.0309C71.8836 28.9572 70.972 38.2094 67.4879 46.6178C64.0038 55.0261 58.1036 62.2129 50.5335 67.2692C42.9634 72.3255 34.0634 75.0243 24.9589 75.0243C18.911 75.0243 12.9223 73.8329 7.33522 71.5184C1.74809 69.2038 -3.32801 65.8113 -7.60301 61.5349C-11.878 57.2584 -15.2681 52.1817 -17.5796 46.595C-19.891 41.0083 -21.0785 35.021 -21.0742 28.9753V29.0082Z" fill="#07478F"/>
<path d="M425 516.787V520.179C425 521.226 425.206 522.263 425.607 523.231C426.008 524.199 426.596 525.078 427.337 525.819C428.078 526.56 428.958 527.147 429.926 527.548C430.894 527.949 431.932 528.155 432.98 528.155H437.395C438.143 530.804 439.201 533.354 440.547 535.754L437.421 538.846C435.926 540.341 435.087 542.369 435.087 544.483C435.087 546.597 435.926 548.624 437.421 550.12L439.826 552.515C441.31 554.01 443.326 554.856 445.433 554.869C447.54 554.882 449.567 554.06 451.07 552.584L454.188 549.467C456.592 550.812 459.146 551.87 461.798 552.618V557.032C461.798 559.145 462.638 561.172 464.133 562.666C465.628 564.16 467.655 565 469.769 565H473.205C475.319 565 477.347 564.16 478.842 562.666C480.336 561.172 481.176 559.145 481.176 557.032V552.584C483.828 551.836 486.382 550.778 488.787 549.433L491.905 552.55C492.645 553.29 493.524 553.878 494.492 554.279C495.459 554.68 496.496 554.886 497.544 554.886C498.591 554.886 499.628 554.68 500.596 554.279C501.564 553.878 502.443 553.29 503.183 552.55L505.588 550.154C507.082 548.658 507.922 546.631 507.922 544.517C507.922 542.403 507.082 540.376 505.588 538.88L502.461 535.754C503.807 533.354 504.865 530.804 505.614 528.155H510.029C511.076 528.155 512.114 527.949 513.081 527.548C514.049 527.147 514.928 526.559 515.668 525.819C516.409 525.078 516.996 524.198 517.396 523.231C517.796 522.263 518.001 521.226 518 520.179V516.787C518.001 515.74 517.796 514.704 517.396 513.736C516.995 512.769 516.408 511.89 515.668 511.15C514.927 510.41 514.048 509.823 513.081 509.423C512.113 509.023 511.076 508.818 510.029 508.819H505.614C504.865 506.168 503.807 503.615 502.461 501.211L505.588 498.086C507.082 496.59 507.922 494.563 507.922 492.449C507.922 490.335 507.082 488.307 505.588 486.812L503.183 484.416C502.443 483.675 501.564 483.088 500.596 482.687C499.628 482.286 498.591 482.08 497.544 482.08C496.496 482.08 495.459 482.286 494.492 482.687C493.524 483.088 492.645 483.675 491.905 484.416L488.787 487.533C486.381 486.191 483.827 485.134 481.176 484.382V479.968C481.174 477.856 480.333 475.83 478.839 474.336C477.345 472.843 475.318 472.002 473.205 472H469.769C467.656 472.002 465.63 472.843 464.135 474.336C462.641 475.83 461.8 477.856 461.798 479.968V484.382C459.148 485.134 456.594 486.191 454.188 487.533L451.07 484.416C450.329 483.675 449.45 483.088 448.483 482.687C447.515 482.286 446.478 482.08 445.43 482.08C444.383 482.08 443.346 482.286 442.378 482.687C441.411 483.088 440.532 483.675 439.791 484.416L437.386 486.812C435.892 488.307 435.052 490.335 435.052 492.449C435.052 494.563 435.892 496.59 437.386 498.086L440.513 501.211C439.167 503.615 438.109 506.168 437.36 508.819H432.945C430.836 508.826 428.815 509.668 427.326 511.162C425.836 512.655 425 514.678 425 516.787ZM447.428 518.504C447.428 513.749 448.838 509.101 451.481 505.147C454.124 501.194 457.88 498.112 462.275 496.292C466.669 494.473 471.505 493.996 476.171 494.924C480.836 495.852 485.122 498.142 488.485 501.504C491.849 504.866 494.139 509.15 495.067 513.814C495.995 518.478 495.519 523.312 493.699 527.705C491.878 532.098 488.796 535.853 484.841 538.495C480.885 541.136 476.235 542.546 471.479 542.546C468.319 542.546 465.19 541.924 462.271 540.715C459.352 539.505 456.699 537.733 454.466 535.499C452.232 533.264 450.461 530.612 449.253 527.693C448.046 524.774 447.425 521.646 447.428 518.487V518.504Z" fill="#07478F"/>
<path d="M1069 220.932V223.047C1069 223.7 1069.13 224.347 1069.38 224.951C1069.63 225.554 1070 226.103 1070.46 226.565C1070.92 227.027 1071.47 227.393 1072.07 227.643C1072.68 227.893 1073.32 228.022 1073.98 228.022H1076.73C1077.2 229.673 1077.86 231.264 1078.7 232.761L1076.75 234.689C1075.81 235.621 1075.29 236.886 1075.29 238.204C1075.29 239.523 1075.81 240.787 1076.75 241.72L1078.25 243.214C1079.17 244.146 1080.43 244.674 1081.74 244.682C1083.06 244.69 1084.32 244.177 1085.26 243.257L1087.2 241.313C1088.7 242.152 1090.3 242.811 1091.95 243.278V246.031C1091.95 247.349 1092.47 248.613 1093.41 249.544C1094.34 250.476 1095.6 251 1096.92 251H1099.06C1100.38 251 1101.65 250.476 1102.58 249.544C1103.51 248.613 1104.03 247.349 1104.03 246.031V243.257C1105.69 242.79 1107.28 242.13 1108.78 241.291L1110.73 243.235C1111.19 243.697 1111.74 244.064 1112.34 244.314C1112.94 244.564 1113.59 244.692 1114.24 244.692C1114.9 244.692 1115.54 244.564 1116.15 244.314C1116.75 244.064 1117.3 243.697 1117.76 243.235L1119.26 241.741C1120.19 240.808 1120.71 239.544 1120.71 238.226C1120.71 236.907 1120.19 235.643 1119.26 234.71L1117.31 232.761C1118.15 231.264 1118.81 229.673 1119.28 228.022H1122.03C1122.68 228.022 1123.33 227.893 1123.93 227.643C1124.54 227.393 1125.08 227.026 1125.55 226.564C1126.01 226.102 1126.37 225.554 1126.62 224.95C1126.87 224.347 1127 223.7 1127 223.047V220.932C1127 220.279 1126.87 219.632 1126.62 219.029C1126.37 218.426 1126.01 217.878 1125.55 217.416C1125.08 216.955 1124.54 216.589 1123.93 216.339C1123.33 216.09 1122.68 215.962 1122.03 215.962H1119.28C1118.81 214.309 1118.15 212.717 1117.31 211.218L1119.26 209.268C1120.19 208.336 1120.71 207.071 1120.71 205.753C1120.71 204.435 1120.19 203.17 1119.26 202.237L1117.76 200.743C1117.3 200.281 1116.75 199.915 1116.15 199.665C1115.54 199.415 1114.9 199.286 1114.24 199.286C1113.59 199.286 1112.94 199.415 1112.34 199.665C1111.74 199.915 1111.19 200.281 1110.73 200.743L1108.78 202.687C1107.28 201.85 1105.69 201.191 1104.03 200.722V197.969C1104.03 196.652 1103.51 195.389 1102.58 194.457C1101.65 193.525 1100.38 193.001 1099.06 193H1096.92C1095.6 193.001 1094.34 193.525 1093.41 194.457C1092.47 195.389 1091.95 196.652 1091.95 197.969V200.722C1090.3 201.191 1088.7 201.85 1087.2 202.687L1085.26 200.743C1084.8 200.281 1084.25 199.915 1083.65 199.665C1083.04 199.415 1082.39 199.286 1081.74 199.286C1081.09 199.286 1080.44 199.415 1079.84 199.665C1079.23 199.915 1078.69 200.281 1078.22 200.743L1076.72 202.237C1075.79 203.17 1075.27 204.435 1075.27 205.753C1075.27 207.071 1075.79 208.336 1076.72 209.268L1078.67 211.218C1077.84 212.717 1077.18 214.309 1076.71 215.962H1073.96C1072.64 215.966 1071.38 216.492 1070.45 217.423C1069.52 218.355 1069 219.616 1069 220.932ZM1082.99 222.003C1082.99 219.037 1083.87 216.138 1085.51 213.672C1087.16 211.207 1089.51 209.285 1092.25 208.15C1094.99 207.015 1098 206.718 1100.91 207.297C1103.82 207.875 1106.5 209.303 1108.59 211.4C1110.69 213.497 1112.12 216.169 1112.7 219.077C1113.28 221.986 1112.98 225.001 1111.84 227.741C1110.71 230.48 1108.79 232.822 1106.32 234.47C1103.85 236.117 1100.95 236.997 1097.99 236.997C1096.02 236.997 1094.06 236.608 1092.24 235.854C1090.42 235.1 1088.77 233.995 1087.38 232.601C1085.98 231.208 1084.88 229.554 1084.13 227.733C1083.37 225.913 1082.99 223.962 1082.99 221.992V222.003Z" fill="#07478F"/>
<path d="M1651 151.234V155.72C1651 157.106 1651.27 158.477 1651.8 159.757C1652.33 161.037 1653.11 162.2 1654.09 163.18C1655.07 164.16 1656.23 164.937 1657.52 165.467C1658.8 165.997 1660.17 166.27 1661.55 166.27H1667.39C1668.38 169.772 1669.78 173.146 1671.56 176.32L1667.43 180.409C1665.45 182.387 1664.34 185.068 1664.34 187.864C1664.34 190.66 1665.45 193.341 1667.43 195.32L1670.61 198.488C1672.57 200.465 1675.24 201.584 1678.02 201.601C1680.81 201.618 1683.49 200.531 1685.48 198.579L1689.6 194.456C1692.78 196.236 1696.16 197.635 1699.67 198.624V204.461C1699.67 207.256 1700.78 209.937 1702.76 211.913C1704.73 213.89 1707.41 215 1710.21 215H1714.76C1717.55 215 1720.23 213.89 1722.21 211.913C1724.19 209.937 1725.3 207.256 1725.3 204.461V198.579C1728.8 197.589 1732.18 196.19 1735.36 194.411L1739.49 198.533C1740.47 199.513 1741.63 200.29 1742.91 200.82C1744.19 201.351 1745.56 201.624 1746.94 201.624C1748.33 201.624 1749.7 201.351 1750.98 200.82C1752.26 200.29 1753.42 199.513 1754.4 198.533L1757.58 195.365C1759.56 193.387 1760.67 190.705 1760.67 187.91C1760.67 185.114 1759.56 182.432 1757.58 180.454L1753.45 176.32C1755.23 173.146 1756.63 169.772 1757.62 166.27H1763.46C1764.84 166.27 1766.21 165.997 1767.49 165.467C1768.77 164.937 1769.94 164.159 1770.92 163.179C1771.9 162.2 1772.67 161.037 1773.2 159.757C1773.73 158.477 1774 157.105 1774 155.72V151.234C1774 149.85 1773.73 148.479 1773.2 147.2C1772.67 145.92 1771.89 144.758 1770.92 143.779C1769.94 142.8 1768.77 142.024 1767.49 141.495C1766.21 140.966 1764.84 140.694 1763.46 140.696H1757.62C1756.63 137.19 1755.23 133.813 1753.45 130.634L1757.58 126.5C1759.56 124.522 1760.67 121.841 1760.67 119.045C1760.67 116.249 1759.56 113.568 1757.58 111.59L1754.4 108.421C1753.42 107.442 1752.26 106.664 1750.98 106.134C1749.7 105.604 1748.33 105.331 1746.94 105.331C1745.56 105.331 1744.19 105.604 1742.91 106.134C1741.63 106.664 1740.47 107.442 1739.49 108.421L1735.36 112.544C1732.18 110.769 1728.8 109.37 1725.3 108.376V102.539C1725.29 99.7445 1724.18 97.0657 1722.21 95.09C1720.23 93.1143 1717.55 92.003 1714.76 92H1710.21C1707.42 92.003 1704.74 93.1143 1702.76 95.09C1700.78 97.0657 1699.67 99.7445 1699.67 102.539V108.376C1696.16 109.37 1692.79 110.769 1689.6 112.544L1685.48 108.421C1684.5 107.442 1683.34 106.664 1682.06 106.134C1680.78 105.604 1679.41 105.331 1678.02 105.331C1676.64 105.331 1675.26 105.604 1673.98 106.134C1672.7 106.664 1671.54 107.442 1670.56 108.421L1667.38 111.59C1665.41 113.568 1664.3 116.249 1664.3 119.045C1664.3 121.841 1665.41 124.522 1667.38 126.5L1671.52 130.634C1669.74 133.813 1668.34 137.19 1667.35 140.696H1661.51C1658.72 140.705 1656.05 141.819 1654.08 143.794C1652.11 145.77 1651 148.445 1651 151.234ZM1680.66 153.506C1680.66 147.217 1682.53 141.069 1686.02 135.84C1689.52 130.611 1694.49 126.535 1700.3 124.129C1706.11 121.722 1712.51 121.092 1718.68 122.319C1724.85 123.546 1730.52 126.574 1734.96 131.021C1739.41 135.468 1742.44 141.134 1743.67 147.302C1744.9 153.47 1744.27 159.864 1741.86 165.674C1739.45 171.484 1735.37 176.45 1730.14 179.944C1724.91 183.438 1718.76 185.303 1712.47 185.303C1708.29 185.303 1704.15 184.48 1700.29 182.881C1696.43 181.281 1692.93 178.937 1689.97 175.982C1687.02 173.027 1684.67 169.519 1683.08 165.658C1681.48 161.798 1680.66 157.661 1680.66 153.483V153.506Z" fill="#07478F"/>
</g>
<defs>
<clipPath id="clip0_125_116">
<rect width="1728" height="519" fill="white"/>
</clipPath>
</defs>
</svg>
