<svg width="273" height="107" viewBox="0 0 273 107" fill="none" xmlns="http://www.w3.org/2000/svg">
<path d="M97.8463 48.63H107.572V29.1781C107.572 23.8259 103.199 19.4521 97.8463 19.4521V48.63Z" fill="url(#paint0_radial_125_44)"/>
<path d="M20.029 48.6299H107.572V77.8175H20.029V48.6299Z" fill="#EE3124"/>
<path d="M20.0291 48.6299H165.938V77.8175H20.0291V48.6299Z" fill="#EE3124"/>
<path d="M20.0291 48.6299H165.938V77.8175H20.0291V48.6299Z" fill="url(#paint1_radial_125_44)"/>
<path d="M156.212 38.9033C181.789 38.9033 206.994 44.8426 229.939 56.32L272.933 77.8169H127.034V48.6293L136.76 38.9033H156.212Z" fill="url(#paint2_linear_125_44)"/>
<path fill-rule="evenodd" clip-rule="evenodd" d="M136.721 77.8178V38.9336L127.034 48.6302V77.8178H136.721Z" fill="url(#paint3_linear_125_44)"/>
<path d="M20.029 58.3652H234.019L253.481 68.0814H20.029V58.3652Z" fill="url(#paint4_linear_125_44)"/>
<path d="M20.029 58.3652H234.019L253.481 68.0814H20.029V58.3652Z" fill="url(#paint5_linear_125_44)"/>
<path d="M39.4809 72.7294H0.57711V9.50098H39.4809V72.7294Z" fill="url(#paint6_radial_125_44)"/>
<path d="M39.4809 29.1781H0.57711V19.4521H39.4809V29.1781Z" fill="url(#paint7_linear_125_44)"/>
<path d="M39.4809 29.1781H0.57711V19.4521H39.4809V29.1781Z" fill="url(#paint8_linear_125_44)"/>
<path d="M39.4809 9.72593H0.57711V0H39.4809V9.72593Z" fill="url(#paint9_linear_125_44)"/>
<path d="M39.4809 9.72593H0.57711V0H39.4809V9.72593Z" fill="url(#paint10_linear_125_44)"/>
<path d="M39.4809 9.72593H0.57711V0H39.4809V9.72593Z" fill="url(#paint11_linear_125_44)"/>
<path d="M20.029 77.8174H117.308V97.2693H20.0486L20.029 77.8174Z" fill="#A0393E"/>
<path d="M20.029 77.8174H117.308V97.2693H20.0486L20.029 77.8174Z" fill="url(#paint12_radial_125_44)"/>
<path d="M20.029 77.8174H117.308V97.2693H20.0486L20.029 77.8174Z" fill="url(#paint13_linear_125_44)"/>
<path d="M100.302 77.8174H272.933V97.2693H100.302V77.8174Z" fill="url(#paint14_linear_125_44)"/>
<path d="M100.302 77.8174H272.933V97.2693H100.302V77.8174Z" fill="url(#paint15_linear_125_44)"/>
<path d="M100.302 77.8174H272.933V97.2693H100.302V77.8174Z" fill="url(#paint16_linear_125_44)"/>
<path d="M100.302 77.8174H272.933V97.2693H100.302V77.8174Z" fill="url(#paint17_radial_125_44)"/>
<path d="M100.302 77.8174H272.933V97.2693H100.302V77.8174Z" fill="url(#paint18_linear_125_44)"/>
<path d="M39.4809 48.63H97.8463V19.4521C79.1674 19.4521 61.2713 26.8396 48.0425 40.0684L39.4809 48.63Z" fill="url(#paint19_radial_125_44)"/>
<path d="M92.9834 97.2696H117.298V68.082H92.9834C91.0663 68.0807 89.1679 68.4575 87.3966 69.1909C85.6254 69.9242 84.0162 70.9996 82.6611 72.3556C81.306 73.7116 80.2317 75.3215 79.4995 77.0933C78.7674 78.865 78.3919 80.7637 78.3944 82.6807C78.3944 84.5961 78.7719 86.4927 79.5052 88.2622C80.2384 90.0316 81.3132 91.6393 82.668 92.9932C84.0229 94.3471 85.6312 95.4208 87.4012 96.1529C89.1711 96.885 91.068 97.2611 92.9834 97.2598" fill="url(#paint20_radial_125_44)"/>
<path d="M92.9834 97.2696H117.298V68.082H92.9834C91.0663 68.0807 89.1679 68.4575 87.3966 69.1909C85.6254 69.9242 84.0162 70.9996 82.6611 72.3556C81.306 73.7116 80.2317 75.3215 79.4995 77.0933C78.7674 78.865 78.3919 80.7637 78.3944 82.6807C78.3944 84.5961 78.7719 86.4927 79.5052 88.2622C80.2384 90.0316 81.3132 91.6393 82.668 92.9932C84.0229 94.3471 85.6312 95.4208 87.4012 96.1529C89.1711 96.885 91.068 97.2611 92.9834 97.2598" fill="url(#paint21_radial_125_44)"/>
<path d="M92.9834 97.2696H117.298V68.082H92.9834C91.0663 68.0807 89.1679 68.4575 87.3966 69.1909C85.6254 69.9242 84.0162 70.9996 82.6611 72.3556C81.306 73.7116 80.2317 75.3215 79.4995 77.0933C78.7674 78.865 78.3919 80.7637 78.3944 82.6807C78.3944 84.5961 78.7719 86.4927 79.5052 88.2622C80.2384 90.0316 81.3132 91.6393 82.668 92.9932C84.0229 94.3471 85.6312 95.4208 87.4012 96.1529C89.1711 96.885 91.068 97.2611 92.9834 97.2598" fill="url(#paint22_linear_125_44)"/>
<path d="M117.308 68.0918H127.034V97.2696H117.298L117.308 68.0918Z" fill="url(#paint23_linear_125_44)"/>
<path d="M117.308 68.0918H127.034V97.2696H117.298L117.308 68.0918Z" fill="url(#paint24_linear_125_44)"/>
<g filter="url(#filter0_ii_125_44)">
<path d="M209.704 106.995C205.185 107.071 200.695 106.247 196.498 104.571C192.3 102.894 188.478 100.399 185.255 97.2296C182.032 94.0606 179.472 90.2815 177.724 86.1128C175.977 81.9441 175.077 77.4692 175.077 72.949C175.077 68.4288 175.977 63.9539 177.724 59.7852C179.472 55.6165 182.032 51.8374 185.255 48.6684C188.478 45.4994 192.3 43.0038 196.498 41.3273C200.695 39.6507 205.185 38.8267 209.704 38.9033C218.634 39.0547 227.147 42.7082 233.408 49.0766C239.669 55.4449 243.178 64.0182 243.178 72.949C243.178 81.8798 239.669 90.4531 233.408 96.8215C227.147 103.19 218.634 106.843 209.704 106.995Z" fill="url(#paint25_linear_125_44)"/>
<path d="M209.704 106.995C205.185 107.071 200.695 106.247 196.498 104.571C192.3 102.894 188.478 100.399 185.255 97.2296C182.032 94.0606 179.472 90.2815 177.724 86.1128C175.977 81.9441 175.077 77.4692 175.077 72.949C175.077 68.4288 175.977 63.9539 177.724 59.7852C179.472 55.6165 182.032 51.8374 185.255 48.6684C188.478 45.4994 192.3 43.0038 196.498 41.3273C200.695 39.6507 205.185 38.8267 209.704 38.9033C218.634 39.0547 227.147 42.7082 233.408 49.0766C239.669 55.4449 243.178 64.0182 243.178 72.949C243.178 81.8798 239.669 90.4531 233.408 96.8215C227.147 103.19 218.634 106.843 209.704 106.995Z" fill="url(#paint26_radial_125_44)"/>
<path d="M209.704 106.995C205.185 107.071 200.695 106.247 196.498 104.571C192.3 102.894 188.478 100.399 185.255 97.2296C182.032 94.0606 179.472 90.2815 177.724 86.1128C175.977 81.9441 175.077 77.4692 175.077 72.949C175.077 68.4288 175.977 63.9539 177.724 59.7852C179.472 55.6165 182.032 51.8374 185.255 48.6684C188.478 45.4994 192.3 43.0038 196.498 41.3273C200.695 39.6507 205.185 38.8267 209.704 38.9033C218.634 39.0547 227.147 42.7082 233.408 49.0766C239.669 55.4449 243.178 64.0182 243.178 72.949C243.178 81.8798 239.669 90.4531 233.408 96.8215C227.147 103.19 218.634 106.843 209.704 106.995Z" fill="url(#paint27_radial_125_44)"/>
</g>
<g filter="url(#filter1_ii_125_44)">
<path d="M209.704 85.5274C208.023 85.5743 206.349 85.2837 204.782 84.6727C203.215 84.0616 201.787 83.1427 200.581 81.97C199.375 80.7974 198.417 79.3949 197.762 77.8455C197.108 76.2961 196.771 74.6312 196.771 72.9493C196.771 71.2673 197.108 69.6024 197.762 68.053C198.417 66.5036 199.375 65.1011 200.581 63.9285C201.787 62.7559 203.215 61.8369 204.782 61.2259C206.349 60.6149 208.023 60.3242 209.704 60.3711C212.98 60.4625 216.09 61.8277 218.374 64.1766C220.659 66.5255 221.937 69.6728 221.937 72.9493C221.937 76.2257 220.659 79.373 218.374 81.7219C216.09 84.0708 212.98 85.4361 209.704 85.5274Z" fill="#D9D2E8"/>
</g>
<path fill-rule="evenodd" clip-rule="evenodd" d="M66.33 26.8887L88.1106 48.6302H39.4809L48.0425 40.0686C53.3943 34.7213 59.5726 30.271 66.3398 26.8887" fill="url(#paint28_radial_125_44)"/>
<path fill-rule="evenodd" clip-rule="evenodd" d="M66.33 26.8887L88.1106 48.6302H39.4809L48.0425 40.0686C53.3943 34.7213 59.5726 30.271 66.3398 26.8887" fill="url(#paint29_radial_125_44)"/>
<g filter="url(#filter2_ii_125_44)">
<path d="M34.6278 106.995C30.1082 107.071 25.6187 106.247 21.421 104.571C17.2232 102.894 13.4013 100.399 10.1781 97.2296C6.9549 94.0606 4.39491 90.2815 2.64744 86.1128C0.899971 81.9441 0 77.4692 0 72.949C0 68.4288 0.899971 63.9539 2.64744 59.7852C4.39491 55.6165 6.9549 51.8374 10.1781 48.6684C13.4013 45.4994 17.2232 43.0038 21.421 41.3273C25.6187 39.6507 30.1082 38.8267 34.6278 38.9033C43.5573 39.0547 52.0699 42.7082 58.3312 49.0766C64.5924 55.4449 68.1011 64.0182 68.1011 72.949C68.1011 81.8798 64.5924 90.4531 58.3312 96.8215C52.0699 103.19 43.5573 106.843 34.6278 106.995Z" fill="url(#paint30_linear_125_44)"/>
<path d="M34.6278 106.995C30.1082 107.071 25.6187 106.247 21.421 104.571C17.2232 102.894 13.4013 100.399 10.1781 97.2296C6.9549 94.0606 4.39491 90.2815 2.64744 86.1128C0.899971 81.9441 0 77.4692 0 72.949C0 68.4288 0.899971 63.9539 2.64744 59.7852C4.39491 55.6165 6.9549 51.8374 10.1781 48.6684C13.4013 45.4994 17.2232 43.0038 21.421 41.3273C25.6187 39.6507 30.1082 38.8267 34.6278 38.9033C43.5573 39.0547 52.0699 42.7082 58.3312 49.0766C64.5924 55.4449 68.1011 64.0182 68.1011 72.949C68.1011 81.8798 64.5924 90.4531 58.3312 96.8215C52.0699 103.19 43.5573 106.843 34.6278 106.995Z" fill="url(#paint31_radial_125_44)"/>
<path d="M34.6278 106.995C30.1082 107.071 25.6187 106.247 21.421 104.571C17.2232 102.894 13.4013 100.399 10.1781 97.2296C6.9549 94.0606 4.39491 90.2815 2.64744 86.1128C0.899971 81.9441 0 77.4692 0 72.949C0 68.4288 0.899971 63.9539 2.64744 59.7852C4.39491 55.6165 6.9549 51.8374 10.1781 48.6684C13.4013 45.4994 17.2232 43.0038 21.421 41.3273C25.6187 39.6507 30.1082 38.8267 34.6278 38.9033C43.5573 39.0547 52.0699 42.7082 58.3312 49.0766C64.5924 55.4449 68.1011 64.0182 68.1011 72.949C68.1011 81.8798 64.5924 90.4531 58.3312 96.8215C52.0699 103.19 43.5573 106.843 34.6278 106.995Z" fill="url(#paint32_radial_125_44)"/>
</g>
<g filter="url(#filter3_ii_125_44)">
<path d="M34.6277 85.5274C32.9464 85.5743 31.2728 85.2837 29.7057 84.6727C28.1387 84.0616 26.71 83.1427 25.5042 81.97C24.2985 80.7974 23.34 79.3949 22.6855 77.8455C22.031 76.2961 21.6938 74.6312 21.6938 72.9493C21.6938 71.2673 22.031 69.6024 22.6855 68.053C23.34 66.5036 24.2985 65.1011 25.5042 63.9285C26.71 62.7559 28.1387 61.8369 29.7057 61.2259C31.2728 60.6149 32.9464 60.3242 34.6277 60.3711C37.9029 60.4625 41.0133 61.8277 43.2976 64.1766C45.5819 66.5255 46.8599 69.6728 46.8599 72.9493C46.8599 76.2257 45.5819 79.373 43.2976 81.7219C41.0133 84.0708 37.9029 85.4361 34.6277 85.5274Z" fill="#D2CBE1"/>
</g>
<g filter="url(#filter4_f_125_44)">
<path d="M206.808 94.3144C194.195 94.3144 183.971 84.0898 183.971 71.477C183.971 58.8643 194.195 48.6396 206.808 48.6396C219.421 48.6396 229.646 58.8643 229.646 71.477C229.646 84.0898 219.421 94.3144 206.808 94.3144Z" stroke="url(#paint33_linear_125_44)" stroke-width="0.5"/>
</g>
<g filter="url(#filter5_f_125_44)">
<path d="M31.9076 94.3144C19.2948 94.3144 9.07021 84.0898 9.07021 71.477C9.07021 58.8643 19.2948 48.6396 31.9076 48.6396C44.5203 48.6396 54.7449 58.8643 54.7449 71.477C54.7449 84.0898 44.5203 94.3144 31.9076 94.3144Z" stroke="url(#paint34_linear_125_44)" stroke-width="0.5"/>
</g>
<defs>
<filter id="filter0_ii_125_44" x="175.077" y="38.8984" width="68.1012" height="68.1766" filterUnits="userSpaceOnUse" color-interpolation-filters="sRGB">
<feFlood flood-opacity="0" result="BackgroundImageFix"/>
<feBlend mode="normal" in="SourceGraphic" in2="BackgroundImageFix" result="shape"/>
<feColorMatrix in="SourceAlpha" type="matrix" values="0 0 0 0 0 0 0 0 0 0 0 0 0 0 0 0 0 0 127 0" result="hardAlpha"/>
<feOffset/>
<feGaussianBlur stdDeviation="0.25"/>
<feComposite in2="hardAlpha" operator="arithmetic" k2="-1" k3="1"/>
<feColorMatrix type="matrix" values="0 0 0 0 0.145098 0 0 0 0 0.0823529 0 0 0 0 0.215686 0 0 0 1 0"/>
<feBlend mode="normal" in2="shape" result="effect1_innerShadow_125_44"/>
<feColorMatrix in="SourceAlpha" type="matrix" values="0 0 0 0 0 0 0 0 0 0 0 0 0 0 0 0 0 0 127 0" result="hardAlpha"/>
<feOffset dy="0.075"/>
<feGaussianBlur stdDeviation="0.0625"/>
<feComposite in2="hardAlpha" operator="arithmetic" k2="-1" k3="1"/>
<feColorMatrix type="matrix" values="0 0 0 0 0.207843 0 0 0 0 0.0313726 0 0 0 0 0.235294 0 0 0 1 0"/>
<feBlend mode="normal" in2="effect1_innerShadow_125_44" result="effect2_innerShadow_125_44"/>
</filter>
<filter id="filter1_ii_125_44" x="196.746" y="60.3412" width="25.2161" height="25.216" filterUnits="userSpaceOnUse" color-interpolation-filters="sRGB">
<feFlood flood-opacity="0" result="BackgroundImageFix"/>
<feBlend mode="normal" in="SourceGraphic" in2="BackgroundImageFix" result="shape"/>
<feColorMatrix in="SourceAlpha" type="matrix" values="0 0 0 0 0 0 0 0 0 0 0 0 0 0 0 0 0 0 127 0" result="hardAlpha"/>
<feOffset dx="0.025" dy="-0.025"/>
<feGaussianBlur stdDeviation="0.025"/>
<feComposite in2="hardAlpha" operator="arithmetic" k2="-1" k3="1"/>
<feColorMatrix type="matrix" values="0 0 0 0 0.478431 0 0 0 0 0.364706 0 0 0 0 0.584314 0 0 0 1 0"/>
<feBlend mode="normal" in2="shape" result="effect1_innerShadow_125_44"/>
<feColorMatrix in="SourceAlpha" type="matrix" values="0 0 0 0 0 0 0 0 0 0 0 0 0 0 0 0 0 0 127 0" result="hardAlpha"/>
<feOffset dx="-0.025" dy="0.025"/>
<feGaussianBlur stdDeviation="0.025"/>
<feComposite in2="hardAlpha" operator="arithmetic" k2="-1" k3="1"/>
<feColorMatrix type="matrix" values="0 0 0 0 0.807843 0 0 0 0 0.764706 0 0 0 0 0.858824 0 0 0 1 0"/>
<feBlend mode="normal" in2="effect1_innerShadow_125_44" result="effect2_innerShadow_125_44"/>
</filter>
<filter id="filter2_ii_125_44" x="0" y="38.8984" width="68.1011" height="68.1766" filterUnits="userSpaceOnUse" color-interpolation-filters="sRGB">
<feFlood flood-opacity="0" result="BackgroundImageFix"/>
<feBlend mode="normal" in="SourceGraphic" in2="BackgroundImageFix" result="shape"/>
<feColorMatrix in="SourceAlpha" type="matrix" values="0 0 0 0 0 0 0 0 0 0 0 0 0 0 0 0 0 0 127 0" result="hardAlpha"/>
<feOffset/>
<feGaussianBlur stdDeviation="0.25"/>
<feComposite in2="hardAlpha" operator="arithmetic" k2="-1" k3="1"/>
<feColorMatrix type="matrix" values="0 0 0 0 0.145098 0 0 0 0 0.0823529 0 0 0 0 0.215686 0 0 0 1 0"/>
<feBlend mode="normal" in2="shape" result="effect1_innerShadow_125_44"/>
<feColorMatrix in="SourceAlpha" type="matrix" values="0 0 0 0 0 0 0 0 0 0 0 0 0 0 0 0 0 0 127 0" result="hardAlpha"/>
<feOffset dy="0.075"/>
<feGaussianBlur stdDeviation="0.0625"/>
<feComposite in2="hardAlpha" operator="arithmetic" k2="-1" k3="1"/>
<feColorMatrix type="matrix" values="0 0 0 0 0.207843 0 0 0 0 0.0313726 0 0 0 0 0.235294 0 0 0 1 0"/>
<feBlend mode="normal" in2="effect1_innerShadow_125_44" result="effect2_innerShadow_125_44"/>
</filter>
<filter id="filter3_ii_125_44" x="21.6688" y="60.3412" width="25.2161" height="25.216" filterUnits="userSpaceOnUse" color-interpolation-filters="sRGB">
<feFlood flood-opacity="0" result="BackgroundImageFix"/>
<feBlend mode="normal" in="SourceGraphic" in2="BackgroundImageFix" result="shape"/>
<feColorMatrix in="SourceAlpha" type="matrix" values="0 0 0 0 0 0 0 0 0 0 0 0 0 0 0 0 0 0 127 0" result="hardAlpha"/>
<feOffset dx="0.025" dy="-0.025"/>
<feGaussianBlur stdDeviation="0.025"/>
<feComposite in2="hardAlpha" operator="arithmetic" k2="-1" k3="1"/>
<feColorMatrix type="matrix" values="0 0 0 0 0.478431 0 0 0 0 0.364706 0 0 0 0 0.584314 0 0 0 1 0"/>
<feBlend mode="normal" in2="shape" result="effect1_innerShadow_125_44"/>
<feColorMatrix in="SourceAlpha" type="matrix" values="0 0 0 0 0 0 0 0 0 0 0 0 0 0 0 0 0 0 127 0" result="hardAlpha"/>
<feOffset dx="-0.025" dy="0.025"/>
<feGaussianBlur stdDeviation="0.025"/>
<feComposite in2="hardAlpha" operator="arithmetic" k2="-1" k3="1"/>
<feColorMatrix type="matrix" values="0 0 0 0 0.807843 0 0 0 0 0.764706 0 0 0 0 0.858824 0 0 0 1 0"/>
<feBlend mode="normal" in2="effect1_innerShadow_125_44" result="effect2_innerShadow_125_44"/>
</filter>
<filter id="filter4_f_125_44" x="183.346" y="48.0146" width="46.9247" height="46.9248" filterUnits="userSpaceOnUse" color-interpolation-filters="sRGB">
<feFlood flood-opacity="0" result="BackgroundImageFix"/>
<feBlend mode="normal" in="SourceGraphic" in2="BackgroundImageFix" result="shape"/>
<feGaussianBlur stdDeviation="0.1875" result="effect1_foregroundBlur_125_44"/>
</filter>
<filter id="filter5_f_125_44" x="8.44521" y="48.0146" width="46.9247" height="46.9248" filterUnits="userSpaceOnUse" color-interpolation-filters="sRGB">
<feFlood flood-opacity="0" result="BackgroundImageFix"/>
<feBlend mode="normal" in="SourceGraphic" in2="BackgroundImageFix" result="shape"/>
<feGaussianBlur stdDeviation="0.1875" result="effect1_foregroundBlur_125_44"/>
</filter>
<radialGradient id="paint0_radial_125_44" cx="0" cy="0" r="1" gradientUnits="userSpaceOnUse" gradientTransform="translate(98.7569 26.4463) rotate(90) scale(26.1434 21.9678)">
<stop stop-color="#727273"/>
<stop offset="1" stop-color="#4E2A2A"/>
</radialGradient>
<radialGradient id="paint1_radial_125_44" cx="0" cy="0" r="1" gradientUnits="userSpaceOnUse" gradientTransform="translate(65.4494 77.8175) scale(10.3962 21.3407)">
<stop offset="0.155" stop-color="#AA2E30"/>
<stop offset="1" stop-color="#AA2E30" stop-opacity="0"/>
</radialGradient>
<linearGradient id="paint2_linear_125_44" x1="254.45" y1="77.8169" x2="127.034" y2="77.8169" gradientUnits="userSpaceOnUse">
<stop stop-color="#C03131"/>
<stop offset="1" stop-color="#FC443F"/>
</linearGradient>
<linearGradient id="paint3_linear_125_44" x1="131.877" y1="43.7379" x2="131.877" y2="77.8178" gradientUnits="userSpaceOnUse">
<stop stop-color="#FF5752"/>
<stop offset="1" stop-color="#FF5752" stop-opacity="0"/>
</linearGradient>
<linearGradient id="paint4_linear_125_44" x1="212.669" y1="63.2673" x2="110.948" y2="63.2673" gradientUnits="userSpaceOnUse">
<stop stop-color="#C5C5C7"/>
<stop offset="1" stop-color="#F0EBED"/>
</linearGradient>
<linearGradient id="paint5_linear_125_44" x1="62.6901" y1="65.5765" x2="78.5901" y2="65.5765" gradientUnits="userSpaceOnUse">
<stop stop-color="#B9B3BA"/>
<stop offset="1" stop-color="#B9B3BA" stop-opacity="0"/>
</linearGradient>
<radialGradient id="paint6_radial_125_44" cx="0" cy="0" r="1" gradientUnits="userSpaceOnUse" gradientTransform="translate(20.029 41.1152) rotate(-91.7891) scale(46.8594 117.144)">
<stop stop-color="#ED4C48"/>
<stop offset="1" stop-color="#B5312D"/>
</radialGradient>
<linearGradient id="paint7_linear_125_44" x1="39.5102" y1="24.364" x2="0.606464" y2="24.364" gradientUnits="userSpaceOnUse">
<stop stop-color="#E4AA2D"/>
<stop offset="1" stop-color="#F38320"/>
</linearGradient>
<linearGradient id="paint8_linear_125_44" x1="42.6022" y1="26.1155" x2="32.1326" y2="26.1155" gradientUnits="userSpaceOnUse">
<stop stop-color="#B58B2C"/>
<stop offset="1" stop-color="#B58B2C" stop-opacity="0"/>
</linearGradient>
<linearGradient id="paint9_linear_125_44" x1="39.4809" y1="4.86297" x2="0.57711" y2="4.86297" gradientUnits="userSpaceOnUse">
<stop stop-color="#B9AAB5"/>
<stop offset="0.693" stop-color="#D8D4E0"/>
<stop offset="1" stop-color="#C7C5CC"/>
</linearGradient>
<linearGradient id="paint10_linear_125_44" x1="40.518" y1="9.72593" x2="31.4281" y2="9.72593" gradientUnits="userSpaceOnUse">
<stop stop-color="#94858A"/>
<stop offset="1" stop-color="#94858A" stop-opacity="0"/>
</linearGradient>
<linearGradient id="paint11_linear_125_44" x1="-0.753602" y1="9.72593" x2="1.99588" y2="9.72593" gradientUnits="userSpaceOnUse">
<stop stop-color="#94858A"/>
<stop offset="1" stop-color="#94858A" stop-opacity="0"/>
</linearGradient>
<radialGradient id="paint12_radial_125_44" cx="0" cy="0" r="1" gradientUnits="userSpaceOnUse" gradientTransform="translate(55.6647 87.5433) scale(19.8751 27.2053)">
<stop offset="0.429" stop-color="#620B25"/>
<stop offset="1" stop-color="#620B25" stop-opacity="0"/>
</radialGradient>
<linearGradient id="paint13_linear_125_44" x1="59.9993" y1="77.8174" x2="59.9993" y2="78.7176" gradientUnits="userSpaceOnUse">
<stop stop-color="#B11B27"/>
<stop offset="1" stop-color="#B11B27" stop-opacity="0"/>
</linearGradient>
<linearGradient id="paint14_linear_125_44" x1="260.839" y1="97.2693" x2="94.2358" y2="97.2693" gradientUnits="userSpaceOnUse">
<stop stop-color="#AB3138"/>
<stop offset="1" stop-color="#C8494E"/>
</linearGradient>
<linearGradient id="paint15_linear_125_44" x1="129.656" y1="101.349" x2="146.036" y2="95.7233" gradientUnits="userSpaceOnUse">
<stop stop-color="#722026"/>
<stop offset="1" stop-color="#722026" stop-opacity="0"/>
</linearGradient>
<linearGradient id="paint16_linear_125_44" x1="145.556" y1="101.956" x2="145.556" y2="89.422" gradientUnits="userSpaceOnUse">
<stop stop-color="#722026"/>
<stop offset="1" stop-color="#722026" stop-opacity="0"/>
</linearGradient>
<radialGradient id="paint17_radial_125_44" cx="0" cy="0" r="1" gradientUnits="userSpaceOnUse" gradientTransform="translate(223.53 87.5433) rotate(9.27004) scale(30.6718 21.7375)">
<stop stop-color="#722026"/>
<stop offset="1" stop-color="#722026" stop-opacity="0"/>
</radialGradient>
<linearGradient id="paint18_linear_125_44" x1="171.241" y1="77.8174" x2="171.241" y2="78.7176" gradientUnits="userSpaceOnUse">
<stop stop-color="#BF212E"/>
<stop offset="1" stop-color="#BF212E" stop-opacity="0"/>
</linearGradient>
<radialGradient id="paint19_radial_125_44" cx="0" cy="0" r="1" gradientUnits="userSpaceOnUse" gradientTransform="translate(92.0459 48.6335) rotate(-111.878) scale(34.4641 73.6233)">
<stop stop-color="#FF5A56"/>
<stop offset="1" stop-color="#FF4940"/>
</radialGradient>
<radialGradient id="paint20_radial_125_44" cx="0" cy="0" r="1" gradientUnits="userSpaceOnUse" gradientTransform="translate(113.756 70.4695) rotate(180) scale(35.3608 23.8501)">
<stop stop-color="#FFE042"/>
<stop offset="1" stop-color="#DC8B38"/>
</radialGradient>
<radialGradient id="paint21_radial_125_44" cx="0" cy="0" r="1" gradientUnits="userSpaceOnUse" gradientTransform="translate(117.308 82.6807) rotate(180) scale(36.5706 30.4926)">
<stop offset="0.749" stop-color="#E57A14" stop-opacity="0"/>
<stop offset="1" stop-color="#E57A14"/>
</radialGradient>
<linearGradient id="paint22_linear_125_44" x1="107.641" y1="106.545" x2="107.641" y2="89.119" gradientUnits="userSpaceOnUse">
<stop stop-color="#97594D"/>
<stop offset="0.93" stop-color="#97594D" stop-opacity="0"/>
</linearGradient>
<linearGradient id="paint23_linear_125_44" x1="122.161" y1="68.082" x2="122.161" y2="82.6807" gradientUnits="userSpaceOnUse">
<stop stop-color="#626162"/>
<stop offset="1" stop-color="#646367"/>
</linearGradient>
<linearGradient id="paint24_linear_125_44" x1="117.298" y1="97.2696" x2="117.298" y2="76.125" gradientUnits="userSpaceOnUse">
<stop stop-color="#2B1B41"/>
<stop offset="1" stop-color="#2B1B41" stop-opacity="0"/>
</linearGradient>
<linearGradient id="paint25_linear_125_44" x1="225.409" y1="64.3923" x2="174.274" y2="64.3923" gradientUnits="userSpaceOnUse">
<stop offset="0.239" stop-color="#34214F"/>
<stop offset="1" stop-color="#241337"/>
</linearGradient>
<radialGradient id="paint26_radial_125_44" cx="0" cy="0" r="1" gradientUnits="userSpaceOnUse" gradientTransform="translate(209.704 69.9109) rotate(-114.463) scale(18.5757 19.4017)">
<stop offset="0.523" stop-color="#2D114D"/>
<stop offset="1" stop-color="#2B1249" stop-opacity="0"/>
</radialGradient>
<radialGradient id="paint27_radial_125_44" cx="0" cy="0" r="1" gradientTransform="matrix(-6.28664 4.15887 4.67315 7.06412 200.419 75.3022)" gradientUnits="userSpaceOnUse">
<stop stop-color="#392A49"/>
<stop offset="1" stop-color="#392A49" stop-opacity="0"/>
</radialGradient>
<radialGradient id="paint28_radial_125_44" cx="0" cy="0" r="1" gradientTransform="matrix(-18.3462 9.78465 6.35239 11.9109 78.1303 34.5403)" gradientUnits="userSpaceOnUse">
<stop stop-color="#F8F2F5"/>
<stop offset="1" stop-color="#F2DEE2"/>
</radialGradient>
<radialGradient id="paint29_radial_125_44" cx="0" cy="0" r="1" gradientUnits="userSpaceOnUse" gradientTransform="translate(67.124 53.3459) rotate(-127.591) scale(24.3106 42.9448)">
<stop offset="0.688" stop-color="#C8BBBA" stop-opacity="0"/>
<stop offset="1" stop-color="#C8BBBA"/>
</radialGradient>
<linearGradient id="paint30_linear_125_44" x1="50.3223" y1="64.3923" x2="-0.812231" y2="64.3923" gradientUnits="userSpaceOnUse">
<stop offset="0.239" stop-color="#34214F"/>
<stop offset="1" stop-color="#241337"/>
</linearGradient>
<radialGradient id="paint31_radial_125_44" cx="0" cy="0" r="1" gradientUnits="userSpaceOnUse" gradientTransform="translate(34.6278 69.9109) rotate(-114.463) scale(18.5757 19.4017)">
<stop offset="0.523" stop-color="#2D114D"/>
<stop offset="1" stop-color="#2B1249" stop-opacity="0"/>
</radialGradient>
<radialGradient id="paint32_radial_125_44" cx="0" cy="0" r="1" gradientTransform="matrix(-6.28663 4.15887 4.67315 7.06412 25.3323 75.3022)" gradientUnits="userSpaceOnUse">
<stop stop-color="#392A49"/>
<stop offset="1" stop-color="#392A49" stop-opacity="0"/>
</radialGradient>
<linearGradient id="paint33_linear_125_44" x1="189.754" y1="48.6299" x2="224.205" y2="89.2949" gradientUnits="userSpaceOnUse">
<stop offset="0.083" stop-color="#615B6B"/>
<stop offset="0.391" stop-color="#615B6B" stop-opacity="0"/>
<stop offset="0.692" stop-color="#615B6B" stop-opacity="0"/>
<stop offset="0.935" stop-color="#615B6B"/>
</linearGradient>
<linearGradient id="paint34_linear_125_44" x1="14.8529" y1="48.6299" x2="49.3047" y2="89.2949" gradientUnits="userSpaceOnUse">
<stop offset="0.083" stop-color="#615B6B"/>
<stop offset="0.391" stop-color="#615B6B" stop-opacity="0"/>
<stop offset="0.692" stop-color="#615B6B" stop-opacity="0"/>
<stop offset="0.935" stop-color="#615B6B"/>
</linearGradient>
</defs>
</svg>
