<svg width="40" height="40" viewBox="0 0 40 40" fill="none" xmlns="http://www.w3.org/2000/svg">
<path d="M34.8334 3.33301H5.16671C4.68048 3.33301 4.21416 3.52616 3.87035 3.86998C3.52653 4.2138 3.33337 4.68011 3.33337 5.16634V34.833C3.33337 35.3192 3.52653 35.7856 3.87035 36.1294C4.21416 36.4732 4.68048 36.6663 5.16671 36.6663H21.1334V23.7497H16.8V18.7497H21.1334V14.9997C21.0436 14.1193 21.1476 13.2299 21.4379 12.3939C21.7283 11.5579 22.198 10.7956 22.8142 10.1604C23.4303 9.52514 24.178 9.03241 25.0048 8.71674C25.8315 8.40107 26.7173 8.27009 27.6 8.33301C28.8973 8.32405 30.1939 8.39083 31.4834 8.53301V13.033H28.8334C26.7334 13.033 26.3334 14.033 26.3334 15.483V18.6997H31.3334L30.6834 23.6997H26.3334V36.6663H34.8334C35.0741 36.6663 35.3125 36.6189 35.535 36.5268C35.7574 36.4347 35.9595 36.2996 36.1297 36.1294C36.3 35.9591 36.435 35.757 36.5272 35.5346C36.6193 35.3122 36.6667 35.0738 36.6667 34.833V5.16634C36.6667 4.92558 36.6193 4.68719 36.5272 4.46476C36.435 4.24232 36.3 4.04022 36.1297 3.86998C35.9595 3.69974 35.7574 3.5647 35.535 3.47256C35.3125 3.38043 35.0741 3.33301 34.8334 3.33301Z" fill="#0E5EB7"/>
</svg>
