<svg width="40" height="40" viewBox="0 0 40 40" fill="none" xmlns="http://www.w3.org/2000/svg">
<path d="M13 3.33301H27C32.3334 3.33301 36.6667 7.66634 36.6667 12.9997V26.9997C36.6667 29.5634 35.6483 32.0222 33.8354 33.835C32.0226 35.6479 29.5638 36.6663 27 36.6663H13C7.66671 36.6663 3.33337 32.333 3.33337 26.9997V12.9997C3.33337 10.4359 4.35182 7.97716 6.16468 6.16431C7.97753 4.35146 10.4363 3.33301 13 3.33301ZM12.6667 6.66634C11.0754 6.66634 9.54929 7.29848 8.42407 8.4237C7.29885 9.54892 6.66671 11.075 6.66671 12.6663V27.333C6.66671 30.6497 9.35004 33.333 12.6667 33.333H27.3334C28.9247 33.333 30.4508 32.7009 31.576 31.5757C32.7012 30.4504 33.3334 28.9243 33.3334 27.333V12.6663C33.3334 9.34967 30.65 6.66634 27.3334 6.66634H12.6667ZM28.75 9.16634C29.3026 9.16634 29.8325 9.38583 30.2232 9.77654C30.6139 10.1672 30.8334 10.6971 30.8334 11.2497C30.8334 11.8022 30.6139 12.3321 30.2232 12.7228C29.8325 13.1135 29.3026 13.333 28.75 13.333C28.1975 13.333 27.6676 13.1135 27.2769 12.7228C26.8862 12.3321 26.6667 11.8022 26.6667 11.2497C26.6667 10.6971 26.8862 10.1672 27.2769 9.77654C27.6676 9.38583 28.1975 9.16634 28.75 9.16634ZM20 11.6663C22.2102 11.6663 24.3298 12.5443 25.8926 14.1071C27.4554 15.6699 28.3334 17.7895 28.3334 19.9997C28.3334 22.2098 27.4554 24.3294 25.8926 25.8922C24.3298 27.455 22.2102 28.333 20 28.333C17.7899 28.333 15.6703 27.455 14.1075 25.8922C12.5447 24.3294 11.6667 22.2098 11.6667 19.9997C11.6667 17.7895 12.5447 15.6699 14.1075 14.1071C15.6703 12.5443 17.7899 11.6663 20 11.6663ZM20 14.9997C18.674 14.9997 17.4022 15.5265 16.4645 16.4641C15.5268 17.4018 15 18.6736 15 19.9997C15 21.3258 15.5268 22.5975 16.4645 23.5352C17.4022 24.4729 18.674 24.9997 20 24.9997C21.3261 24.9997 22.5979 24.4729 23.5356 23.5352C24.4733 22.5975 25 21.3258 25 19.9997C25 18.6736 24.4733 17.4018 23.5356 16.4641C22.5979 15.5265 21.3261 14.9997 20 14.9997Z" fill="#0E5EB7"/>
</svg>
