<svg width="1164" height="420" viewBox="0 0 1164 420" fill="none" xmlns="http://www.w3.org/2000/svg">
<path d="M412.5 350V92.05H588.2L627.4 130.9V223.3L598 252.7L637.2 350H571.4L537.45 262.15H477.95V350H412.5ZM477.95 212.45H551.45L563.7 200.2V154L551.45 141.75H477.95V212.45ZM672.266 350V92.05H844.466L883.316 130.9V192.85L865.816 210.7L893.466 236.6V311.15L854.616 350H672.266ZM737.716 192.15H808.416L820.666 179.9V154L808.416 141.75H737.716V192.15ZM737.716 300.3H815.766L828.016 288.05V249.9L815.766 237.65H737.716V300.3ZM905.48 350L981.08 92.05H1087.48L1163.08 350H1093.78L1080.83 298.55H987.73L974.78 350H905.48ZM1000.68 248.15H1067.88L1040.58 141.4H1027.98L1000.68 248.15Z" fill="#F9F9F9"/>
<path d="M425.808 376.304C428.593 376.304 430.889 376.64 432.694 377.312C434.514 377.983 435.865 378.998 436.747 380.356C437.628 381.714 438.069 383.428 438.069 385.5C438.069 386.9 437.803 388.125 437.271 389.174C436.74 390.224 436.04 391.113 435.172 391.841C434.304 392.569 433.366 393.164 432.358 393.625L441.387 407H434.164L426.836 395.221H423.372V407H416.863V376.304H425.808ZM425.346 381.637H423.372V389.93H425.472C427.627 389.93 429.167 389.573 430.091 388.859C431.029 388.132 431.498 387.068 431.498 385.668C431.498 384.212 430.994 383.176 429.986 382.561C428.992 381.945 427.445 381.637 425.346 381.637ZM471.238 395.221C471.238 397.181 470.972 398.917 470.44 400.428C469.922 401.94 469.16 403.221 468.152 404.271C467.158 405.306 465.954 406.09 464.54 406.622C463.141 407.154 461.559 407.42 459.795 407.42C458.144 407.42 456.625 407.154 455.239 406.622C453.867 406.09 452.671 405.306 451.649 404.271C450.641 403.221 449.857 401.94 449.297 400.428C448.751 398.917 448.478 397.181 448.478 395.221C448.478 392.618 448.94 390.413 449.864 388.607C450.788 386.802 452.104 385.43 453.811 384.492C455.519 383.554 457.556 383.085 459.921 383.085C462.119 383.085 464.064 383.554 465.758 384.492C467.466 385.43 468.803 386.802 469.768 388.607C470.748 390.413 471.238 392.618 471.238 395.221ZM455.008 395.221C455.008 396.761 455.176 398.056 455.512 399.105C455.848 400.155 456.373 400.946 457.087 401.478C457.801 402.01 458.731 402.276 459.879 402.276C461.013 402.276 461.93 402.01 462.63 401.478C463.344 400.946 463.861 400.155 464.183 399.105C464.519 398.056 464.687 396.761 464.687 395.221C464.687 393.667 464.519 392.38 464.183 391.358C463.861 390.322 463.344 389.545 462.63 389.027C461.916 388.509 460.985 388.25 459.837 388.25C458.144 388.25 456.912 388.831 456.142 389.993C455.386 391.155 455.008 392.898 455.008 395.221ZM488.093 374.33V381.931C488.093 382.812 488.065 383.687 488.009 384.555C487.967 385.423 487.911 386.095 487.841 386.571H488.093C488.709 385.605 489.549 384.786 490.612 384.114C491.676 383.428 493.055 383.085 494.749 383.085C497.38 383.085 499.515 384.114 501.153 386.172C502.79 388.229 503.609 391.246 503.609 395.221C503.609 397.895 503.231 400.141 502.475 401.961C501.719 403.767 500.663 405.131 499.305 406.055C497.947 406.965 496.372 407.42 494.581 407.42C492.859 407.42 491.501 407.112 490.507 406.496C489.514 405.88 488.709 405.187 488.093 404.417H487.652L486.581 407H481.689V374.33H488.093ZM492.691 388.208C491.571 388.208 490.682 388.439 490.025 388.901C489.367 389.363 488.884 390.056 488.576 390.98C488.282 391.904 488.121 393.073 488.093 394.486V395.179C488.093 397.461 488.429 399.21 489.101 400.428C489.773 401.632 490.997 402.234 492.775 402.234C494.091 402.234 495.134 401.625 495.903 400.407C496.687 399.189 497.079 397.433 497.079 395.137C497.079 392.842 496.687 391.113 495.903 389.951C495.12 388.789 494.049 388.208 492.691 388.208ZM535.392 395.221C535.392 397.181 535.126 398.917 534.594 400.428C534.076 401.94 533.313 403.221 532.306 404.271C531.312 405.306 530.108 406.09 528.694 406.622C527.295 407.154 525.713 407.42 523.949 407.42C522.298 407.42 520.779 407.154 519.393 406.622C518.021 406.09 516.825 405.306 515.803 404.271C514.795 403.221 514.011 401.94 513.451 400.428C512.905 398.917 512.632 397.181 512.632 395.221C512.632 392.618 513.094 390.413 514.018 388.607C514.942 386.802 516.258 385.43 517.965 384.492C519.673 383.554 521.71 383.085 524.075 383.085C526.273 383.085 528.218 383.554 529.912 384.492C531.62 385.43 532.957 386.802 533.922 388.607C534.902 390.413 535.392 392.618 535.392 395.221ZM519.162 395.221C519.162 396.761 519.33 398.056 519.666 399.105C520.002 400.155 520.527 400.946 521.241 401.478C521.955 402.01 522.885 402.276 524.033 402.276C525.167 402.276 526.084 402.01 526.784 401.478C527.498 400.946 528.015 400.155 528.337 399.105C528.673 398.056 528.841 396.761 528.841 395.221C528.841 393.667 528.673 392.38 528.337 391.358C528.015 390.322 527.498 389.545 526.784 389.027C526.07 388.509 525.139 388.25 523.991 388.25C522.298 388.25 521.066 388.831 520.296 389.993C519.54 391.155 519.162 392.898 519.162 395.221ZM555.732 402.318C556.432 402.318 557.111 402.248 557.769 402.108C558.441 401.968 559.106 401.793 559.764 401.583V406.349C559.078 406.657 558.224 406.909 557.202 407.105C556.194 407.315 555.088 407.42 553.885 407.42C552.485 407.42 551.225 407.196 550.105 406.748C549 406.286 548.125 405.495 547.481 404.375C546.851 403.242 546.536 401.667 546.536 399.651V388.334H543.471V385.626L546.998 383.484L548.846 378.529H552.94V383.526H559.512V388.334H552.94V399.651C552.94 400.547 553.192 401.219 553.696 401.667C554.214 402.101 554.892 402.318 555.732 402.318ZM576.093 383.526V407H569.69V383.526H576.093ZM572.902 374.33C573.854 374.33 574.673 374.554 575.359 375.002C576.044 375.436 576.387 376.255 576.387 377.458C576.387 378.648 576.044 379.474 575.359 379.936C574.673 380.384 573.854 380.608 572.902 380.608C571.936 380.608 571.11 380.384 570.425 379.936C569.753 379.474 569.417 378.648 569.417 377.458C569.417 376.255 569.753 375.436 570.425 375.002C571.11 374.554 571.936 374.33 572.902 374.33ZM597.525 407.42C595.202 407.42 593.221 407 591.584 406.16C589.946 405.306 588.7 403.991 587.846 402.213C586.992 400.435 586.565 398.161 586.565 395.389C586.565 392.52 587.048 390.182 588.014 388.376C588.994 386.557 590.345 385.22 592.066 384.366C593.802 383.512 595.811 383.085 598.092 383.085C599.716 383.085 601.116 383.246 602.292 383.568C603.481 383.876 604.517 384.247 605.399 384.681L603.509 389.636C602.501 389.23 601.564 388.901 600.696 388.649C599.828 388.383 598.96 388.25 598.092 388.25C596.973 388.25 596.042 388.516 595.3 389.048C594.558 389.566 594.005 390.35 593.641 391.4C593.277 392.45 593.095 393.765 593.095 395.347C593.095 396.901 593.291 398.189 593.683 399.21C594.075 400.232 594.642 400.995 595.384 401.499C596.126 401.989 597.029 402.234 598.092 402.234C599.422 402.234 600.605 402.059 601.641 401.709C602.676 401.345 603.684 400.841 604.664 400.197V405.677C603.684 406.293 602.655 406.734 601.578 407C600.514 407.28 599.163 407.42 597.525 407.42ZM621.687 374.33V388.943C621.687 389.825 621.652 390.707 621.582 391.589C621.512 392.471 621.435 393.353 621.351 394.234H621.435C621.869 393.618 622.31 393.01 622.758 392.408C623.22 391.806 623.71 391.225 624.227 390.665L630.799 383.526H638.022L628.7 393.709L638.589 407H631.198L624.437 397.489L621.687 399.693V407H615.283V374.33H621.687ZM643.749 383.526H650.761L655.192 396.733C655.332 397.153 655.451 397.58 655.549 398.014C655.647 398.448 655.731 398.896 655.801 399.357C655.87 399.819 655.926 400.302 655.968 400.806H656.094C656.178 400.05 656.29 399.343 656.43 398.686C656.584 398.028 656.773 397.377 656.997 396.733L661.343 383.526H668.209L658.278 410.002C657.676 411.626 656.892 412.977 655.926 414.055C654.961 415.146 653.848 415.965 652.588 416.511C651.342 417.057 649.971 417.33 648.473 417.33C647.745 417.33 647.115 417.288 646.583 417.204C646.051 417.134 645.596 417.057 645.218 416.973V411.892C645.512 411.962 645.883 412.025 646.331 412.081C646.779 412.137 647.248 412.165 647.738 412.165C648.634 412.165 649.404 411.976 650.048 411.598C650.691 411.22 651.23 410.709 651.664 410.065C652.098 409.436 652.441 408.743 652.693 407.987L653.071 406.832L643.749 383.526ZM664.241 374.057V374.498C663.835 374.89 663.303 375.373 662.645 375.947C661.987 376.521 661.28 377.123 660.525 377.752C659.769 378.368 659.027 378.963 658.299 379.537C657.571 380.097 656.934 380.566 656.388 380.944H652.126V380.377C652.588 379.845 653.12 379.215 653.722 378.487C654.338 377.745 654.947 376.983 655.549 376.199C656.15 375.415 656.654 374.701 657.06 374.057H664.241ZM693.583 376.304H703.137C707.224 376.304 710.317 376.878 712.417 378.025C714.517 379.173 715.566 381.189 715.566 384.072C715.566 385.234 715.377 386.284 714.999 387.222C714.635 388.16 714.104 388.929 713.404 389.531C712.704 390.133 711.85 390.525 710.842 390.707V390.917C711.864 391.127 712.788 391.491 713.614 392.009C714.44 392.513 715.097 393.255 715.587 394.234C716.091 395.2 716.343 396.488 716.343 398.098C716.343 399.959 715.888 401.555 714.978 402.885C714.069 404.215 712.767 405.236 711.073 405.95C709.393 406.65 707.392 407 705.068 407H693.583V376.304ZM700.092 388.46H703.871C705.761 388.46 707.07 388.167 707.798 387.579C708.526 386.977 708.89 386.095 708.89 384.933C708.89 383.757 708.456 382.917 707.588 382.414C706.734 381.896 705.376 381.637 703.515 381.637H700.092V388.46ZM700.092 393.625V401.625H704.333C706.293 401.625 707.658 401.247 708.428 400.491C709.197 399.735 709.582 398.721 709.582 397.447C709.582 396.691 709.414 396.026 709.079 395.452C708.743 394.878 708.176 394.43 707.378 394.108C706.594 393.786 705.509 393.625 704.123 393.625H700.092ZM736.746 383.043C739.896 383.043 742.31 383.729 743.99 385.101C745.67 386.473 746.51 388.558 746.51 391.358V407H742.037L740.799 403.809H740.631C739.959 404.648 739.273 405.334 738.573 405.866C737.873 406.398 737.068 406.79 736.158 407.042C735.249 407.294 734.143 407.42 732.841 407.42C731.455 407.42 730.21 407.154 729.104 406.622C728.012 406.09 727.151 405.278 726.521 404.187C725.891 403.081 725.576 401.681 725.576 399.987C725.576 397.496 726.451 395.662 728.201 394.486C729.951 393.297 732.575 392.639 736.074 392.513L740.148 392.387V391.358C740.148 390.126 739.826 389.223 739.182 388.649C738.538 388.076 737.642 387.789 736.494 387.789C735.361 387.789 734.248 387.95 733.156 388.271C732.064 388.593 730.972 388.999 729.881 389.489L727.76 385.164C729.006 384.506 730.399 383.988 731.938 383.61C733.492 383.232 735.095 383.043 736.746 383.043ZM740.148 396.124L737.67 396.208C735.599 396.264 734.157 396.635 733.345 397.321C732.547 398.007 732.148 398.91 732.148 400.029C732.148 401.009 732.435 401.709 733.009 402.129C733.583 402.535 734.332 402.738 735.256 402.738C736.627 402.738 737.782 402.332 738.72 401.52C739.672 400.708 740.148 399.553 740.148 398.056V396.124ZM768.172 402.318C768.872 402.318 769.551 402.248 770.209 402.108C770.881 401.968 771.546 401.793 772.204 401.583V406.349C771.518 406.657 770.664 406.909 769.642 407.105C768.634 407.315 767.529 407.42 766.325 407.42C764.925 407.42 763.665 407.196 762.545 406.748C761.44 406.286 760.565 405.495 759.921 404.375C759.291 403.242 758.976 401.667 758.976 399.651V388.334H755.911V385.626L759.438 383.484L761.286 378.529H765.38V383.526H771.952V388.334H765.38V399.651C765.38 400.547 765.632 401.219 766.136 401.667C766.654 402.101 767.333 402.318 768.172 402.318ZM792.019 402.318C792.719 402.318 793.398 402.248 794.056 402.108C794.727 401.968 795.392 401.793 796.05 401.583V406.349C795.364 406.657 794.51 406.909 793.489 407.105C792.481 407.315 791.375 407.42 790.171 407.42C788.772 407.42 787.512 407.196 786.392 406.748C785.286 406.286 784.411 405.495 783.767 404.375C783.138 403.242 782.823 401.667 782.823 399.651V388.334H779.757V385.626L783.285 383.484L785.132 378.529H789.226V383.526H795.798V388.334H789.226V399.651C789.226 400.547 789.478 401.219 789.982 401.667C790.5 402.101 791.179 402.318 792.019 402.318ZM812.38 407H805.976V374.33H812.38V407ZM833.959 383.085C836.129 383.085 837.997 383.505 839.565 384.345C841.133 385.171 842.344 386.375 843.197 387.957C844.051 389.538 844.478 391.47 844.478 393.751V396.859H829.34C829.41 398.665 829.949 400.085 830.957 401.121C831.978 402.143 833.392 402.654 835.198 402.654C836.696 402.654 838.067 402.5 839.313 402.192C840.559 401.884 841.84 401.422 843.155 400.806V405.761C841.994 406.335 840.776 406.755 839.502 407.021C838.242 407.287 836.71 407.42 834.904 407.42C832.552 407.42 830.467 406.986 828.647 406.118C826.841 405.25 825.421 403.928 824.385 402.15C823.363 400.372 822.852 398.133 822.852 395.431C822.852 392.688 823.314 390.406 824.238 388.586C825.176 386.753 826.477 385.381 828.143 384.471C829.809 383.547 831.747 383.085 833.959 383.085ZM834.001 387.642C832.755 387.642 831.719 388.041 830.894 388.838C830.082 389.636 829.613 390.889 829.487 392.597H838.473C838.459 391.645 838.284 390.798 837.948 390.056C837.626 389.314 837.136 388.726 836.479 388.292C835.835 387.859 835.009 387.642 834.001 387.642ZM884.508 383.085C887.013 383.085 889.029 383.771 890.554 385.143C892.08 386.501 892.843 388.684 892.843 391.694V407H886.439V393.29C886.439 391.61 886.131 390.343 885.515 389.489C884.914 388.635 883.962 388.208 882.66 388.208C880.7 388.208 879.364 388.873 878.65 390.203C877.936 391.533 877.579 393.451 877.579 395.956V407H871.175V383.526H876.067L876.928 386.529H877.285C877.789 385.717 878.412 385.059 879.154 384.555C879.909 384.051 880.742 383.68 881.652 383.442C882.576 383.204 883.528 383.085 884.508 383.085ZM914.212 383.043C917.361 383.043 919.776 383.729 921.456 385.101C923.135 386.473 923.975 388.558 923.975 391.358V407H919.503L918.264 403.809H918.096C917.424 404.648 916.739 405.334 916.039 405.866C915.339 406.398 914.534 406.79 913.624 407.042C912.714 407.294 911.609 407.42 910.307 407.42C908.921 407.42 907.675 407.154 906.569 406.622C905.478 406.09 904.617 405.278 903.987 404.187C903.357 403.081 903.042 401.681 903.042 399.987C903.042 397.496 903.917 395.662 905.667 394.486C907.416 393.297 910.041 392.639 913.54 392.513L917.613 392.387V391.358C917.613 390.126 917.291 389.223 916.648 388.649C916.004 388.076 915.108 387.789 913.96 387.789C912.826 387.789 911.714 387.95 910.622 388.271C909.53 388.593 908.438 388.999 907.346 389.489L905.226 385.164C906.471 384.506 907.864 383.988 909.404 383.61C910.958 383.232 912.56 383.043 914.212 383.043ZM917.613 396.124L915.136 396.208C913.064 396.264 911.623 396.635 910.811 397.321C910.013 398.007 909.614 398.91 909.614 400.029C909.614 401.009 909.901 401.709 910.475 402.129C911.049 402.535 911.797 402.738 912.721 402.738C914.093 402.738 915.248 402.332 916.186 401.52C917.137 400.708 917.613 399.553 917.613 398.056V396.124ZM971.374 407L969.149 399.693H957.958L955.732 407H948.72L959.554 376.178H967.511L978.387 407H971.374ZM967.595 394.234L965.369 387.096C965.229 386.62 965.041 386.011 964.803 385.269C964.579 384.513 964.348 383.75 964.11 382.98C963.886 382.197 963.704 381.518 963.564 380.944C963.424 381.518 963.228 382.232 962.976 383.085C962.738 383.925 962.507 384.723 962.283 385.479C962.059 386.235 961.898 386.774 961.8 387.096L959.596 394.234H967.595ZM993.331 407H986.927V374.33H993.331V407ZM1014.91 383.085C1017.08 383.085 1018.95 383.505 1020.52 384.345C1022.08 385.171 1023.29 386.375 1024.15 387.957C1025 389.538 1025.43 391.47 1025.43 393.751V396.859H1010.29C1010.36 398.665 1010.9 400.085 1011.91 401.121C1012.93 402.143 1014.34 402.654 1016.15 402.654C1017.65 402.654 1019.02 402.5 1020.26 402.192C1021.51 401.884 1022.79 401.422 1024.11 400.806V405.761C1022.94 406.335 1021.73 406.755 1020.45 407.021C1019.19 407.287 1017.66 407.42 1015.85 407.42C1013.5 407.42 1011.42 406.986 1009.6 406.118C1007.79 405.25 1006.37 403.928 1005.34 402.15C1004.31 400.372 1003.8 398.133 1003.8 395.431C1003.8 392.688 1004.27 390.406 1005.19 388.586C1006.13 386.753 1007.43 385.381 1009.09 384.471C1010.76 383.547 1012.7 383.085 1014.91 383.085ZM1014.95 387.642C1013.71 387.642 1012.67 388.041 1011.84 388.838C1011.03 389.636 1010.56 390.889 1010.44 392.597H1019.42C1019.41 391.645 1019.24 390.798 1018.9 390.056C1018.58 389.314 1018.09 388.726 1017.43 388.292C1016.79 387.859 1015.96 387.642 1014.95 387.642ZM1033.91 417.33C1033.18 417.33 1032.42 417.274 1031.64 417.162C1030.86 417.064 1030.2 416.945 1029.69 416.805V411.766C1030.2 411.906 1030.69 412.004 1031.16 412.06C1031.6 412.13 1032.11 412.165 1032.69 412.165C1033.56 412.165 1034.29 411.92 1034.89 411.43C1035.5 410.954 1035.8 410.009 1035.8 408.596V383.526H1042.2V409.541C1042.2 410.968 1041.93 412.27 1041.38 413.446C1040.84 414.636 1039.95 415.58 1038.74 416.28C1037.52 416.98 1035.91 417.33 1033.91 417.33ZM1035.52 377.458C1035.52 376.255 1035.86 375.436 1036.53 375.002C1037.22 374.554 1038.04 374.33 1039.01 374.33C1039.96 374.33 1040.78 374.554 1041.47 375.002C1042.15 375.436 1042.49 376.255 1042.49 377.458C1042.49 378.648 1042.15 379.474 1041.47 379.936C1040.78 380.384 1039.96 380.608 1039.01 380.608C1038.04 380.608 1037.22 380.384 1036.53 379.936C1035.86 379.474 1035.52 378.648 1035.52 377.458ZM1075.43 395.221C1075.43 397.181 1075.17 398.917 1074.63 400.428C1074.12 401.94 1073.35 403.221 1072.35 404.271C1071.35 405.306 1070.15 406.09 1068.73 406.622C1067.33 407.154 1065.75 407.42 1063.99 407.42C1062.34 407.42 1060.82 407.154 1059.43 406.622C1058.06 406.09 1056.86 405.306 1055.84 404.271C1054.83 403.221 1054.05 401.94 1053.49 400.428C1052.94 398.917 1052.67 397.181 1052.67 395.221C1052.67 392.618 1053.13 390.413 1054.06 388.607C1054.98 386.802 1056.3 385.43 1058.01 384.492C1059.71 383.554 1061.75 383.085 1064.11 383.085C1066.31 383.085 1068.26 383.554 1069.95 384.492C1071.66 385.43 1073 386.802 1073.96 388.607C1074.94 390.413 1075.43 392.618 1075.43 395.221ZM1059.2 395.221C1059.2 396.761 1059.37 398.056 1059.71 399.105C1060.04 400.155 1060.57 400.946 1061.28 401.478C1061.99 402.01 1062.93 402.276 1064.07 402.276C1065.21 402.276 1066.12 402.01 1066.82 401.478C1067.54 400.946 1068.06 400.155 1068.38 399.105C1068.71 398.056 1068.88 396.761 1068.88 395.221C1068.88 393.667 1068.71 392.38 1068.38 391.358C1068.06 390.322 1067.54 389.545 1066.82 389.027C1066.11 388.509 1065.18 388.25 1064.03 388.25C1062.34 388.25 1061.11 388.831 1060.34 389.993C1059.58 391.155 1059.2 392.898 1059.2 395.221ZM1091.47 407L1082.52 383.526H1089.22L1093.76 396.901C1094.01 397.685 1094.2 398.511 1094.34 399.378C1094.5 400.246 1094.6 401.023 1094.66 401.709H1094.83C1094.87 400.967 1094.97 400.176 1095.12 399.336C1095.29 398.497 1095.51 397.685 1095.77 396.901L1100.29 383.526H1106.98L1098.04 407H1091.47ZM1125.2 383.085C1127.37 383.085 1129.24 383.505 1130.81 384.345C1132.38 385.171 1133.59 386.375 1134.44 387.957C1135.3 389.538 1135.72 391.47 1135.72 393.751V396.859H1120.58C1120.65 398.665 1121.19 400.085 1122.2 401.121C1123.22 402.143 1124.64 402.654 1126.44 402.654C1127.94 402.654 1129.31 402.5 1130.56 402.192C1131.8 401.884 1133.08 401.422 1134.4 400.806V405.761C1133.24 406.335 1132.02 406.755 1130.75 407.021C1129.49 407.287 1127.95 407.42 1126.15 407.42C1123.8 407.42 1121.71 406.986 1119.89 406.118C1118.09 405.25 1116.67 403.928 1115.63 402.15C1114.61 400.372 1114.1 398.133 1114.1 395.431C1114.1 392.688 1114.56 390.406 1115.48 388.586C1116.42 386.753 1117.72 385.381 1119.39 384.471C1121.05 383.547 1122.99 383.085 1125.2 383.085ZM1125.25 387.642C1124 387.642 1122.96 388.041 1122.14 388.838C1121.33 389.636 1120.86 390.889 1120.73 392.597H1129.72C1129.7 391.645 1129.53 390.798 1129.19 390.056C1128.87 389.314 1128.38 388.726 1127.72 388.292C1127.08 387.859 1126.25 387.642 1125.25 387.642ZM1144.2 417.33C1143.47 417.33 1142.72 417.274 1141.93 417.162C1141.15 417.064 1140.5 416.945 1139.98 416.805V411.766C1140.5 411.906 1140.99 412.004 1141.45 412.06C1141.9 412.13 1142.41 412.165 1142.98 412.165C1143.85 412.165 1144.58 411.92 1145.19 411.43C1145.79 410.954 1146.09 410.009 1146.09 408.596V383.526H1152.49V409.541C1152.49 410.968 1152.22 412.27 1151.67 413.446C1151.13 414.636 1150.25 415.58 1149.03 416.28C1147.81 416.98 1146.2 417.33 1144.2 417.33ZM1145.82 377.458C1145.82 376.255 1146.15 375.436 1146.82 375.002C1147.51 374.554 1148.34 374.33 1149.3 374.33C1150.25 374.33 1151.07 374.554 1151.76 375.002C1152.44 375.436 1152.79 376.255 1152.79 377.458C1152.79 378.648 1152.44 379.474 1151.76 379.936C1151.07 380.384 1150.25 380.608 1149.3 380.608C1148.34 380.608 1147.51 380.384 1146.82 379.936C1146.15 379.474 1145.82 378.648 1145.82 377.458Z" fill="#F9F9F9"/>
<path d="M90.268 151.248L55.4386 165.69L62.3969 195.234L43.9388 213.712L14.4253 206.746L0 241.61L25.7896 257.576V283.709L0 299.675L14.4253 334.539L43.9388 327.574L62.3969 346.051L55.4386 375.595L90.2663 390.038L106.217 364.219H132.319L148.27 390.038L183.099 375.595L176.141 346.051L194.599 327.574L224.111 334.539L238.538 299.673L212.748 283.708V257.578L238.538 241.612L224.111 206.746L194.599 213.712L176.141 195.234L183.099 165.69L148.27 151.248L132.321 177.064H106.215L90.268 151.248ZM119.268 228.544C124.791 228.544 130.259 229.633 135.362 231.748C140.464 233.864 145.1 236.965 149.005 240.874C152.911 244.783 156.008 249.424 158.122 254.532C160.235 259.64 161.323 265.114 161.323 270.643C161.323 276.171 160.235 281.645 158.121 286.753C156.008 291.861 152.91 296.501 149.005 300.41C145.1 304.319 140.464 307.42 135.361 309.536C130.259 311.651 124.791 312.74 119.268 312.74C108.115 312.74 97.4187 308.305 89.5322 300.41C81.6458 292.515 77.2152 281.808 77.2149 270.643C77.2148 265.114 78.3025 259.64 80.4158 254.533C82.5291 249.425 85.6267 244.784 89.5316 240.875C93.4366 236.965 98.0726 233.864 103.175 231.749C108.277 229.633 113.745 228.544 119.268 228.544Z" fill="#F9F9F9"/>
<path d="M203.917 91.2884L189.177 106.044L198.977 119.663L193.454 133.013L176.904 135.706L176.905 156.572L193.454 159.266L198.978 172.616L189.178 186.235L203.917 200.99L217.522 191.179L230.858 196.709L233.548 213.276L254.394 213.276L257.084 196.708L270.419 191.178L284.025 200.989L298.765 186.233L288.965 172.614L294.488 159.265L311.037 156.572L311.037 135.703L294.488 133.01L288.964 119.661L298.764 106.042L284.024 91.2868L270.42 101.096L257.085 95.567L254.394 79.0001L233.548 79L230.858 95.5669L217.521 101.097L203.917 91.2864L203.917 91.2884ZM235.071 124.634C237.893 123.464 240.916 122.862 243.97 122.862C247.024 122.862 250.048 123.464 252.869 124.634C255.691 125.803 258.254 127.518 260.414 129.68C262.573 131.842 264.286 134.408 265.454 137.232C266.623 140.057 267.225 143.084 267.224 146.141C267.224 149.198 266.623 152.225 265.454 155.049C264.286 157.873 262.573 160.439 260.413 162.601C258.254 164.762 255.69 166.477 252.869 167.647C247.171 170.009 240.77 170.009 235.072 167.646C229.374 165.284 224.848 160.752 222.487 155.049C220.127 149.345 220.127 142.936 222.487 137.233C224.847 131.529 229.374 126.997 235.072 124.635L235.071 124.634Z" fill="#F9F9F9"/>
</svg>
