<svg width="40" height="40" viewBox="0 0 40 40" fill="none" xmlns="http://www.w3.org/2000/svg">
<path d="M16.6667 24.9997L25.3167 19.9997L16.6667 14.9997V24.9997ZM35.9334 11.9497C36.15 12.733 36.3 13.783 36.4 15.1163C36.5167 16.4497 36.5667 17.5997 36.5667 18.5997L36.6667 19.9997C36.6667 23.6497 36.4 26.333 35.9334 28.0497C35.5167 29.5497 34.55 30.5163 33.05 30.933C32.2667 31.1497 30.8334 31.2997 28.6334 31.3997C26.4667 31.5163 24.4834 31.5663 22.65 31.5663L20 31.6663C13.0167 31.6663 8.66671 31.3997 6.95004 30.933C5.45004 30.5163 4.48337 29.5497 4.06671 28.0497C3.85004 27.2663 3.70004 26.2163 3.60004 24.883C3.48337 23.5497 3.43337 22.3997 3.43337 21.3997L3.33337 19.9997C3.33337 16.3497 3.60004 13.6663 4.06671 11.9497C4.48337 10.4497 5.45004 9.48301 6.95004 9.06634C7.73337 8.84967 9.16671 8.69967 11.3667 8.59967C13.5334 8.48301 15.5167 8.43301 17.35 8.43301L20 8.33301C26.9834 8.33301 31.3334 8.59967 33.05 9.06634C34.55 9.48301 35.5167 10.4497 35.9334 11.9497Z" fill="#0E5EB7"/>
</svg>
