<svg width="155" height="155" viewBox="0 0 155 155" fill="none" xmlns="http://www.w3.org/2000/svg">
<g clip-path="url(#clip0_652_624)">
<path d="M103.333 124.861L124.861 103.333L25.8333 4.30566H4.30554V25.8334L103.333 124.861Z" fill="#CCD6DD"/>
<path d="M4.30554 4.30566V25.8334L103.333 124.861L114.097 114.097L4.30554 4.30566Z" fill="#9AAAB4"/>
<path d="M143.909 141.256C145.132 140.034 145.881 138.561 146.195 137.089L123.625 110.416L120.607 107.393C118.179 104.965 113.847 105.357 110.928 108.276L108.285 110.911C105.37 113.826 104.978 118.157 107.406 120.585L110.597 123.776L137.076 146.186C138.561 145.876 140.038 145.123 141.27 143.896L143.909 141.256Z" fill="#D99E82"/>
<path d="M143.909 141.256C145.132 140.034 145.881 138.561 146.195 137.089L140.417 130.26L137.244 146.122C138.669 145.79 140.09 145.075 141.27 143.891L143.909 141.256ZM129.657 117.55L125.834 136.671L131.259 141.261L134.79 123.608L129.657 117.55ZM123.625 110.416L120.607 107.393C120.196 106.996 119.722 106.67 119.204 106.429L114.993 127.491L120.418 132.081L124.538 111.488L123.625 110.416ZM113.288 106.592C112.411 107.017 111.614 107.588 110.928 108.28L108.285 110.911C107.249 111.939 106.492 113.213 106.085 114.614C105.473 116.809 105.887 119.07 107.406 120.585L109.972 123.151L113.288 106.592ZM113.288 106.592C113.288 106.587 113.288 106.587 113.288 106.592Z" fill="#BF6952"/>
<path d="M143.16 155C149.699 155 155 149.699 155 143.16C155 136.62 149.699 131.319 143.16 131.319C136.621 131.319 131.319 136.62 131.319 143.16C131.319 149.699 136.621 155 143.16 155Z" fill="#8A4633"/>
<path d="M127.556 96.1176C127.97 96.5307 128.298 97.0213 128.522 97.5613C128.746 98.1014 128.861 98.6803 128.861 99.265C128.861 99.8496 128.746 100.429 128.522 100.969C128.298 101.509 127.97 101.999 127.556 102.412L101.327 128.642C100.914 129.055 100.423 129.383 99.8829 129.607C99.3429 129.83 98.7641 129.945 98.1796 129.945C97.595 129.945 97.0162 129.83 96.4762 129.607C95.9362 129.383 95.4455 129.055 95.0322 128.642C94.6189 128.228 94.291 127.738 94.0673 127.198C93.8436 126.658 93.7285 126.079 93.7285 125.494C93.7285 124.91 93.8436 124.331 94.0673 123.791C94.291 123.251 94.6189 122.76 95.0322 122.347L121.262 96.1176C121.675 95.7039 122.165 95.3757 122.705 95.1517C123.245 94.9278 123.824 94.8125 124.409 94.8125C124.994 94.8125 125.573 94.9278 126.113 95.1517C126.653 95.3757 127.143 95.7039 127.556 96.1176Z" fill="#FFAC33"/>
<path d="M95.0323 136.172C99.1936 136.172 102.567 132.799 102.567 128.637C102.567 124.476 99.1936 121.103 95.0323 121.103C90.871 121.103 87.4976 124.476 87.4976 128.637C87.4976 132.799 90.871 136.172 95.0323 136.172Z" fill="#FFAC33"/>
<path d="M127.556 103.648C131.718 103.648 135.091 100.274 135.091 96.1128C135.091 91.9515 131.718 88.5781 127.556 88.5781C123.395 88.5781 120.022 91.9515 120.022 96.1128C120.022 100.274 123.395 103.648 127.556 103.648Z" fill="#FFAC33"/>
<path d="M95.0322 132.942C97.4101 132.942 99.3378 131.015 99.3378 128.637C99.3378 126.259 97.4101 124.331 95.0322 124.331C92.6543 124.331 90.7267 126.259 90.7267 128.637C90.7267 131.015 92.6543 132.942 95.0322 132.942Z" fill="#FFCC4D"/>
<path d="M127.556 100.419C129.934 100.419 131.862 98.4911 131.862 96.1132C131.862 93.7353 129.934 91.8076 127.556 91.8076C125.179 91.8076 123.251 93.7353 123.251 96.1132C123.251 98.4911 125.179 100.419 127.556 100.419Z" fill="#FFCC4D"/>
<path d="M145.971 126.333C146.277 126.638 146.52 126.999 146.686 127.397C146.851 127.796 146.937 128.223 146.937 128.654C146.937 129.086 146.851 129.513 146.686 129.911C146.52 130.309 146.277 130.671 145.971 130.975L131.005 145.937C130.7 146.241 130.339 146.483 129.94 146.648C129.542 146.813 129.115 146.898 128.684 146.898C128.253 146.898 127.827 146.813 127.428 146.648C127.03 146.483 126.668 146.241 126.364 145.937C126.059 145.632 125.817 145.27 125.652 144.872C125.487 144.474 125.402 144.047 125.402 143.616C125.402 143.185 125.487 142.758 125.652 142.36C125.817 141.962 126.059 141.6 126.364 141.295L141.33 126.333C141.634 126.028 141.996 125.785 142.394 125.619C142.792 125.453 143.219 125.368 143.651 125.368C144.082 125.368 144.509 125.453 144.907 125.619C145.306 125.785 145.667 126.028 145.971 126.333Z" fill="#FFAC33"/>
<path d="M51.6667 124.861L30.1389 103.333L129.167 4.30566H150.694V25.8334L51.6667 124.861Z" fill="#CCD6DD"/>
<path d="M150.695 4.30566V25.8334L51.6667 124.861L40.9028 114.097L150.695 4.30566Z" fill="#9AAAB4"/>
<path d="M11.0911 141.256C9.94344 140.116 9.14953 138.669 8.80487 137.089L31.3746 110.416L34.3928 107.393C36.8211 104.965 41.1525 105.357 44.0717 108.276L46.711 110.911C49.6258 113.826 50.0176 118.157 47.5893 120.585L44.3989 123.776L17.9197 146.186C16.3295 145.845 14.8726 145.049 13.7261 143.896L11.0911 141.256Z" fill="#D99E82"/>
<path d="M11.0911 141.256C9.94344 140.116 9.14953 138.669 8.80487 137.089L14.5829 130.26L17.7561 146.122C16.231 145.772 14.8356 144.999 13.7304 143.891L11.0911 141.256ZM25.3425 117.55L29.1658 136.671L23.7408 141.261L20.2103 123.608L25.3425 117.55ZM31.3746 110.416L34.3928 107.393C34.8041 106.996 35.2784 106.67 35.7964 106.429L40.0072 127.491L34.5822 132.081L30.4618 111.488L31.3746 110.416ZM41.7122 106.592C42.5518 107.001 43.357 107.561 44.0717 108.28L46.711 110.915C47.8046 112.009 48.5408 113.3 48.9111 114.618C49.5225 116.814 49.1092 119.074 47.5893 120.59L45.0232 123.156L41.7122 106.592ZM41.7122 106.592C41.7122 106.587 41.7122 106.587 41.7122 106.592Z" fill="#BF6952"/>
<path d="M11.8403 155C18.3795 155 23.6806 149.699 23.6806 143.16C23.6806 136.62 18.3795 131.319 11.8403 131.319C5.30107 131.319 0 136.62 0 143.16C0 149.699 5.30107 155 11.8403 155Z" fill="#8A4633"/>
<path d="M27.4436 96.1176C27.0299 96.5307 26.7017 97.0213 26.4778 97.5613C26.2538 98.1014 26.1385 98.6803 26.1385 99.265C26.1385 99.8496 26.2538 100.429 26.4778 100.969C26.7017 101.509 27.0299 101.999 27.4436 102.412L53.6731 128.642C54.0864 129.055 54.5771 129.383 55.1171 129.607C55.6571 129.83 56.2359 129.945 56.8204 129.945C57.405 129.945 57.9838 129.83 58.5238 129.607C59.0638 129.383 59.5545 129.055 59.9678 128.642C60.3811 128.228 60.709 127.738 60.9327 127.198C61.1564 126.658 61.2715 126.079 61.2715 125.494C61.2715 124.91 61.1564 124.331 60.9327 123.791C60.709 123.251 60.3811 122.76 59.9678 122.347L33.7384 96.1176C33.3253 95.7039 32.8347 95.3757 32.2946 95.1517C31.7546 94.9278 31.1756 94.8125 30.591 94.8125C30.0064 94.8125 29.4274 94.9278 28.8874 95.1517C28.3473 95.3757 27.8567 95.7039 27.4436 96.1176Z" fill="#FFAC33"/>
<path d="M59.9678 136.172C64.1291 136.172 67.5026 132.799 67.5026 128.637C67.5026 124.476 64.1291 121.103 59.9678 121.103C55.8065 121.103 52.4331 124.476 52.4331 128.637C52.4331 132.799 55.8065 136.172 59.9678 136.172Z" fill="#FFAC33"/>
<path d="M27.4436 103.648C31.6049 103.648 34.9783 100.274 34.9783 96.1128C34.9783 91.9515 31.6049 88.5781 27.4436 88.5781C23.2823 88.5781 19.9089 91.9515 19.9089 96.1128C19.9089 100.274 23.2823 103.648 27.4436 103.648Z" fill="#FFAC33"/>
<path d="M59.9678 132.942C62.3457 132.942 64.2733 131.015 64.2733 128.637C64.2733 126.259 62.3457 124.331 59.9678 124.331C57.5899 124.331 55.6622 126.259 55.6622 128.637C55.6622 131.015 57.5899 132.942 59.9678 132.942Z" fill="#FFCC4D"/>
<path d="M27.4436 100.419C29.8215 100.419 31.7492 98.4911 31.7492 96.1132C31.7492 93.7353 29.8215 91.8076 27.4436 91.8076C25.0657 91.8076 23.1381 93.7353 23.1381 96.1132C23.1381 98.4911 25.0657 100.419 27.4436 100.419Z" fill="#FFCC4D"/>
<path d="M9.02873 126.333C8.72281 126.638 8.48003 126.999 8.31437 127.397C8.1487 127.796 8.06342 128.223 8.06342 128.654C8.06342 129.086 8.1487 129.513 8.31437 129.911C8.48003 130.309 8.72281 130.671 9.02873 130.975L23.9948 145.937C24.2996 146.241 24.6614 146.483 25.0596 146.648C25.4578 146.813 25.8845 146.898 26.3155 146.898C26.7465 146.898 27.1733 146.813 27.5715 146.648C27.9697 146.483 28.3315 146.241 28.6362 145.937C28.941 145.632 29.1827 145.27 29.3477 144.872C29.5126 144.474 29.5975 144.047 29.5975 143.616C29.5975 143.185 29.5126 142.758 29.3477 142.36C29.1827 141.962 28.941 141.6 28.6362 141.295L13.6701 126.333C13.366 126.028 13.0044 125.785 12.6062 125.619C12.2079 125.453 11.7808 125.368 11.3494 125.368C10.9181 125.368 10.491 125.453 10.0927 125.619C9.69442 125.785 9.33284 126.028 9.02873 126.333Z" fill="#FFAC33"/>
</g>
<defs>
<clipPath id="clip0_652_624">
<rect width="155" height="155" fill="white"/>
</clipPath>
</defs>
</svg>
