<svg width="141" height="146" viewBox="0 0 141 146" fill="none" xmlns="http://www.w3.org/2000/svg">
<path d="M32.977 67.8794C32.4664 67.3688 1.38326 60.525 1.38326 60.525C1.38326 60.525 -0.427998 63.4303 0.094715 65.1443C0.386462 66.1046 7.16957 73.9939 14.1472 81.2511C19.6539 86.9888 25.9143 92.8237 26.826 96.1545C28.224 101.284 28.3698 109.514 28.3698 109.514L8.10559 121.889C8.10559 121.889 10.5854 134.507 26.6558 134.009C41.6686 133.547 42.4466 117.646 47.2118 117.561C48.0141 117.549 49.1203 117.27 51.1018 119.397C56.0128 124.673 65.2028 134.86 68.2783 137.947C72.3871 142.056 75.3046 146.165 76.8484 145.995C78.3922 145.824 91.4114 134.179 95.1798 130.581C98.9482 126.982 102.376 122.703 102.376 119.105C102.376 115.507 97.064 112.772 97.064 112.772L67.7678 116.2L32.977 67.8794ZM119.14 21.4674C119.65 21.4674 132.669 14.9639 132.669 14.9639C132.669 14.9639 139.355 28.4936 130.785 36.2006C122.215 43.9076 120.331 39.5435 116.222 44.0777C113.086 47.5422 114.678 54.7022 114.678 54.7022L140.145 79.1846C140.145 79.1846 141.568 81.7738 140.546 83.658C139.817 84.9952 131.247 94.5864 124.61 101.479C121.619 104.579 117.45 105.624 115.189 105.077C109.536 103.703 108.685 99.2543 107.652 91.3772C106.619 83.5 99.8356 83.6216 97.3679 84.0106C92.1651 84.8372 88.7735 87.8762 88.7735 87.8762C88.7735 87.8762 58.1401 50.9581 58.4805 49.9248C58.8209 48.8916 60.0243 41.1846 56.4261 37.9389C52.8279 34.6811 45.6437 33.0278 42.8964 31.1436C40.1613 29.2594 39.7966 25.6734 40.295 22.1967C40.7934 18.7201 62.9418 18.7566 62.9418 18.7566C62.9418 18.7566 101.136 39.8231 101.319 38.9722C101.489 38.0726 119.14 21.4674 119.14 21.4674Z" fill="#B0B0AF"/>
<path d="M100.297 25.5643C101.221 22.1849 100.164 13.8823 106.619 8.38771C113.074 2.89315 123.114 3.5739 129.156 9.34805C135.198 15.1222 136.17 25.9776 129.022 33.1254C121.875 40.2732 118.58 36.286 114.593 40.1395C110.606 43.993 111.299 47.1535 113.766 49.4875C116.246 51.8215 140.85 77.5317 140.157 79.1727C139.464 80.8138 122.701 99.7895 119.954 101.163C117.207 102.537 112.393 102.403 111.432 97.8688C110.472 93.3346 112.125 84.2661 105.245 81.92C98.3768 79.586 95.3499 81.5067 88.6155 88.6545C81.881 95.8023 78.8541 103.631 84.3487 107.618C89.8432 111.605 96.7236 109.952 99.4709 114.632C102.218 119.312 98.0972 123.567 90.8157 130.301C83.5342 137.036 77.8938 142.53 76.9334 141.85C75.9731 141.157 55.0768 119.033 53.0224 116.699C50.9558 114.365 46.9686 112.298 43.1273 115.872C39.2738 119.446 38.5931 131.128 22.3768 131.128C6.16058 131.128 4.2156 113.538 9.98975 106.257C15.7639 98.975 28.54 98.2821 28.8196 93.3346C28.9411 91.0614 21.927 84.9347 15.6302 78.3583C8.22712 70.6148 1.34676 62.4095 1.05501 61.4491C0.507987 59.6622 16.4446 43.993 19.4715 41.7927C22.4984 39.5924 25.9264 40.9661 27.5796 42.753C29.2329 44.54 29.6462 50.0345 31.0198 53.1951C32.3935 56.3557 38.8484 70.1043 54.3839 54.4351C69.7735 38.8996 55.2105 32.1651 50.2629 30.7914C45.3154 29.4178 41.7537 28.968 40.3679 23.9232C39.2738 19.936 45.3154 15.2681 51.6366 9.21433C57.9578 3.16059 61.6654 0 63.3186 0C64.9718 0 87.0959 23.7773 89.9891 26.5246C92.8823 29.2719 94.657 29.9648 96.7236 29.4056C98.778 28.8708 99.8842 27.0838 100.297 25.5643Z" fill="url(#paint0_radial_125_94)"/>
<defs>
<radialGradient id="paint0_radial_125_94" cx="0" cy="0" r="1" gradientUnits="userSpaceOnUse" gradientTransform="translate(68.7548 -39.2156) scale(144.931 144.931)">
<stop offset="0.508" stop-color="#B7D118"/>
<stop offset="0.572" stop-color="#B2D019"/>
<stop offset="0.643" stop-color="#A5CD1D"/>
<stop offset="0.717" stop-color="#8FC922"/>
<stop offset="0.793" stop-color="#70C22A"/>
<stop offset="0.871" stop-color="#48BA34"/>
<stop offset="0.949" stop-color="#18B040"/>
<stop offset="0.981" stop-color="#02AB46"/>
</radialGradient>
</defs>
</svg>
