<svg width="159" height="159" viewBox="0 0 159 159" fill="none" xmlns="http://www.w3.org/2000/svg">
<mask id="mask0_125_7" style="mask-type:luminance" maskUnits="userSpaceOnUse" x="0" y="0" width="159" height="159">
<path d="M0 0H159V159H0V0Z" fill="white"/>
</mask>
<g mask="url(#mask0_125_7)">
<path d="M52.5793 68.1607C58.5418 65.9645 64.3403 71.763 62.1441 77.7305L49.1409 113.078C48.8532 113.861 48.3729 114.559 47.7443 115.108C47.1157 115.657 46.3591 116.038 45.5442 116.217C44.7294 116.397 43.8825 116.368 43.0818 116.133C42.281 115.899 41.5521 115.467 40.9624 114.877L15.4329 89.3474C14.8439 88.7576 14.4127 88.0291 14.1791 87.2289C13.9455 86.4287 13.917 85.5826 14.0962 84.7685C14.2753 83.9545 14.6564 83.1985 15.2043 82.5703C15.7522 81.9422 16.4494 81.4619 17.2316 81.1738L52.5793 68.1607Z" fill="url(#paint0_linear_125_7)"/>
<path d="M52.5793 68.1607C58.5418 65.9645 64.3403 71.763 62.1441 77.7305L49.1409 113.078C48.8532 113.861 48.3729 114.559 47.7443 115.108C47.1157 115.657 46.3591 116.038 45.5442 116.217C44.7294 116.397 43.8825 116.368 43.0818 116.133C42.281 115.899 41.5521 115.467 40.9624 114.877L15.4329 89.3474C14.8439 88.7576 14.4127 88.0291 14.1791 87.2289C13.9455 86.4287 13.917 85.5826 14.0962 84.7685C14.2753 83.9545 14.6564 83.1985 15.2043 82.5703C15.7522 81.9422 16.4494 81.4619 17.2316 81.1738L52.5793 68.1607Z" fill="url(#paint1_radial_125_7)"/>
<path d="M52.5793 68.1607C58.5418 65.9645 64.3403 71.763 62.1441 77.7305L49.1409 113.078C48.8532 113.861 48.3729 114.559 47.7443 115.108C47.1157 115.657 46.3591 116.038 45.5442 116.217C44.7294 116.397 43.8825 116.368 43.0818 116.133C42.281 115.899 41.5521 115.467 40.9624 114.877L15.4329 89.3474C14.8439 88.7576 14.4127 88.0291 14.1791 87.2289C13.9455 86.4287 13.917 85.5826 14.0962 84.7685C14.2753 83.9545 14.6564 83.1985 15.2043 82.5703C15.7522 81.9422 16.4494 81.4619 17.2316 81.1738L52.5793 68.1607Z" fill="url(#paint2_linear_125_7)"/>
<path d="M82.3918 97.9732C88.3543 95.777 94.1528 101.576 91.9566 107.543L78.9434 142.891C78.6554 143.673 78.1751 144.37 77.5469 144.918C76.9188 145.466 76.1628 145.847 75.3487 146.026C74.5346 146.205 73.6886 146.177 72.8884 145.943C72.0882 145.71 71.3597 145.278 70.7699 144.689L45.2404 119.16C44.6514 118.57 44.2202 117.842 43.9866 117.041C43.753 116.241 43.7245 115.395 43.9036 114.581C44.0828 113.767 44.4639 113.011 45.0118 112.383C45.5597 111.755 46.2569 111.274 47.0391 110.986L82.3918 97.9732Z" fill="url(#paint3_linear_125_7)"/>
<path d="M82.3918 97.9732C88.3543 95.777 94.1528 101.576 91.9566 107.543L78.9434 142.891C78.6554 143.673 78.1751 144.37 77.5469 144.918C76.9188 145.466 76.1628 145.847 75.3487 146.026C74.5346 146.205 73.6886 146.177 72.8884 145.943C72.0882 145.71 71.3597 145.278 70.7699 144.689L45.2404 119.16C44.6514 118.57 44.2202 117.842 43.9866 117.041C43.753 116.241 43.7245 115.395 43.9036 114.581C44.0828 113.767 44.4639 113.011 45.0118 112.383C45.5597 111.755 46.2569 111.274 47.0391 110.986L82.3918 97.9732Z" fill="url(#paint4_radial_125_7)"/>
<path d="M82.3918 97.9732C88.3543 95.777 94.1528 101.576 91.9566 107.543L78.9434 142.891C78.6554 143.673 78.1751 144.37 77.5469 144.918C76.9188 145.466 76.1628 145.847 75.3487 146.026C74.5346 146.205 73.6886 146.177 72.8884 145.943C72.0882 145.71 71.3597 145.278 70.7699 144.689L45.2404 119.16C44.6514 118.57 44.2202 117.842 43.9866 117.041C43.753 116.241 43.7245 115.395 43.9036 114.581C44.0828 113.767 44.4639 113.011 45.0118 112.383C45.5597 111.755 46.2569 111.274 47.0391 110.986L82.3918 97.9732Z" fill="url(#paint5_radial_125_7)"/>
<g filter="url(#filter0_i_125_7)">
<path d="M111.3 17.6384C111.436 17.5845 111.585 17.5718 111.728 17.6018C111.871 17.6319 112.002 17.7034 112.105 17.8074L141.346 47.2721C141.449 47.3754 141.52 47.5068 141.549 47.6499C141.578 47.793 141.564 47.9415 141.51 48.077C134.504 65.2689 124.85 83.5539 111.926 96.4826C99.3352 109.073 78.0391 119.801 58.8101 127.691L31.5267 100.403C39.417 81.1739 50.1446 59.8828 62.7354 47.2919C75.7038 34.3235 94.0584 24.6494 111.295 17.6434" fill="url(#paint6_linear_125_7)"/>
<path d="M111.3 17.6384C111.436 17.5845 111.585 17.5718 111.728 17.6018C111.871 17.6319 112.002 17.7034 112.105 17.8074L141.346 47.2721C141.449 47.3754 141.52 47.5068 141.549 47.6499C141.578 47.793 141.564 47.9415 141.51 48.077C134.504 65.2689 124.85 83.5539 111.926 96.4826C99.3352 109.073 78.0391 119.801 58.8101 127.691L31.5267 100.403C39.417 81.1739 50.1446 59.8828 62.7354 47.2919C75.7038 34.3235 94.0584 24.6494 111.295 17.6434" fill="url(#paint7_radial_125_7)"/>
<path d="M111.3 17.6384C111.436 17.5845 111.585 17.5718 111.728 17.6018C111.871 17.6319 112.002 17.7034 112.105 17.8074L141.346 47.2721C141.449 47.3754 141.52 47.5068 141.549 47.6499C141.578 47.793 141.564 47.9415 141.51 48.077C134.504 65.2689 124.85 83.5539 111.926 96.4826C99.3352 109.073 78.0391 119.801 58.8101 127.691L31.5267 100.403C39.417 81.1739 50.1446 59.8828 62.7354 47.2919C75.7038 34.3235 94.0584 24.6494 111.295 17.6434" fill="url(#paint8_radial_125_7)"/>
<path d="M111.3 17.6384C111.436 17.5845 111.585 17.5718 111.728 17.6018C111.871 17.6319 112.002 17.7034 112.105 17.8074L141.346 47.2721C141.449 47.3754 141.52 47.5068 141.549 47.6499C141.578 47.793 141.564 47.9415 141.51 48.077C134.504 65.2689 124.85 83.5539 111.926 96.4826C99.3352 109.073 78.0391 119.801 58.8101 127.691L31.5267 100.403C39.417 81.1739 50.1446 59.8828 62.7354 47.2919C75.7038 34.3235 94.0584 24.6494 111.295 17.6434" fill="url(#paint9_radial_125_7)"/>
<path d="M111.3 17.6384C111.436 17.5845 111.585 17.5718 111.728 17.6018C111.871 17.6319 112.002 17.7034 112.105 17.8074L141.346 47.2721C141.449 47.3754 141.52 47.5068 141.549 47.6499C141.578 47.793 141.564 47.9415 141.51 48.077C134.504 65.2689 124.85 83.5539 111.926 96.4826C99.3352 109.073 78.0391 119.801 58.8101 127.691L31.5267 100.403C39.417 81.1739 50.1446 59.8828 62.7354 47.2919C75.7038 34.3235 94.0584 24.6494 111.295 17.6434" fill="url(#paint10_radial_125_7)"/>
</g>
<g filter="url(#filter1_dii_125_7)">
<path d="M121.734 54.9636C121.773 57.18 121.369 59.3817 120.547 61.4404C119.726 63.4992 118.502 65.3736 116.948 66.9545C115.395 68.5354 113.541 69.791 111.497 70.6481C109.453 71.5052 107.258 71.9466 105.042 71.9466C102.825 71.9466 100.631 71.5052 98.5864 70.6481C96.5422 69.791 94.6891 68.5354 93.1353 66.9545C91.5814 65.3736 90.358 63.4992 89.5363 61.4404C88.7146 59.3817 88.311 57.18 88.3493 54.9636C88.4248 50.5864 90.2167 46.4139 93.3389 43.3451C96.4612 40.2763 100.664 38.5566 105.042 38.5566C109.42 38.5566 113.622 40.2763 116.745 43.3451C119.867 46.4139 121.659 50.5864 121.734 54.9636Z" fill="url(#paint11_linear_125_7)"/>
<path d="M121.734 54.9636C121.773 57.18 121.369 59.3817 120.547 61.4404C119.726 63.4992 118.502 65.3736 116.948 66.9545C115.395 68.5354 113.541 69.791 111.497 70.6481C109.453 71.5052 107.258 71.9466 105.042 71.9466C102.825 71.9466 100.631 71.5052 98.5864 70.6481C96.5422 69.791 94.6891 68.5354 93.1353 66.9545C91.5814 65.3736 90.358 63.4992 89.5363 61.4404C88.7146 59.3817 88.311 57.18 88.3493 54.9636C88.4248 50.5864 90.2167 46.4139 93.3389 43.3451C96.4612 40.2763 100.664 38.5566 105.042 38.5566C109.42 38.5566 113.622 40.2763 116.745 43.3451C119.867 46.4139 121.659 50.5864 121.734 54.9636Z" fill="url(#paint12_radial_125_7)"/>
</g>
<path d="M116.597 54.9642C116.629 56.5017 116.353 58.0302 115.787 59.46C115.22 60.8898 114.374 62.1922 113.298 63.2909C112.222 64.3896 110.938 65.2624 109.52 65.8583C108.102 66.4542 106.58 66.7611 105.042 66.7611C103.504 66.7611 101.981 66.4542 100.564 65.8583C99.146 65.2624 97.8614 64.3896 96.7853 63.2909C95.7091 62.1922 94.8631 60.8898 94.2968 59.46C93.7304 58.0302 93.4551 56.5017 93.487 54.9642C93.5497 51.9411 94.7946 49.063 96.9547 46.9473C99.1148 44.8315 102.018 43.6465 105.042 43.6465C108.065 43.6465 110.969 44.8315 113.129 46.9473C115.289 49.063 116.534 51.9411 116.597 54.9642Z" fill="url(#paint13_radial_125_7)"/>
<g filter="url(#filter2_i_125_7)">
<path d="M12.0393 146.741C8.52635 143.228 9.93748 118.862 22.3594 113.893C22.3594 113.893 34.7812 108.924 42.7859 116.874C50.7905 124.824 47.2031 133.768 47.2031 133.768C43.6902 144.307 28.7343 148.495 26.9753 146.736C26.0064 145.767 27.7504 144.004 26.9753 143.228C26.2002 142.448 24.9978 143.338 21.7084 144.982C19.3632 146.155 13.4454 148.148 12.0393 146.741Z" fill="url(#paint14_radial_125_7)"/>
<path d="M12.0393 146.741C8.52635 143.228 9.93748 118.862 22.3594 113.893C22.3594 113.893 34.7812 108.924 42.7859 116.874C50.7905 124.824 47.2031 133.768 47.2031 133.768C43.6902 144.307 28.7343 148.495 26.9753 146.736C26.0064 145.767 27.7504 144.004 26.9753 143.228C26.2002 142.448 24.9978 143.338 21.7084 144.982C19.3632 146.155 13.4454 148.148 12.0393 146.741Z" fill="url(#paint15_radial_125_7)"/>
</g>
<path d="M30.1106 104.254C30.8027 103.561 31.6245 103.012 32.5291 102.637C33.4337 102.262 34.4032 102.069 35.3824 102.069C36.3616 102.069 37.3311 102.262 38.2357 102.637C39.1403 103.012 39.9621 103.561 40.6542 104.254L58.2188 121.823C59.5528 123.233 60.2843 125.108 60.2578 127.048C60.2312 128.989 59.4488 130.843 58.0767 132.215C56.7047 133.588 54.8513 134.371 52.9107 134.399C50.9701 134.426 49.0953 133.696 47.685 132.362L30.1106 114.798C29.418 114.106 28.8685 113.284 28.4937 112.379C28.1188 111.475 27.9259 110.505 27.9259 109.526C27.9259 108.547 28.1188 107.577 28.4937 106.673C28.8685 105.768 29.418 104.946 30.1106 104.254Z" fill="url(#paint16_linear_125_7)"/>
<path d="M30.1106 104.254C30.8027 103.561 31.6245 103.012 32.5291 102.637C33.4337 102.262 34.4032 102.069 35.3824 102.069C36.3616 102.069 37.3311 102.262 38.2357 102.637C39.1403 103.012 39.9621 103.561 40.6542 104.254L58.2188 121.823C59.5528 123.233 60.2843 125.108 60.2578 127.048C60.2312 128.989 59.4488 130.843 58.0767 132.215C56.7047 133.588 54.8513 134.371 52.9107 134.399C50.9701 134.426 49.0953 133.696 47.685 132.362L30.1106 114.798C29.418 114.106 28.8685 113.284 28.4937 112.379C28.1188 111.475 27.9259 110.505 27.9259 109.526C27.9259 108.547 28.1188 107.577 28.4937 106.673C28.8685 105.768 29.418 104.946 30.1106 104.254Z" fill="url(#paint17_radial_125_7)"/>
<path d="M30.1106 104.254C30.8027 103.561 31.6245 103.012 32.5291 102.637C33.4337 102.262 34.4032 102.069 35.3824 102.069C36.3616 102.069 37.3311 102.262 38.2357 102.637C39.1403 103.012 39.9621 103.561 40.6542 104.254L58.2188 121.823C59.5528 123.233 60.2843 125.108 60.2578 127.048C60.2312 128.989 59.4488 130.843 58.0767 132.215C56.7047 133.588 54.8513 134.371 52.9107 134.399C50.9701 134.426 49.0953 133.696 47.685 132.362L30.1106 114.798C29.418 114.106 28.8685 113.284 28.4937 112.379C28.1188 111.475 27.9259 110.505 27.9259 109.526C27.9259 108.547 28.1188 107.577 28.4937 106.673C28.8685 105.768 29.418 104.946 30.1106 104.254Z" fill="url(#paint18_radial_125_7)"/>
<path d="M144.948 14.2649C140.243 9.55945 131.99 10.0911 125.978 12.1581C121.442 13.7135 116.945 15.3819 112.492 17.1616C112.416 17.1921 112.349 17.2409 112.297 17.3037C112.244 17.3664 112.208 17.4412 112.191 17.5213C112.174 17.6015 112.178 17.6845 112.201 17.7631C112.224 17.8416 112.266 17.9132 112.324 17.9715L141.192 47.0338C141.25 47.0903 141.321 47.1317 141.399 47.1545C141.476 47.1774 141.558 47.1808 141.638 47.1647C141.717 47.1485 141.791 47.1132 141.854 47.0618C141.917 47.0104 141.966 46.9445 141.997 46.8698C143.799 42.37 145.487 37.8255 147.06 33.2405C149.097 27.3078 150.737 20.0534 144.948 14.2649Z" fill="url(#paint19_linear_125_7)"/>
<path d="M144.948 14.2649C140.243 9.55945 131.99 10.0911 125.978 12.1581C121.442 13.7135 116.945 15.3819 112.492 17.1616C112.416 17.1921 112.349 17.2409 112.297 17.3037C112.244 17.3664 112.208 17.4412 112.191 17.5213C112.174 17.6015 112.178 17.6845 112.201 17.7631C112.224 17.8416 112.266 17.9132 112.324 17.9715L141.192 47.0338C141.25 47.0903 141.321 47.1317 141.399 47.1545C141.476 47.1774 141.558 47.1808 141.638 47.1647C141.717 47.1485 141.791 47.1132 141.854 47.0618C141.917 47.0104 141.966 46.9445 141.997 46.8698C143.799 42.37 145.487 37.8255 147.06 33.2405C149.097 27.3078 150.737 20.0534 144.948 14.2649Z" fill="url(#paint20_radial_125_7)"/>
<path d="M144.948 14.2649C140.243 9.55945 131.99 10.0911 125.978 12.1581C121.442 13.7135 116.945 15.3819 112.492 17.1616C112.416 17.1921 112.349 17.2409 112.297 17.3037C112.244 17.3664 112.208 17.4412 112.191 17.5213C112.174 17.6015 112.178 17.6845 112.201 17.7631C112.224 17.8416 112.266 17.9132 112.324 17.9715L141.192 47.0338C141.25 47.0903 141.321 47.1317 141.399 47.1545C141.476 47.1774 141.558 47.1808 141.638 47.1647C141.717 47.1485 141.791 47.1132 141.854 47.0618C141.917 47.0104 141.966 46.9445 141.997 46.8698C143.799 42.37 145.487 37.8255 147.06 33.2405C149.097 27.3078 150.737 20.0534 144.948 14.2649Z" fill="url(#paint21_linear_125_7)"/>
<path d="M67.4855 83.0669C73.448 80.8707 79.2465 86.6693 77.0504 92.6367L64.0422 127.984C63.7544 128.768 63.2741 129.466 62.6455 130.014C62.017 130.563 61.2604 130.944 60.4455 131.124C59.6306 131.303 58.7838 131.274 57.983 131.04C57.1822 130.805 56.4534 130.373 55.8636 129.783L30.3342 104.254C29.7452 103.664 29.314 102.935 29.0804 102.135C28.8468 101.335 28.8182 100.489 28.9974 99.6748C29.1765 98.8607 29.5576 98.1048 30.1056 97.4766C30.6535 96.8484 31.3506 96.3682 32.1329 96.0801L67.4855 83.0669Z" fill="url(#paint22_linear_125_7)"/>
<path d="M67.4855 83.0669C73.448 80.8707 79.2465 86.6693 77.0504 92.6367L64.0422 127.984C63.7544 128.768 63.2741 129.466 62.6455 130.014C62.017 130.563 61.2604 130.944 60.4455 131.124C59.6306 131.303 58.7838 131.274 57.983 131.04C57.1822 130.805 56.4534 130.373 55.8636 129.783L30.3342 104.254C29.7452 103.664 29.314 102.935 29.0804 102.135C28.8468 101.335 28.8182 100.489 28.9974 99.6748C29.1765 98.8607 29.5576 98.1048 30.1056 97.4766C30.6535 96.8484 31.3506 96.3682 32.1329 96.0801L67.4855 83.0669Z" fill="url(#paint23_radial_125_7)"/>
<path d="M67.4855 83.0669C73.448 80.8707 79.2465 86.6693 77.0504 92.6367L64.0422 127.984C63.7544 128.768 63.2741 129.466 62.6455 130.014C62.017 130.563 61.2604 130.944 60.4455 131.124C59.6306 131.303 58.7838 131.274 57.983 131.04C57.1822 130.805 56.4534 130.373 55.8636 129.783L30.3342 104.254C29.7452 103.664 29.314 102.935 29.0804 102.135C28.8468 101.335 28.8182 100.489 28.9974 99.6748C29.1765 98.8607 29.5576 98.1048 30.1056 97.4766C30.6535 96.8484 31.3506 96.3682 32.1329 96.0801L67.4855 83.0669Z" fill="url(#paint24_radial_125_7)"/>
<path d="M67.4855 83.0669C73.448 80.8707 79.2465 86.6693 77.0504 92.6367L64.0422 127.984C63.7544 128.768 63.2741 129.466 62.6455 130.014C62.017 130.563 61.2604 130.944 60.4455 131.124C59.6306 131.303 58.7838 131.274 57.983 131.04C57.1822 130.805 56.4534 130.373 55.8636 129.783L30.3342 104.254C29.7452 103.664 29.314 102.935 29.0804 102.135C28.8468 101.335 28.8182 100.489 28.9974 99.6748C29.1765 98.8607 29.5576 98.1048 30.1056 97.4766C30.6535 96.8484 31.3506 96.3682 32.1329 96.0801L67.4855 83.0669Z" fill="url(#paint25_radial_125_7)"/>
<g filter="url(#filter3_f_125_7)">
<path d="M45.7373 109.546L73.6865 87.6484L55.6748 119.637L45.7373 109.546Z" fill="url(#paint26_linear_125_7)"/>
</g>
</g>
<defs>
<filter id="filter0_i_125_7" x="31.4017" y="17.3359" width="110.162" height="110.355" filterUnits="userSpaceOnUse" color-interpolation-filters="sRGB">
<feFlood flood-opacity="0" result="BackgroundImageFix"/>
<feBlend mode="normal" in="SourceGraphic" in2="BackgroundImageFix" result="shape"/>
<feColorMatrix in="SourceAlpha" type="matrix" values="0 0 0 0 0 0 0 0 0 0 0 0 0 0 0 0 0 0 127 0" result="hardAlpha"/>
<feOffset dx="-0.125" dy="-0.25"/>
<feGaussianBlur stdDeviation="0.375"/>
<feComposite in2="hardAlpha" operator="arithmetic" k2="-1" k3="1"/>
<feColorMatrix type="matrix" values="0 0 0 0 0.745098 0 0 0 0 0.772549 0 0 0 0 0.952941 0 0 0 1 0"/>
<feBlend mode="normal" in2="shape" result="effect1_innerShadow_125_7"/>
</filter>
<filter id="filter1_dii_125_7" x="87.8468" y="38.1816" width="34.39" height="34.3896" filterUnits="userSpaceOnUse" color-interpolation-filters="sRGB">
<feFlood flood-opacity="0" result="BackgroundImageFix"/>
<feColorMatrix in="SourceAlpha" type="matrix" values="0 0 0 0 0 0 0 0 0 0 0 0 0 0 0 0 0 0 127 0" result="hardAlpha"/>
<feOffset dy="0.125"/>
<feGaussianBlur stdDeviation="0.25"/>
<feComposite in2="hardAlpha" operator="out"/>
<feColorMatrix type="matrix" values="0 0 0 0 0.866667 0 0 0 0 0.764706 0 0 0 0 0.847059 0 0 0 1 0"/>
<feBlend mode="normal" in2="BackgroundImageFix" result="effect1_dropShadow_125_7"/>
<feBlend mode="normal" in="SourceGraphic" in2="effect1_dropShadow_125_7" result="shape"/>
<feColorMatrix in="SourceAlpha" type="matrix" values="0 0 0 0 0 0 0 0 0 0 0 0 0 0 0 0 0 0 127 0" result="hardAlpha"/>
<feOffset dx="-0.05" dy="0.05"/>
<feGaussianBlur stdDeviation="0.025"/>
<feComposite in2="hardAlpha" operator="arithmetic" k2="-1" k3="1"/>
<feColorMatrix type="matrix" values="0 0 0 0 0.721569 0 0 0 0 0.690196 0 0 0 0 0.701961 0 0 0 1 0"/>
<feBlend mode="normal" in2="shape" result="effect2_innerShadow_125_7"/>
<feColorMatrix in="SourceAlpha" type="matrix" values="0 0 0 0 0 0 0 0 0 0 0 0 0 0 0 0 0 0 127 0" result="hardAlpha"/>
<feOffset dx="0.05" dy="-0.05"/>
<feGaussianBlur stdDeviation="0.025"/>
<feComposite in2="hardAlpha" operator="arithmetic" k2="-1" k3="1"/>
<feColorMatrix type="matrix" values="0 0 0 0 0.615686 0 0 0 0 0.560784 0 0 0 0 0.65098 0 0 0 1 0"/>
<feBlend mode="normal" in2="effect2_innerShadow_125_7" result="effect3_innerShadow_125_7"/>
</filter>
<filter id="filter2_i_125_7" x="10.3715" y="112.259" width="37.6331" height="34.9652" filterUnits="userSpaceOnUse" color-interpolation-filters="sRGB">
<feFlood flood-opacity="0" result="BackgroundImageFix"/>
<feBlend mode="normal" in="SourceGraphic" in2="BackgroundImageFix" result="shape"/>
<feColorMatrix in="SourceAlpha" type="matrix" values="0 0 0 0 0 0 0 0 0 0 0 0 0 0 0 0 0 0 127 0" result="hardAlpha"/>
<feOffset dy="-0.1"/>
<feGaussianBlur stdDeviation="0.1"/>
<feComposite in2="hardAlpha" operator="arithmetic" k2="-1" k3="1"/>
<feColorMatrix type="matrix" values="0 0 0 0 0.847059 0 0 0 0 0.505882 0 0 0 0 0.360784 0 0 0 1 0"/>
<feBlend mode="normal" in2="shape" result="effect1_innerShadow_125_7"/>
</filter>
<filter id="filter3_f_125_7" x="45.2373" y="87.1484" width="28.9492" height="32.9893" filterUnits="userSpaceOnUse" color-interpolation-filters="sRGB">
<feFlood flood-opacity="0" result="BackgroundImageFix"/>
<feBlend mode="normal" in="SourceGraphic" in2="BackgroundImageFix" result="shape"/>
<feGaussianBlur stdDeviation="0.25" result="effect1_foregroundBlur_125_7"/>
</filter>
<linearGradient id="paint0_linear_125_7" x1="40.3015" y1="85.9985" x2="15.4578" y2="81.9042" gradientUnits="userSpaceOnUse">
<stop stop-color="#EE2452"/>
<stop offset="1" stop-color="#F63E7A"/>
</linearGradient>
<radialGradient id="paint1_radial_125_7" cx="0" cy="0" r="1" gradientTransform="matrix(37.3707 -13.5705 2.30729 6.35379 11.915 84.7811)" gradientUnits="userSpaceOnUse">
<stop offset="0.164" stop-color="#FF8DB0"/>
<stop offset="1" stop-color="#FF8DB0" stop-opacity="0"/>
</radialGradient>
<linearGradient id="paint2_linear_125_7" x1="24.3717" y1="98.0477" x2="28.4212" y2="94.0975" gradientUnits="userSpaceOnUse">
<stop offset="0.491" stop-color="#DD467C"/>
<stop offset="1" stop-color="#DD467C" stop-opacity="0"/>
</linearGradient>
<linearGradient id="paint3_linear_125_7" x1="88.9008" y1="107.682" x2="58.0051" y2="131.925" gradientUnits="userSpaceOnUse">
<stop stop-color="#F83267"/>
<stop offset="1" stop-color="#FF3190"/>
</linearGradient>
<radialGradient id="paint4_radial_125_7" cx="0" cy="0" r="1" gradientUnits="userSpaceOnUse" gradientTransform="translate(72.442 110.319) rotate(86.482) scale(37.9566 32.7245)">
<stop offset="0.757" stop-color="#E76CBE" stop-opacity="0"/>
<stop offset="0.951" stop-color="#E76CBE"/>
</radialGradient>
<radialGradient id="paint5_radial_125_7" cx="0" cy="0" r="1" gradientUnits="userSpaceOnUse" gradientTransform="translate(66.8495 130.35) rotate(-57.346) scale(26.1879 11.503)">
<stop stop-color="#FF5898"/>
<stop offset="1" stop-color="#FF5898" stop-opacity="0"/>
</radialGradient>
<linearGradient id="paint6_linear_125_7" x1="67.0085" y1="43.0884" x2="110.793" y2="87.186" gradientUnits="userSpaceOnUse">
<stop stop-color="#CCBBC0"/>
<stop offset="1" stop-color="#EAD2EC"/>
</linearGradient>
<radialGradient id="paint7_radial_125_7" cx="0" cy="0" r="1" gradientUnits="userSpaceOnUse" gradientTransform="translate(119.101 107.21) rotate(-142.447) scale(82.8634 155.762)">
<stop offset="0.811" stop-color="#E7E5E5" stop-opacity="0"/>
<stop offset="1" stop-color="#E7E5E5"/>
</radialGradient>
<radialGradient id="paint8_radial_125_7" cx="0" cy="0" r="1" gradientUnits="userSpaceOnUse" gradientTransform="translate(45.618 105.883) rotate(-56.929) scale(48.7127 22.8945)">
<stop offset="0.281" stop-color="#B5A3A5"/>
<stop offset="1" stop-color="#B5A3A5" stop-opacity="0"/>
</radialGradient>
<radialGradient id="paint9_radial_125_7" cx="0" cy="0" r="1" gradientUnits="userSpaceOnUse" gradientTransform="translate(31.5233 99.8254) rotate(-73.625) scale(43.1843 7.31748)">
<stop offset="0.208" stop-color="#B28F96"/>
<stop offset="1" stop-color="#B28F96" stop-opacity="0"/>
</radialGradient>
<radialGradient id="paint10_radial_125_7" cx="0" cy="0" r="1" gradientUnits="userSpaceOnUse" gradientTransform="translate(134.703 35.3272) rotate(137.284) scale(65.4633 20.3256)">
<stop stop-color="#FAECF1"/>
<stop offset="1" stop-color="#FAECF1" stop-opacity="0"/>
</radialGradient>
<linearGradient id="paint11_linear_125_7" x1="88.3493" y1="52.1265" x2="121.734" y2="54.9636" gradientUnits="userSpaceOnUse">
<stop stop-color="#A796A0"/>
<stop offset="1" stop-color="#A5959F"/>
</linearGradient>
<radialGradient id="paint12_radial_125_7" cx="0" cy="0" r="1" gradientUnits="userSpaceOnUse" gradientTransform="translate(105.049 54.9636) rotate(90) scale(16.6919)">
<stop offset="0.587" stop-color="#93859B"/>
<stop offset="1" stop-color="#93859B" stop-opacity="0"/>
</radialGradient>
<radialGradient id="paint13_radial_125_7" cx="0" cy="0" r="1" gradientUnits="userSpaceOnUse" gradientTransform="translate(105.039 66.5215) rotate(-90) scale(24.0765 22.142)">
<stop stop-color="#72CDFF"/>
<stop offset="0.738" stop-color="#66ACFF"/>
<stop offset="1" stop-color="#3B57F4"/>
</radialGradient>
<radialGradient id="paint14_radial_125_7" cx="0" cy="0" r="1" gradientUnits="userSpaceOnUse" gradientTransform="translate(40.699 120.477) rotate(135) scale(28.8508 22.6774)">
<stop stop-color="#D46213"/>
<stop offset="1" stop-color="#FF9542"/>
</radialGradient>
<radialGradient id="paint15_radial_125_7" cx="0" cy="0" r="1" gradientUnits="userSpaceOnUse" gradientTransform="translate(41.2605 143.944) rotate(-131.186) scale(35.6485 37.5675)">
<stop offset="0.871" stop-color="#FFC484" stop-opacity="0"/>
<stop offset="1" stop-color="#FFC484"/>
</radialGradient>
<linearGradient id="paint16_linear_125_7" x1="28.8087" y1="109.079" x2="56.1369" y2="135.94" gradientUnits="userSpaceOnUse">
<stop stop-color="#452860"/>
<stop offset="1" stop-color="#51509F"/>
</linearGradient>
<radialGradient id="paint17_radial_125_7" cx="0" cy="0" r="1" gradientTransform="matrix(1.70801 7.91894 -6.9966 1.50906 33.9365 106.594)" gradientUnits="userSpaceOnUse">
<stop stop-color="#8E839A"/>
<stop offset="1" stop-color="#8E839A" stop-opacity="0"/>
</radialGradient>
<radialGradient id="paint18_radial_125_7" cx="0" cy="0" r="1" gradientUnits="userSpaceOnUse" gradientTransform="translate(35.8097 111.389) rotate(47.9357) scale(30.8674 16.1801)">
<stop offset="0.86" stop-color="#6175B9" stop-opacity="0"/>
<stop offset="1" stop-color="#6175B9"/>
</radialGradient>
<linearGradient id="paint19_linear_125_7" x1="144.973" y1="14.2897" x2="126.708" y2="32.5548" gradientUnits="userSpaceOnUse">
<stop stop-color="#FF3745"/>
<stop offset="1" stop-color="#ED224B"/>
</linearGradient>
<radialGradient id="paint20_radial_125_7" cx="0" cy="0" r="1" gradientUnits="userSpaceOnUse" gradientTransform="translate(142.797 21.6033) rotate(135) scale(40.9761 9.83663)">
<stop offset="0.189" stop-color="#FF5971"/>
<stop offset="1" stop-color="#FF5971" stop-opacity="0"/>
</radialGradient>
<linearGradient id="paint21_linear_125_7" x1="128.303" y1="33.7722" x2="130.127" y2="31.8691" gradientUnits="userSpaceOnUse">
<stop stop-color="#D2575E"/>
<stop offset="1" stop-color="#F93251" stop-opacity="0"/>
</linearGradient>
<linearGradient id="paint22_linear_125_7" x1="75.3262" y1="84.7911" x2="43.0989" y2="117.018" gradientUnits="userSpaceOnUse">
<stop stop-color="#FF2644"/>
<stop offset="1" stop-color="#FF2982"/>
</linearGradient>
<radialGradient id="paint23_radial_125_7" cx="0" cy="0" r="1" gradientUnits="userSpaceOnUse" gradientTransform="translate(30.9851 96.5024) rotate(-20.865) scale(37.056 9.70096)">
<stop stop-color="#FF95AF"/>
<stop offset="1" stop-color="#FF95AF" stop-opacity="0"/>
</radialGradient>
<radialGradient id="paint24_radial_125_7" cx="0" cy="0" r="1" gradientTransform="matrix(16.2811 16.1139 -4.75991 4.80925 26.8213 100.905)" gradientUnits="userSpaceOnUse">
<stop offset="0.382" stop-color="#E14678"/>
<stop offset="1" stop-color="#E14678" stop-opacity="0"/>
</radialGradient>
<radialGradient id="paint25_radial_125_7" cx="0" cy="0" r="1" gradientUnits="userSpaceOnUse" gradientTransform="translate(57.5381 95.1012) rotate(84.6743) scale(36.8034 39.2194)">
<stop offset="0.832" stop-color="#E67BC7" stop-opacity="0"/>
<stop offset="1" stop-color="#E67BC7"/>
</radialGradient>
<linearGradient id="paint26_linear_125_7" x1="69.4929" y1="89.9788" x2="48.9968" y2="111.409" gradientUnits="userSpaceOnUse">
<stop stop-color="#FF5970"/>
<stop offset="1" stop-color="#FF5794"/>
</linearGradient>
</defs>
</svg>
