<svg width="611" height="332" viewBox="0 0 611 332" fill="none" xmlns="http://www.w3.org/2000/svg">
<path d="M186.542 262.739C185.873 251.025 180.752 240.009 172.228 231.946L142.462 203.788C134.175 195.949 126.693 187.3 120.128 177.971L105.25 156.829C96.6276 144.576 92 129.959 92 114.976C92 103.179 94.9427 91.5672 100.562 81.1937L100.823 80.7114C102.899 76.8796 108.09 76.1497 111.141 79.2606L201.535 171.409C205.727 175.682 211.216 178.447 217.145 179.27C220.501 179.736 222.793 175.968 220.835 173.202L188.562 127.598C183.291 120.15 182.548 110.405 186.628 102.243L186.766 101.967C189.099 97.3021 193.609 94.1114 198.784 93.4645C208.661 92.2298 218.535 95.7826 225.361 103.028L281.118 162.205C290.692 172.367 296.126 185.739 296.352 199.699L298.5 332H190.5L186.542 262.739Z" fill="#04162B"/>
<path d="M70.6279 301.593C69.7572 290.34 64.7797 279.8 56.6427 271.978L40.4919 256.453C32.2878 248.567 24.8913 239.882 18.4126 230.526L9.87315 218.195C3.4443 208.912 0 197.888 0 186.596C0 177.715 2.1852 168.97 6.36291 161.133L6.47477 160.923C8.03372 157.998 11.9918 157.444 14.2935 159.829L81.1551 229.09C84.2602 232.307 88.3512 234.393 92.7781 235.018C95.2547 235.368 96.9581 232.598 95.5287 230.545L71.5086 196.055C67.6166 190.467 67.0671 183.205 70.0737 177.095L70.2616 176.713C71.9592 173.263 75.2757 170.896 79.0901 170.411C86.4164 169.481 93.7416 172.141 98.7628 177.557L136.212 217.946C145.813 228.301 151.148 241.9 151.148 256.021V332H72.9806L70.6279 301.593Z" fill="#0E5EB7"/>
<path d="M423.958 262.739C424.627 251.025 429.748 240.009 438.272 231.946L468.038 203.788C476.325 195.949 483.807 187.3 490.372 177.971L505.25 156.829C513.872 144.576 518.5 129.959 518.5 114.976C518.5 103.179 515.557 91.5672 509.938 81.1937L509.677 80.7114C507.601 76.8796 502.41 76.1497 499.359 79.2606L408.965 171.409C404.773 175.682 399.284 178.447 393.355 179.27C389.999 179.736 387.707 175.968 389.665 173.202L421.938 127.598C427.209 120.15 427.952 110.405 423.872 102.243L423.734 101.967C421.401 97.3021 416.891 94.1114 411.716 93.4645C401.839 92.2298 391.965 95.7826 385.139 103.028L329.382 162.205C319.808 172.367 314.374 185.739 314.148 199.699L312 332H420L423.958 262.739Z" fill="#04162B"/>
<path d="M539.872 301.593C540.743 290.34 545.72 279.8 553.857 271.978L570.008 256.453C578.212 248.567 585.609 239.882 592.087 230.526L600.627 218.195C607.056 208.912 610.5 197.888 610.5 186.596C610.5 177.715 608.315 168.97 604.137 161.133L604.025 160.923C602.466 157.998 598.508 157.444 596.206 159.829L529.345 229.09C526.24 232.307 522.149 234.393 517.722 235.018C515.245 235.368 513.542 232.598 514.971 230.545L538.991 196.055C542.883 190.467 543.433 183.205 540.426 177.095L540.238 176.713C538.541 173.263 535.224 170.896 531.41 170.411C524.084 169.481 516.758 172.141 511.737 177.557L474.288 217.946C464.687 228.301 459.352 241.9 459.352 256.021V332H537.519L539.872 301.593Z" fill="#0E5EB7"/>
<path d="M334.5 0C356.868 0 375 18.1325 375 40.5C375 49.5742 372.015 57.9509 366.975 64.7031L367.01 64.7852L366.596 65.1982C364.459 67.9711 361.971 70.4587 359.198 72.5957L304.784 127.011L249.753 71.7637C240.744 64.3355 235 53.0885 235 40.5C235 18.1325 253.132 0 275.5 0C287.13 0 297.613 4.90339 305 12.7539C312.387 4.90339 322.87 0 334.5 0ZM299.779 40.0693H293.904L290.315 34.2598L282.477 37.5098L284.043 44.1592L279.889 48.3174L273.246 46.75L270 54.5957L275.804 58.1895V64.0703L270 67.6631L273.246 75.5098L279.889 73.9424L284.043 78.1006L282.477 84.75L290.314 88L293.904 82.1895H299.779L303.368 88L311.207 84.75L309.641 78.1006L313.795 73.9424L320.437 75.5098L323.684 67.6631L317.88 64.0703V58.1895L323.684 54.5967L320.437 46.75L313.795 48.3174L309.641 44.1592L311.207 37.5098L303.368 34.2598L299.779 40.0693ZM296.842 51.6553C298.085 51.6553 299.316 51.8999 300.464 52.376C301.612 52.8521 302.655 53.5509 303.534 54.4307C304.413 55.3104 305.11 56.3545 305.586 57.5039C306.062 58.6534 306.307 59.8857 306.307 61.1299C306.307 62.374 306.062 63.6064 305.586 64.7559C305.11 65.9052 304.413 66.9494 303.534 67.8291C302.655 68.7088 301.612 69.4067 300.464 69.8828C299.316 70.3589 298.085 70.6035 296.842 70.6035C294.332 70.6035 291.924 69.6058 290.149 67.8291C288.375 66.0524 287.378 63.6425 287.378 61.1299C287.378 59.8857 287.622 58.6534 288.098 57.5039C288.573 56.3545 289.271 55.3104 290.149 54.4307C291.028 53.5509 292.072 52.8531 293.22 52.377C294.368 51.9008 295.599 51.6553 296.842 51.6553ZM321.955 21.7285L318.954 22.9727L315.893 20.7646L312.575 24.0859L314.78 27.1514L313.537 30.1553L309.812 30.7617L309.813 35.458L313.537 36.0645L314.78 39.0684L312.575 42.1338L315.893 45.4541L318.954 43.2461L321.955 44.4902L322.561 48.2188L327.252 48.2197L327.857 44.4902L330.858 43.2461L333.921 45.4541L337.238 42.1328L335.032 39.0684L336.275 36.0635L340 35.458V30.7617L336.275 30.1553L335.032 27.1514L337.238 24.0859L333.921 20.7646L330.859 22.9727L327.857 21.7285L327.252 18H322.561L321.955 21.7285ZM324.906 27.8711C325.593 27.8711 326.274 28.0063 326.909 28.2695C327.544 28.5328 328.121 28.9188 328.607 29.4053C329.093 29.8918 329.478 30.4698 329.741 31.1055C330.004 31.7411 330.14 32.4224 330.14 33.1104C330.14 33.7983 330.004 34.4797 329.741 35.1152C329.478 35.7507 329.092 36.3281 328.606 36.8145C328.121 37.3008 327.544 37.687 326.909 37.9502C325.627 38.4818 324.186 38.4819 322.903 37.9502C321.621 37.4185 320.602 36.3987 320.071 35.1152C319.54 33.8316 319.54 32.3891 320.071 31.1055C320.602 29.822 321.621 28.8023 322.903 28.2705C323.538 28.0072 324.219 27.8711 324.906 27.8711Z" fill="#07478F"/>
</svg>
