<svg width="551" height="282" viewBox="0 0 551 282" fill="none" xmlns="http://www.w3.org/2000/svg">
<path d="M348.891 181.235V173.067C353.796 171.669 358.527 169.719 362.992 167.255L368.766 173.027C371.54 175.778 375.288 177.321 379.195 177.321C383.101 177.321 386.85 175.778 389.623 173.027L394.061 168.59C396.813 165.817 398.356 162.07 398.356 158.164C398.356 154.258 396.813 150.511 394.061 147.738L388.288 141.965C390.757 137.503 392.708 132.773 394.101 127.868H402.271C406.143 127.868 409.86 126.343 412.617 123.624C415.374 120.905 416.948 117.209 417 113.338V107.055C417 103.149 415.448 99.4036 412.686 96.642C409.924 93.8803 406.177 92.3288 402.271 92.3288H394.101C392.725 87.342 390.774 82.5319 388.288 77.9955L394.061 72.2229C396.813 69.45 398.356 65.7025 398.356 61.7968C398.356 57.8912 396.813 54.1437 394.061 51.3708L389.623 46.9334C386.85 44.1828 383.101 42.6394 379.195 42.6394C375.288 42.6394 371.54 44.1828 368.766 46.9334L362.992 52.706C358.527 50.2418 353.796 48.2921 348.891 46.8941V38.7261C348.891 34.8205 347.339 31.0749 344.577 28.3132C341.815 25.5515 338.068 24.0001 334.162 24.0001H327.917C325.979 23.9949 324.059 24.372 322.268 25.1097C320.476 25.8475 318.848 26.9313 317.476 28.2993C316.104 29.6672 315.016 31.2924 314.273 33.0816C313.53 34.8708 313.148 36.7889 313.148 38.7261V46.8941C308.241 48.2866 303.51 50.2366 299.047 52.706L293.273 46.9334C290.5 44.1828 286.751 42.6394 282.845 42.6394C278.938 42.6394 275.19 44.1828 272.416 46.9334L267.978 51.3708C265.227 54.1437 263.683 57.8912 263.683 61.7968C263.683 65.7025 265.227 69.45 267.978 72.2229L273.752 77.9955C271.282 82.4573 269.331 87.1874 267.939 92.0932H259.769C255.859 92.0932 252.108 93.6434 249.339 96.4039C246.571 99.1645 245.01 102.91 245 106.819V113.338C245.01 117.247 246.571 120.993 249.339 123.753C252.108 126.514 255.859 128.064 259.769 128.064H267.939C269.331 132.97 271.282 137.7 273.752 142.162L267.978 147.934C265.227 150.707 263.683 154.455 263.683 158.36C263.683 162.266 265.227 166.013 267.978 168.786L272.416 173.224C275.19 175.974 278.938 177.518 282.845 177.518C286.751 177.518 290.5 175.974 293.273 173.224L299.047 167.451C303.51 169.921 308.241 171.871 313.148 173.263V181.431C313.2 185.313 314.778 189.018 317.542 191.745C320.307 194.472 324.034 196 327.917 196H334.201C338.104 195.979 341.841 194.414 344.593 191.648C347.346 188.881 348.891 185.137 348.891 181.235ZM286.478 110C286.478 101.193 289.09 92.5828 293.985 85.2597C298.879 77.9365 305.835 72.2288 313.974 68.8583C322.113 65.4878 331.069 64.6059 339.709 66.3242C348.35 68.0425 356.286 72.2837 362.515 78.5115C368.745 84.7393 372.987 92.6741 374.706 101.312C376.424 109.951 375.542 118.904 372.171 127.042C368.8 135.179 363.091 142.133 355.766 147.027C348.441 151.92 339.829 154.532 331.02 154.532C319.206 154.532 307.877 149.84 299.524 141.489C291.171 133.137 286.478 121.811 286.478 110Z" fill="#FF7620"/>
<path d="M124.305 263.247V253.481C130.242 251.9 135.97 249.621 141.372 246.692L148.301 253.575C149.935 255.224 151.88 256.533 154.023 257.426C156.166 258.32 158.465 258.78 160.787 258.78C163.109 258.78 165.408 258.32 167.551 257.426C169.694 256.533 171.639 255.224 173.273 253.575L178.575 248.087C180.224 246.453 181.533 244.508 182.426 242.365C183.32 240.222 183.78 237.923 183.78 235.601C183.78 233.279 183.32 230.98 182.426 228.837C181.533 226.694 180.224 224.749 178.575 223.114L171.692 216.232C174.662 210.893 177.002 205.229 178.668 199.351H188.433C193.112 199.351 197.6 197.496 200.913 194.192C204.225 190.888 206.092 186.405 206.105 181.726V174.193C206.105 171.872 205.648 169.574 204.76 167.43C203.872 165.286 202.57 163.338 200.929 161.697C199.288 160.056 197.34 158.754 195.196 157.866C193.052 156.978 190.754 156.521 188.433 156.521H178.575C176.9 150.662 174.559 145.013 171.599 139.687L178.575 132.804C180.224 131.17 181.533 129.225 182.426 127.082C183.32 124.939 183.78 122.64 183.78 120.318C183.78 117.996 183.32 115.697 182.426 113.554C181.533 111.411 180.224 109.466 178.575 107.832L173.041 102.53C169.727 99.2219 165.237 97.3637 160.554 97.3637C155.872 97.3637 151.381 99.2219 148.068 102.53L141.372 109.413C136.052 106.437 130.402 104.095 124.537 102.437V92.6714C124.537 87.9927 122.682 83.5049 119.378 80.1922C116.074 76.8795 111.591 75.0123 106.912 75H99.1461C94.4593 75 89.9645 76.8618 86.6505 80.1758C83.3364 83.4899 81.4746 87.9847 81.4746 92.6714V102.53C75.6131 104.199 69.9641 106.539 64.6403 109.506L57.6647 102.53C56.0281 100.894 54.0851 99.5952 51.9467 98.7094C49.8082 97.8236 47.5163 97.3677 45.2017 97.3677C42.8871 97.3677 40.5951 97.8236 38.4567 98.7094C36.3183 99.5952 34.3753 100.894 32.7387 102.53L27.3907 107.878C24.0824 111.191 22.2242 115.682 22.2242 120.364C22.2242 125.047 24.0824 129.537 27.3907 132.851L34.4128 139.733C31.4331 145.051 29.0917 150.701 27.4372 156.568H17.6714C12.9847 156.568 8.48988 158.429 5.17585 161.743C1.86181 165.058 0 169.552 0 174.239V181.587C0.0123124 186.265 1.87955 190.748 5.19225 194.052C8.50496 197.356 12.9927 199.212 17.6714 199.212H27.4372C29.0833 205.096 31.425 210.763 34.4128 216.092L27.4837 222.975C24.1754 226.288 22.3172 230.779 22.3172 235.461C22.3172 240.143 24.1754 244.634 27.4837 247.947L32.8317 253.249C34.462 254.897 36.403 256.205 38.5423 257.098C40.6815 257.991 42.9766 258.45 45.2947 258.45C47.6128 258.45 49.9079 257.991 52.0471 257.098C54.1864 256.205 56.1274 254.897 57.7577 253.249L64.6403 246.692C69.9641 249.658 75.6131 251.999 81.4746 253.667V263.433C81.4746 268.12 83.3364 272.615 86.6505 275.929C89.9645 279.243 94.4593 281.105 99.1461 281.105H106.68C109.012 281.099 111.32 280.631 113.471 279.729C115.622 278.826 117.573 277.507 119.211 275.847C120.85 274.187 122.143 272.219 123.018 270.056C123.892 267.894 124.329 265.58 124.305 263.247ZM49.6195 177.959C49.6195 167.419 52.7451 157.115 58.6011 148.351C64.457 139.587 72.7803 132.756 82.5184 128.723C92.2565 124.689 102.972 123.634 113.31 125.69C123.648 127.746 133.144 132.822 140.597 140.275C148.05 147.729 153.126 157.224 155.182 167.562C157.239 177.9 156.183 188.616 152.15 198.354C148.116 208.092 141.285 216.415 132.521 222.271C123.757 228.127 113.453 231.253 102.913 231.253C95.9143 231.253 88.9843 229.874 82.5184 227.196C76.0526 224.518 70.1775 220.592 65.2288 215.643C55.2344 205.649 49.6195 192.094 49.6195 177.959Z" fill="#FF7620"/>
<path d="M215.828 83.2895V78.9647C218.418 78.2325 220.915 77.2026 223.269 75.8954L226.338 78.9647C227.802 80.4215 229.783 81.2393 231.848 81.2393C233.914 81.2393 235.895 80.4215 237.359 78.9647L239.731 76.593C241.179 75.1152 241.991 73.1283 241.991 71.059C241.991 68.9897 241.179 67.0029 239.731 65.5251L236.662 62.5023C237.997 60.1461 239.028 57.6304 239.731 55.0152H244.056C246.128 55.0152 248.115 54.1921 249.58 52.7269C251.045 51.2618 251.868 49.2746 251.868 47.2026V43.9008C251.868 41.8288 251.045 39.8416 249.58 38.3764C248.115 36.9113 246.128 36.0882 244.056 36.0882H239.731C239.02 33.4906 237.989 30.9913 236.662 28.6476L239.731 25.5783C241.179 24.1005 241.991 22.1137 241.991 20.0444C241.991 17.9751 241.179 15.9882 239.731 14.5104L237.359 12.1852C236.637 11.4583 235.779 10.8814 234.833 10.4877C233.887 10.094 232.873 9.89131 231.848 9.89131C230.824 9.89131 229.81 10.094 228.864 10.4877C227.918 10.8814 227.06 11.4583 226.338 12.1852L223.269 15.2545C220.917 13.9324 218.42 12.8868 215.828 12.1387V7.81388C215.828 5.74184 215.005 3.75467 213.54 2.28951C212.075 0.824361 210.087 0.00124582 208.015 0.00124582H204.667C203.629 -0.0172866 202.598 0.171107 201.634 0.555423C200.67 0.939739 199.793 1.51227 199.052 2.2396C198.312 2.96692 197.724 3.83446 197.323 4.79154C196.921 5.74862 196.715 6.77607 196.715 7.81388V12.1387C194.123 12.8868 191.626 13.9324 189.274 15.2545L186.205 12.1852C185.483 11.4583 184.625 10.8814 183.679 10.4877C182.733 10.094 181.719 9.89131 180.694 9.89131C179.67 9.89131 178.656 10.094 177.71 10.4877C176.764 10.8814 175.906 11.4583 175.184 12.1852L172.812 14.5104C171.363 15.9882 170.552 17.9751 170.552 20.0444C170.552 22.1137 171.363 24.1005 172.812 25.5783L175.881 28.6476C174.574 31.0008 173.544 33.4977 172.812 36.0882H168.813C167.787 36.0882 166.771 36.2903 165.823 36.6829C164.875 37.0755 164.014 37.651 163.288 38.3764C162.563 39.1019 161.987 39.9632 161.595 40.911C161.202 41.8589 161 42.8748 161 43.9008V47.2026C161 48.2286 161.202 49.2445 161.595 50.1923C161.987 51.1402 162.563 52.0015 163.288 52.7269C164.014 53.4524 164.875 54.0279 165.823 54.4205C166.771 54.8131 167.787 55.0152 168.813 55.0152H173.137C173.861 57.6235 174.891 60.1368 176.207 62.5023L173.137 65.5251C171.689 67.0029 170.878 68.9897 170.878 71.059C170.878 73.1283 171.689 75.1152 173.137 76.593L175.509 78.9647C176.973 80.4215 178.955 81.2393 181.02 81.2393C183.085 81.2393 185.067 80.4215 186.531 78.9647L189.6 75.8954C191.953 77.2026 194.45 78.2325 197.04 78.9647V83.2895C197.04 85.3615 197.864 87.3487 199.329 88.8139C200.794 90.279 202.781 91.1021 204.853 91.1021H208.201C210.241 91.0536 212.181 90.2091 213.606 88.7491C215.031 87.2892 215.829 85.3297 215.828 83.2895ZM182.764 45.3889C182.764 40.7258 184.147 36.1673 186.737 32.29C189.328 28.4127 193.01 25.3908 197.318 23.6062C201.627 21.8217 206.367 21.3548 210.941 22.2646C215.514 23.1743 219.716 25.4198 223.013 28.7172C226.31 32.0145 228.556 36.2156 229.466 40.7892C230.375 45.3628 229.908 50.1034 228.124 54.4116C226.339 58.7198 223.317 62.4021 219.44 64.9928C215.563 67.5836 211.004 68.9663 206.341 68.9663C200.088 68.9663 194.091 66.4823 189.669 62.0607C185.248 57.6391 182.764 51.6421 182.764 45.3889Z" fill="#FFA03C"/>
<path d="M501.15 229.702V223.796C504.703 222.802 508.123 221.381 511.334 219.564L515.52 223.749C517.523 225.737 520.231 226.853 523.053 226.853C525.876 226.853 528.584 225.737 530.587 223.749L533.796 220.54C535.784 218.537 536.899 215.829 536.899 213.007C536.899 210.185 535.784 207.477 533.796 205.473L529.61 201.288C531.412 198.091 532.817 194.687 533.796 191.15H539.702C542.526 191.15 545.235 190.028 547.232 188.031C549.229 186.034 550.351 183.325 550.351 180.501V175.85C550.351 173.026 549.229 170.317 547.232 168.32C545.235 166.323 542.526 165.201 539.702 165.201H533.796C532.817 161.664 531.412 158.26 529.61 155.063L533.796 150.878C535.784 148.874 536.899 146.166 536.899 143.344C536.899 140.522 535.784 137.814 533.796 135.811L530.587 132.602C528.584 130.614 525.876 129.498 523.053 129.498C520.231 129.498 517.523 130.614 515.52 132.602L511.334 136.787C508.114 134.99 504.696 133.57 501.15 132.555V126.696C501.156 125.293 500.885 123.904 500.353 122.606C499.82 121.309 499.037 120.129 498.047 119.136C497.058 118.142 495.882 117.353 494.587 116.815C493.292 116.277 491.903 116 490.501 116H485.85C484.448 116 483.059 116.277 481.764 116.815C480.469 117.353 479.293 118.142 478.304 119.136C477.314 120.129 476.531 121.309 475.998 122.606C475.466 123.904 475.195 125.293 475.201 126.696V132.555C471.658 133.578 468.241 134.998 465.017 136.787L460.878 132.602C458.874 130.614 456.167 129.498 453.344 129.498C450.522 129.498 447.814 130.614 445.811 132.602L442.602 135.811C441.606 136.796 440.816 137.97 440.277 139.263C439.738 140.556 439.46 141.943 439.46 143.344C439.46 144.745 439.738 146.132 440.277 147.425C440.816 148.719 441.606 149.892 442.602 150.878L446.741 155.063C444.959 158.269 443.554 161.671 442.555 165.201H436.649C433.829 165.213 431.127 166.339 429.133 168.334C427.138 170.328 426.012 173.03 426 175.85V180.501C426.012 183.321 427.138 186.023 429.133 188.017C431.127 190.012 433.829 191.138 436.649 191.15H442.555C443.554 194.68 444.959 198.082 446.741 201.288L442.602 205.473C441.606 206.459 440.816 207.632 440.277 208.926C439.738 210.219 439.46 211.606 439.46 213.007C439.46 214.408 439.738 215.795 440.277 217.088C440.816 218.381 441.606 219.555 442.602 220.54L445.811 223.749C447.814 225.737 450.522 226.853 453.344 226.853C456.167 226.853 458.874 225.737 460.878 223.749L465.017 219.564C468.232 221.373 471.65 222.794 475.201 223.796V229.702C475.201 232.526 476.323 235.235 478.32 237.232C480.317 239.229 483.026 240.351 485.85 240.351H490.501C493.325 240.351 496.034 239.229 498.031 237.232C500.028 235.235 501.15 232.526 501.15 229.702ZM456.088 178.222C456.088 171.857 457.975 165.635 461.511 160.343C465.047 155.051 470.073 150.927 475.954 148.491C481.834 146.055 488.304 145.418 494.547 146.66C500.789 147.901 506.523 150.966 511.024 155.467C515.524 159.967 518.589 165.701 519.831 171.944C521.073 178.186 520.435 184.657 518 190.537C515.564 196.417 511.439 201.443 506.147 204.979C500.855 208.515 494.633 210.403 488.269 210.403C484.041 210.409 479.853 209.581 475.946 207.966C472.039 206.35 468.489 203.98 465.5 200.991C462.51 198.001 460.14 194.451 458.525 190.544C456.91 186.637 456.082 182.45 456.088 178.222Z" fill="#FFA03C"/>
</svg>
