<svg width="1676" height="794" viewBox="0 0 1676 794" fill="none" xmlns="http://www.w3.org/2000/svg">
<g opacity="0.5">
<path d="M1444.67 541.527V535.733C1448.15 534.742 1451.51 533.359 1454.67 531.611L1458.77 535.705C1460.73 537.656 1463.39 538.751 1466.16 538.751C1468.93 538.751 1471.59 537.656 1473.56 535.705L1476.71 532.558C1478.66 530.591 1479.75 527.933 1479.75 525.163C1479.75 522.392 1478.66 519.734 1476.71 517.768L1472.61 513.673C1474.36 510.508 1475.75 507.153 1476.73 503.674H1482.53C1485.27 503.674 1487.91 502.592 1489.86 500.664C1491.82 498.735 1492.94 496.114 1492.97 493.368V488.911C1492.97 486.141 1491.87 483.484 1489.91 481.525C1487.95 479.566 1485.3 478.466 1482.53 478.466H1476.73C1475.76 474.929 1474.37 471.517 1472.61 468.299L1476.71 464.205C1478.66 462.238 1479.75 459.58 1479.75 456.809C1479.75 454.039 1478.66 451.381 1476.71 449.414L1473.56 446.267C1471.59 444.316 1468.93 443.221 1466.16 443.221C1463.39 443.221 1460.73 444.316 1458.77 446.267L1454.67 450.361C1451.51 448.613 1448.15 447.23 1444.67 446.239V440.445C1444.67 437.675 1443.57 435.018 1441.61 433.059C1439.66 431.101 1437 430 1434.23 430H1429.8C1428.43 429.996 1427.06 430.264 1425.79 430.787C1424.52 431.31 1423.37 432.079 1422.4 433.05C1421.42 434.02 1420.65 435.173 1420.12 436.442C1419.6 437.711 1419.33 439.071 1419.33 440.445V446.239C1415.85 447.227 1412.49 448.61 1409.33 450.361L1405.23 446.267C1403.27 444.316 1400.61 443.221 1397.84 443.221C1395.07 443.221 1392.41 444.316 1390.44 446.267L1387.29 449.414C1385.34 451.381 1384.25 454.039 1384.25 456.809C1384.25 459.58 1385.34 462.238 1387.29 464.205L1391.39 468.299C1389.64 471.464 1388.25 474.819 1387.27 478.299H1381.47C1378.7 478.299 1376.04 479.398 1374.08 481.356C1372.11 483.314 1371.01 485.971 1371 488.744V493.368C1371.01 496.14 1372.11 498.797 1374.08 500.755C1376.04 502.713 1378.7 503.813 1381.47 503.813H1387.27C1388.25 507.292 1389.64 510.648 1391.39 513.812L1387.29 517.907C1385.34 519.874 1384.25 522.532 1384.25 525.302C1384.25 528.072 1385.34 530.73 1387.29 532.697L1390.44 535.845C1392.41 537.796 1395.07 538.89 1397.84 538.89C1400.61 538.89 1403.27 537.796 1405.23 535.845L1409.33 531.75C1412.49 533.502 1415.85 534.885 1419.33 535.873V541.666C1419.36 544.42 1420.48 547.048 1422.44 548.982C1424.4 550.916 1427.05 552 1429.8 552H1434.26C1437.02 551.985 1439.67 550.875 1441.63 548.913C1443.58 546.95 1444.67 544.295 1444.67 541.527ZM1400.41 491C1400.41 484.753 1402.27 478.646 1405.74 473.452C1409.21 468.257 1414.14 464.209 1419.91 461.818C1425.68 459.427 1432.04 458.802 1438.16 460.021C1444.29 461.239 1449.92 464.248 1454.33 468.665C1458.75 473.083 1461.76 478.711 1462.98 484.838C1464.2 490.965 1463.57 497.316 1461.18 503.088C1458.79 508.859 1454.74 513.792 1449.55 517.263C1444.35 520.734 1438.25 522.586 1432 522.586C1423.62 522.586 1415.59 519.258 1409.67 513.335C1403.74 507.411 1400.41 499.377 1400.41 491Z" fill="#FF7620"/>
<path d="M318.808 728.625V726.194C320.282 725.789 321.702 725.207 323.036 724.461L324.749 726.173C325.156 726.58 325.638 726.903 326.17 727.124C326.701 727.344 327.271 727.457 327.847 727.457C328.422 727.457 328.992 727.344 329.523 727.124C330.055 726.903 330.538 726.58 330.944 726.173L332.255 724.863C332.662 724.456 332.985 723.974 333.206 723.443C333.426 722.911 333.54 722.342 333.54 721.766C333.54 721.191 333.426 720.622 333.206 720.09C332.985 719.559 332.662 719.076 332.255 718.67L330.416 716.958C331.165 715.626 331.747 714.206 332.149 712.731H334.644C335.802 712.725 336.909 712.262 337.726 711.442C338.542 710.622 339 709.513 339 708.356V706.538C338.994 705.385 338.534 704.281 337.718 703.466C336.902 702.65 335.798 702.19 334.644 702.184H332.213C331.774 700.753 331.17 699.377 330.416 698.084L332.128 696.372C332.536 695.966 332.859 695.483 333.079 694.952C333.299 694.421 333.413 693.851 333.413 693.276C333.413 692.701 333.299 692.131 333.079 691.6C332.859 691.068 332.536 690.586 332.128 690.179L330.817 688.869C330.411 688.462 329.928 688.139 329.397 687.919C328.865 687.698 328.295 687.585 327.72 687.585C327.144 687.585 326.575 687.698 326.043 687.919C325.512 688.139 325.029 688.462 324.622 688.869L322.91 690.581C321.575 689.836 320.155 689.254 318.681 688.848V686.375C318.681 685.236 318.238 684.142 317.444 683.325C316.651 682.508 315.57 682.033 314.431 682H312.57C311.41 682 310.296 682.461 309.475 683.281C308.655 684.102 308.194 685.215 308.194 686.375V688.784C306.719 689.19 305.3 689.772 303.965 690.518L302.252 688.806C301.846 688.399 301.363 688.076 300.831 687.855C300.3 687.635 299.73 687.521 299.155 687.521C298.579 687.521 298.009 687.635 297.478 687.855C296.946 688.076 296.464 688.399 296.057 688.806L294.746 690.116C294.339 690.522 294.016 691.005 293.795 691.536C293.575 692.068 293.461 692.637 293.461 693.212C293.461 693.788 293.575 694.357 293.795 694.888C294.016 695.42 294.339 695.902 294.746 696.309L296.586 698.084C295.844 699.42 295.262 700.839 294.852 702.311H292.357C291.225 702.316 290.139 702.759 289.327 703.547C288.515 704.335 288.04 705.407 288.001 706.538V708.398C287.987 708.98 288.089 709.558 288.302 710.1C288.514 710.642 288.832 711.136 289.238 711.553C289.643 711.97 290.128 712.302 290.664 712.53C291.199 712.758 291.775 712.876 292.357 712.879H294.788C295.19 714.354 295.773 715.774 296.522 717.106L294.81 718.818C294.402 719.224 294.079 719.707 293.859 720.238C293.638 720.77 293.525 721.339 293.525 721.914C293.525 722.49 293.638 723.059 293.859 723.59C294.079 724.122 294.402 724.604 294.81 725.011L296.12 726.321C296.527 726.728 297.01 727.051 297.541 727.272C298.073 727.492 298.643 727.605 299.218 727.605C299.793 727.605 300.363 727.492 300.895 727.272C301.426 727.051 301.909 726.728 302.316 726.321L304.028 724.609C305.363 725.355 306.783 725.937 308.257 726.342V728.773C308.295 729.897 308.764 730.962 309.567 731.749C310.37 732.537 311.446 732.984 312.57 733H314.431C315.006 733 315.575 732.887 316.106 732.667C316.637 732.447 317.119 732.125 317.526 731.719C317.932 731.312 318.255 730.83 318.475 730.299C318.695 729.768 318.808 729.199 318.808 728.625ZM300.286 707.489C300.286 703.986 301.678 700.626 304.156 698.149C306.635 695.671 309.996 694.28 313.501 694.28C317.005 694.28 320.367 695.671 322.845 698.149C325.323 700.626 326.715 703.986 326.715 707.489C326.715 710.993 325.323 714.353 322.845 716.83C320.367 719.307 317.005 720.699 313.501 720.699C309.996 720.699 306.635 719.307 304.156 716.83C301.678 714.353 300.286 710.993 300.286 707.489Z" fill="#FF7620"/>
<path d="M1285.83 83.2895V78.9647C1288.42 78.2325 1290.92 77.2026 1293.27 75.8954L1296.34 78.9647C1297.8 80.4215 1299.78 81.2393 1301.85 81.2393C1303.91 81.2393 1305.9 80.4215 1307.36 78.9647L1309.73 76.593C1311.18 75.1152 1311.99 73.1283 1311.99 71.059C1311.99 68.9897 1311.18 67.0029 1309.73 65.5251L1306.66 62.5023C1308 60.1461 1309.03 57.6304 1309.73 55.0152H1314.06C1316.13 55.0152 1318.11 54.1921 1319.58 52.7269C1321.05 51.2618 1321.87 49.2746 1321.87 47.2026V43.9008C1321.87 41.8288 1321.05 39.8416 1319.58 38.3764C1318.11 36.9113 1316.13 36.0882 1314.06 36.0882H1309.73C1309.02 33.4906 1307.99 30.9913 1306.66 28.6476L1309.73 25.5783C1311.18 24.1005 1311.99 22.1137 1311.99 20.0444C1311.99 17.9751 1311.18 15.9882 1309.73 14.5104L1307.36 12.1852C1306.64 11.4583 1305.78 10.8814 1304.83 10.4877C1303.89 10.094 1302.87 9.89131 1301.85 9.89131C1300.82 9.89131 1299.81 10.094 1298.86 10.4877C1297.92 10.8814 1297.06 11.4583 1296.34 12.1852L1293.27 15.2545C1290.92 13.9324 1288.42 12.8868 1285.83 12.1387V7.81388C1285.83 5.74184 1285 3.75467 1283.54 2.28951C1282.07 0.824361 1280.09 0.00124582 1278.02 0.00124582H1274.67C1273.63 -0.0172866 1272.6 0.171107 1271.63 0.555423C1270.67 0.939739 1269.79 1.51227 1269.05 2.2396C1268.31 2.96692 1267.72 3.83446 1267.32 4.79154C1266.92 5.74862 1266.71 6.77607 1266.71 7.81388V12.1387C1264.12 12.8868 1261.63 13.9324 1259.27 15.2545L1256.21 12.1852C1255.48 11.4583 1254.62 10.8814 1253.68 10.4877C1252.73 10.094 1251.72 9.89131 1250.69 9.89131C1249.67 9.89131 1248.66 10.094 1247.71 10.4877C1246.76 10.8814 1245.91 11.4583 1245.18 12.1852L1242.81 14.5104C1241.36 15.9882 1240.55 17.9751 1240.55 20.0444C1240.55 22.1137 1241.36 24.1005 1242.81 25.5783L1245.88 28.6476C1244.57 31.0008 1243.54 33.4977 1242.81 36.0882H1238.81C1237.79 36.0882 1236.77 36.2903 1235.82 36.6829C1234.88 37.0755 1234.01 37.651 1233.29 38.3764C1232.56 39.1019 1231.99 39.9632 1231.59 40.911C1231.2 41.8589 1231 42.8748 1231 43.9008V47.2026C1231 48.2286 1231.2 49.2445 1231.59 50.1923C1231.99 51.1402 1232.56 52.0015 1233.29 52.7269C1234.01 53.4524 1234.88 54.0279 1235.82 54.4205C1236.77 54.8131 1237.79 55.0152 1238.81 55.0152H1243.14C1243.86 57.6235 1244.89 60.1368 1246.21 62.5023L1243.14 65.5251C1241.69 67.0029 1240.88 68.9897 1240.88 71.059C1240.88 73.1283 1241.69 75.1152 1243.14 76.593L1245.51 78.9647C1246.97 80.4215 1248.95 81.2393 1251.02 81.2393C1253.09 81.2393 1255.07 80.4215 1256.53 78.9647L1259.6 75.8954C1261.95 77.2026 1264.45 78.2325 1267.04 78.9647V83.2895C1267.04 85.3615 1267.86 87.3487 1269.33 88.8139C1270.79 90.279 1272.78 91.1021 1274.85 91.1021H1278.2C1280.24 91.0536 1282.18 90.2091 1283.61 88.7491C1285.03 87.2892 1285.83 85.3297 1285.83 83.2895ZM1252.76 45.3889C1252.76 40.7258 1254.15 36.1673 1256.74 32.29C1259.33 28.4127 1263.01 25.3908 1267.32 23.6062C1271.63 21.8217 1276.37 21.3548 1280.94 22.2646C1285.51 23.1743 1289.72 25.4198 1293.01 28.7172C1296.31 32.0145 1298.56 36.2156 1299.47 40.7892C1300.38 45.3628 1299.91 50.1034 1298.12 54.4116C1296.34 58.7198 1293.32 62.4021 1289.44 64.9928C1285.56 67.5836 1281 68.9663 1276.34 68.9663C1270.09 68.9663 1264.09 66.4823 1259.67 62.0607C1255.25 57.6391 1252.76 51.6421 1252.76 45.3889Z" fill="#FF7620"/>
<path d="M79.0575 596.275H51.9923L38.3667 619.853L51.9923 643.43H79.0575L93.0086 619.853L79.0575 596.275ZM66.176 633.757C63.4167 633.757 60.7194 632.939 58.4251 631.406C56.1309 629.873 54.3427 627.694 53.2868 625.145C52.2309 622.596 51.9546 619.791 52.4929 617.085C53.0312 614.378 54.3599 611.892 56.311 609.941C58.2621 607.99 60.748 606.662 63.4542 606.123C66.1605 605.585 68.9656 605.861 71.5148 606.917C74.0641 607.973 76.2429 609.761 77.7759 612.055C79.3089 614.35 80.1271 617.047 80.1271 619.806C80.1274 623.474 78.6831 626.995 76.1069 629.606C73.5306 632.217 70.0297 633.709 66.362 633.757H66.176Z" fill="#FFA114"/>
<path d="M29.1579 576H9.67279L0 592.881L9.71929 609.715H29.2044L38.9702 592.881L29.1579 576ZM19.8571 602.786C17.8869 602.786 15.9609 602.201 14.3234 601.106C12.6858 600.01 11.4103 598.453 10.6585 596.632C9.90664 594.811 9.71229 592.807 10.1001 590.876C10.4878 588.944 11.4403 587.171 12.8367 585.781C14.2332 584.391 16.0108 583.447 17.9443 583.068C19.8778 582.689 21.8802 582.893 23.6978 583.654C25.5155 584.414 27.0665 585.697 28.1544 587.339C29.2423 588.982 29.8181 590.911 29.8089 592.881C29.809 595.5 28.7717 598.012 26.9242 599.869C25.0766 601.725 22.5691 602.774 19.9501 602.786H19.8571Z" fill="#FFA114"/>
<path d="M36.4588 647.847H16.9737L7.25439 664.728L16.9737 681.608H36.4588L46.2246 664.728L36.4588 647.847ZM27.158 674.679C25.1938 674.661 23.2789 674.062 21.6547 672.957C20.0304 671.853 18.7693 670.292 18.0303 668.472C17.2913 666.652 17.1075 664.654 17.5019 662.73C17.8963 660.805 18.8514 659.041 20.2468 657.658C21.6423 656.276 23.4156 655.337 25.3435 654.961C27.2714 654.584 29.2675 654.787 31.0806 655.543C32.8936 656.298 34.4424 657.574 35.5319 659.208C36.6214 660.843 37.2027 662.763 37.2028 664.728C37.2029 667.359 36.1608 669.883 34.3045 671.748C32.4482 673.613 29.9288 674.667 27.2975 674.679H27.158Z" fill="#FFA114"/>
<path d="M824.297 760H804.766L795 776.881L804.766 793.762H824.297L834.017 776.881L824.297 760ZM814.997 786.833C813.026 786.842 811.098 786.266 809.455 785.178C807.812 784.09 806.53 782.539 805.769 780.722C805.009 778.904 804.805 776.902 805.184 774.968C805.563 773.034 806.507 771.257 807.897 769.86C809.287 768.464 811.06 767.512 812.991 767.124C814.923 766.736 816.927 766.93 818.748 767.682C820.569 768.434 822.126 769.71 823.221 771.347C824.317 772.985 824.902 774.911 824.902 776.881C824.902 779.512 823.86 782.036 822.004 783.901C820.147 785.766 817.628 786.82 814.997 786.833Z" fill="#FFA114"/>
<path d="M1661.88 200H1634.63L1621 223.577L1634.63 247.155H1661.88L1675.5 223.577L1661.88 200ZM1649 237.482C1646.24 237.482 1643.54 236.664 1641.24 235.131C1638.95 233.598 1637.16 231.419 1636.11 228.87C1635.05 226.321 1634.77 223.515 1635.31 220.809C1635.85 218.103 1637.18 215.617 1639.13 213.666C1641.08 211.715 1643.57 210.386 1646.27 209.848C1648.98 209.31 1651.78 209.586 1654.33 210.642C1656.88 211.698 1659.06 213.486 1660.6 215.78C1662.13 218.074 1662.95 220.772 1662.95 223.531C1662.95 227.231 1661.48 230.78 1658.86 233.396C1656.24 236.012 1652.7 237.482 1649 237.482Z" fill="#FFA114"/>
<path d="M671.204 171H651.719L642 187.881L651.719 204.948H671.204L680.97 188.067L671.204 171ZM661.904 197.833C659.935 197.833 658.011 197.249 656.375 196.156C654.738 195.062 653.463 193.508 652.709 191.689C651.956 189.871 651.759 187.87 652.143 185.939C652.527 184.009 653.475 182.236 654.867 180.844C656.258 179.452 658.032 178.504 659.962 178.12C661.893 177.736 663.894 177.933 665.712 178.687C667.53 179.44 669.085 180.715 670.178 182.352C671.272 183.989 671.855 185.913 671.855 187.881C671.856 190.504 670.82 193.022 668.974 194.885C667.127 196.749 664.62 197.808 661.997 197.833H661.904Z" fill="#FFA114"/>
<path d="M165.5 106C179.031 106 190 95.031 190 81.5C190 67.969 179.031 57 165.5 57C151.969 57 141 67.969 141 81.5C141 95.031 151.969 106 165.5 106Z" fill="#FFA114"/>
<path d="M181.976 77.3831H180.097C179.783 76.2415 179.329 75.1434 178.744 74.1139L180.078 72.7424C180.708 72.0967 181.061 71.2302 181.061 70.3281C181.061 69.4259 180.708 68.5595 180.078 67.9138L179.139 66.9368C178.498 66.2977 177.629 65.9389 176.724 65.9389C175.819 65.9389 174.951 66.2977 174.31 66.9368L172.976 68.2708C171.953 67.6861 170.861 67.2316 169.726 66.918V65.0392C169.721 64.1355 169.358 63.2706 168.717 62.6334C168.077 61.9962 167.21 61.6385 166.306 61.6385H164.859C164.411 61.636 163.967 61.7221 163.552 61.8919C163.137 62.0617 162.76 62.3118 162.443 62.6279C162.125 62.9439 161.873 63.3196 161.701 63.7334C161.528 64.1472 161.44 64.591 161.44 65.0392V66.918C160.304 67.2316 159.212 67.6861 158.19 68.2708L156.856 66.9368C156.215 66.2977 155.346 65.9389 154.441 65.9389C153.536 65.9389 152.668 66.2977 152.027 66.9368L150.994 67.9514C150.361 68.5858 150.002 69.4432 149.995 70.3392C149.988 71.2352 150.333 72.0981 150.956 72.7424L152.29 74.0764C151.716 75.1218 151.268 76.2318 150.956 77.3831H149.077C148.174 77.3831 147.307 77.7408 146.666 78.378C146.025 79.0152 145.663 79.8802 145.658 80.7838V82.2305C145.658 82.6795 145.746 83.1242 145.918 83.5391C146.09 83.9539 146.342 84.3309 146.659 84.6484C146.977 84.966 147.354 85.2178 147.769 85.3897C148.183 85.5615 148.628 85.65 149.077 85.65H150.956C151.272 86.7819 151.72 87.8728 152.29 88.9004L150.956 90.2343C150.317 90.8753 149.958 91.7435 149.958 92.6486C149.958 93.5537 150.317 94.4219 150.956 95.0629L151.989 96.0963C152.63 96.7353 153.499 97.0942 154.404 97.0942C155.309 97.0942 156.177 96.7353 156.818 96.0963L158.152 94.7623C159.182 95.3312 160.272 95.7849 161.402 96.1151V97.9939C161.402 98.9008 161.763 99.7706 162.404 100.412C163.045 101.053 163.915 101.413 164.822 101.413H166.269C167.174 101.408 168.041 101.047 168.681 100.406C169.321 99.7662 169.683 98.8993 169.688 97.9939V96.1151C170.818 95.7849 171.908 95.3312 172.938 94.7623L174.272 96.0963C174.913 96.7353 175.782 97.0942 176.687 97.0942C177.592 97.0942 178.46 96.7353 179.101 96.0963L180.134 95.0629C180.764 94.4172 181.117 93.5508 181.117 92.6486C181.117 91.7465 180.764 90.88 180.134 90.2343L178.782 88.9004C179.366 87.8775 179.821 86.7856 180.134 85.65H182.013C182.461 85.65 182.905 85.5614 183.319 85.3893C183.733 85.2173 184.108 84.9651 184.424 84.6473C184.74 84.3295 184.991 83.9524 185.16 83.5377C185.33 83.1229 185.416 82.6787 185.414 82.2305V80.7838C185.414 80.334 185.325 79.8887 185.151 79.4737C184.978 79.0586 184.724 78.682 184.405 78.3658C184.085 78.0495 183.705 77.7998 183.288 77.6311C182.872 77.4624 182.425 77.3781 181.976 77.3831ZM165.479 91.8125C163.444 91.8088 161.455 91.2018 159.764 90.0682C158.074 88.9346 156.757 87.3253 155.981 85.4436C155.204 83.562 155.003 81.4924 155.402 79.4964C155.802 77.5004 156.784 75.6676 158.224 74.2295C159.665 72.7915 161.5 71.8128 163.496 71.417C165.493 71.0213 167.562 71.2263 169.443 72.0061C171.323 72.7859 172.93 74.1056 174.06 75.7983C175.191 77.4911 175.794 79.481 175.794 81.5165C175.794 82.8702 175.527 84.2106 175.009 85.461C174.49 86.7114 173.73 87.8472 172.772 88.8036C171.814 89.7599 170.677 90.5179 169.425 91.0342C168.174 91.5505 166.833 91.815 165.479 91.8125Z" fill="white"/>
</g>
</svg>
