<svg width="750" height="500" viewBox="0 0 750 500" fill="none" xmlns="http://www.w3.org/2000/svg">
<g clip-path="url(#clip0_820_512)">
<path d="M750 0H0V500H750V0Z" fill="#FFD9C1"/>
<path d="M414.548 0H0V414.548L414.548 0Z" fill="#C84D00"/>
<path d="M488.214 500H750V238.214L488.214 500Z" fill="#C84D00"/>
<path d="M261.786 0H0V261.786L261.786 0Z" fill="#FF7620"/>
<path d="M119.577 0H0V119.577L119.577 0Z" fill="#FFA56C"/>
<mask id="mask0_820_512" style="mask-type:luminance" maskUnits="userSpaceOnUse" x="0" y="0" width="750" height="500">
<path d="M750 0H0V500H750V0Z" fill="white"/>
</mask>
<g mask="url(#mask0_820_512)">
<path d="M3.32455 493.22C4.23255 492.312 5.70455 492.312 6.61255 493.22C7.52055 494.128 7.52055 495.6 6.61255 496.508C5.70455 497.416 4.23255 497.416 3.32455 496.508C2.41655 495.6 2.41655 494.128 3.32455 493.22Z" fill="white"/>
<path d="M52.0951 495.96C53.0031 495.052 54.4751 495.052 55.3831 495.96C56.2911 496.868 56.2911 498.34 55.3831 499.248C54.4751 500.156 53.0031 500.156 52.0951 499.248C51.1871 498.34 51.1871 496.868 52.0951 495.96Z" fill="white"/>
<path d="M26.3392 470.203C27.2472 469.295 28.7192 469.295 29.6272 470.203C30.5352 471.111 30.5352 472.583 29.6272 473.491C28.7192 474.399 27.2472 474.399 26.3392 473.491C25.4312 472.583 25.4312 471.111 26.3392 470.203Z" fill="white"/>
<path d="M0.583832 444.449C1.49183 443.541 2.96383 443.541 3.87183 444.449C4.77983 445.357 4.77983 446.829 3.87183 447.737C2.96383 448.645 1.49183 448.645 0.583832 447.737C-0.324168 446.829 -0.324168 445.357 0.583832 444.449Z" fill="white"/>
<path d="M100.865 498.7C101.773 497.792 103.245 497.792 104.153 498.7C105.061 499.608 105.061 501.08 104.153 501.988C103.245 502.896 101.773 502.896 100.865 501.988C99.9571 501.079 99.9571 499.608 100.865 498.7Z" fill="white"/>
<path d="M75.1102 472.944C76.0182 472.036 77.4902 472.036 78.3982 472.944C79.3062 473.852 79.3062 475.324 78.3982 476.232C77.4902 477.14 76.0182 477.14 75.1102 476.232C74.2022 475.324 74.2022 473.852 75.1102 472.944Z" fill="white"/>
<path d="M50.9993 451.158C52.2834 451.158 53.3243 450.117 53.3243 448.833C53.3243 447.549 52.2834 446.508 50.9993 446.508C49.7153 446.508 48.6743 447.549 48.6743 448.833C48.6743 450.117 49.7153 451.158 50.9993 451.158Z" fill="white"/>
<path d="M23.599 421.434C24.507 420.526 25.979 420.526 26.887 421.434C27.795 422.342 27.795 423.814 26.887 424.722C25.979 425.63 24.507 425.63 23.599 424.722C22.691 423.814 22.691 422.341 23.599 421.434Z" fill="white"/>
<path d="M-2.15591 395.678C-1.24791 394.77 0.224086 394.77 1.13209 395.678C2.04009 396.586 2.04009 398.058 1.13209 398.966C0.224086 399.874 -1.24791 399.874 -2.15591 398.966C-3.06391 398.058 -3.06391 396.586 -2.15591 395.678Z" fill="white"/>
<path d="M125.525 479.653C126.809 479.653 127.85 478.612 127.85 477.328C127.85 476.044 126.809 475.003 125.525 475.003C124.241 475.003 123.2 476.044 123.2 477.328C123.2 478.612 124.241 479.653 125.525 479.653Z" fill="white"/>
<path d="M98.1253 449.929C99.0333 449.021 100.505 449.021 101.413 449.929C102.321 450.837 102.321 452.309 101.413 453.217C100.505 454.125 99.0333 454.125 98.1253 453.217C97.2173 452.309 97.2173 450.837 98.1253 449.929Z" fill="white"/>
<path d="M72.3705 424.173C73.2785 423.265 74.7504 423.265 75.6584 424.173C76.5664 425.081 76.5664 426.553 75.6584 427.461C74.7504 428.369 73.2785 428.369 72.3705 427.461C71.4625 426.553 71.4625 425.081 72.3705 424.173Z" fill="white"/>
<path d="M46.6151 398.418C47.5231 397.51 48.9951 397.51 49.9031 398.418C50.8111 399.326 50.8111 400.798 49.9031 401.706C48.9951 402.614 47.5231 402.614 46.6151 401.706C45.7071 400.798 45.7071 399.326 46.6151 398.418Z" fill="white"/>
<path d="M20.8592 372.663C21.7672 371.755 23.2392 371.755 24.1472 372.663C25.0552 373.571 25.0552 375.043 24.1472 375.951C23.2392 376.859 21.7672 376.859 20.8592 375.951C19.9512 375.043 19.9512 373.571 20.8592 372.663Z" fill="white"/>
<path d="M146.896 452.669C147.804 451.761 149.276 451.761 150.184 452.669C151.092 453.577 151.092 455.049 150.184 455.957C149.276 456.865 147.804 456.865 146.896 455.957C145.988 455.049 145.988 453.577 146.896 452.669Z" fill="white"/>
<path d="M121.141 426.913C122.049 426.005 123.521 426.005 124.429 426.913C125.337 427.821 125.337 429.293 124.429 430.201C123.521 431.109 122.049 431.109 121.141 430.201C120.233 429.293 120.233 427.821 121.141 426.913Z" fill="white"/>
<path d="M95.3853 401.158C96.2933 400.25 97.7653 400.25 98.6733 401.158C99.5813 402.066 99.5813 403.538 98.6733 404.446C97.7653 405.354 96.2933 405.354 95.3853 404.446C94.4783 403.538 94.4783 402.066 95.3853 401.158Z" fill="white"/>
<path d="M69.6302 375.403C70.5382 374.495 72.0102 374.495 72.9182 375.403C73.8262 376.311 73.8262 377.783 72.9182 378.691C72.0102 379.599 70.5382 379.599 69.6302 378.691C68.7222 377.783 68.7222 376.311 69.6302 375.403Z" fill="white"/>
<path d="M43.8753 349.647C44.7833 348.739 46.2553 348.739 47.1633 349.647C48.0713 350.555 48.0713 352.027 47.1633 352.935C46.2553 353.843 44.7833 353.843 43.8753 352.935C42.9673 352.027 42.9673 350.555 43.8753 349.647Z" fill="white"/>
</g>
<mask id="mask1_820_512" style="mask-type:luminance" maskUnits="userSpaceOnUse" x="0" y="0" width="750" height="500">
<path d="M750 0H0V500H750V0Z" fill="white"/>
</mask>
<g mask="url(#mask1_820_512)">
<path d="M499.648 37.876C499.648 5.92204 525.552 -19.981 557.505 -19.981C589.459 -19.981 615.362 5.92305 615.362 37.876C615.362 69.829 589.458 95.733 557.505 95.733" stroke="white" stroke-width="1.3" stroke-miterlimit="10"/>
</g>
<mask id="mask2_820_512" style="mask-type:luminance" maskUnits="userSpaceOnUse" x="0" y="0" width="750" height="500">
<path d="M750 0H0V500H750V0Z" fill="white"/>
</mask>
<g mask="url(#mask2_820_512)">
<path d="M715.343 597.072C760.364 597.072 796.861 560.575 796.861 515.554C796.861 470.533 760.364 434.036 715.343 434.036C670.322 434.036 633.825 470.533 633.825 515.554C633.825 560.575 670.322 597.072 715.343 597.072Z" stroke="white" stroke-width="2" stroke-miterlimit="10"/>
<path d="M757.123 616.935C813.139 593.858 839.841 529.742 816.765 473.726C793.688 417.71 729.572 391.007 673.556 414.083C617.541 437.159 590.839 501.276 613.915 557.292C636.991 613.308 701.108 640.011 757.123 616.935Z" stroke="white" stroke-width="2" stroke-miterlimit="10"/>
<path d="M715.343 611.162C662.624 611.162 619.736 568.273 619.736 515.555C619.736 462.837 662.625 419.948 715.343 419.948C768.06 419.948 810.949 462.837 810.949 515.555C810.949 568.273 768.06 611.162 715.343 611.162Z" stroke="white" stroke-width="2" stroke-miterlimit="10"/>
<path d="M715.343 597.072C760.364 597.072 796.861 560.575 796.861 515.554C796.861 470.533 760.364 434.036 715.343 434.036C670.322 434.036 633.825 470.533 633.825 515.554C633.825 560.575 670.322 597.072 715.343 597.072Z" stroke="white" stroke-width="2" stroke-miterlimit="10"/>
<path d="M715.343 581.953C752.014 581.953 781.742 552.225 781.742 515.554C781.742 478.883 752.014 449.155 715.343 449.155C678.672 449.155 648.944 478.883 648.944 515.554C648.944 552.225 678.672 581.953 715.343 581.953Z" stroke="white" stroke-width="2" stroke-miterlimit="10"/>
<path d="M715.343 568.105C744.366 568.105 767.894 544.577 767.894 515.554C767.894 486.531 744.366 463.003 715.343 463.003C686.32 463.003 662.792 486.531 662.792 515.554C662.792 544.577 686.32 568.105 715.343 568.105Z" stroke="white" stroke-width="2" stroke-miterlimit="10"/>
<path d="M633.825 465.328C649.519 465.328 662.242 452.605 662.242 436.911C662.242 421.217 649.519 408.494 633.825 408.494C618.131 408.494 605.408 421.217 605.408 436.911C605.408 452.605 618.131 465.328 633.825 465.328Z" fill="#FF7620"/>
</g>
<mask id="mask3_820_512" style="mask-type:luminance" maskUnits="userSpaceOnUse" x="0" y="0" width="750" height="500">
<path d="M750 0H0V500H750V0Z" fill="white"/>
</mask>
<g mask="url(#mask3_820_512)">
<path d="M518.891 491.009C520.215 492.232 520.298 494.297 519.075 495.621C517.852 496.945 515.787 497.028 514.463 495.805C513.139 494.582 513.056 492.517 514.279 491.193C515.501 489.869 517.566 489.787 518.891 491.009Z" fill="white"/>
<path d="M531.835 476.99C533.159 478.213 533.242 480.278 532.019 481.602C530.796 482.926 528.731 483.009 527.407 481.786C526.083 480.563 526 478.498 527.223 477.174C528.446 475.85 530.511 475.767 531.835 476.99Z" fill="#FF7620"/>
<path d="M493.217 493.277C494.541 494.5 494.625 496.565 493.402 497.889C492.179 499.213 490.114 499.296 488.79 498.073C487.466 496.85 487.382 494.785 488.605 493.461C489.828 492.136 491.893 492.054 493.217 493.277Z" fill="white"/>
<path d="M467.546 495.544C468.87 496.767 468.953 498.832 467.73 500.156C466.507 501.48 464.442 501.563 463.118 500.34C461.794 499.117 461.711 497.052 462.934 495.728C464.156 494.404 466.221 494.321 467.546 495.544Z" fill="#FF7620"/>
<path d="M480.49 481.525C481.814 482.748 481.897 484.813 480.674 486.137C479.451 487.461 477.386 487.544 476.062 486.321C474.738 485.098 474.655 483.033 475.878 481.709C477.1 480.384 479.165 480.302 480.49 481.525Z" fill="white"/>
<path d="M493.434 467.505C494.758 468.728 494.841 470.793 493.618 472.117C492.395 473.441 490.33 473.524 489.006 472.301C487.681 471.078 487.599 469.013 488.822 467.689C490.045 466.365 492.11 466.282 493.434 467.505Z" fill="white"/>
<path d="M506.379 453.486C507.703 454.709 507.786 456.774 506.563 458.098C505.34 459.422 503.275 459.505 501.951 458.282C500.627 457.059 500.544 454.994 501.767 453.67C502.989 452.345 505.054 452.263 506.379 453.486Z" fill="white"/>
<path d="M441.873 497.812C443.197 499.035 443.28 501.1 442.057 502.424C440.834 503.748 438.769 503.831 437.445 502.608C436.121 501.385 436.038 499.32 437.261 497.996C438.483 496.671 440.548 496.589 441.873 497.812Z" fill="#FF7620"/>
<path d="M467.762 469.773C469.086 470.996 469.169 473.061 467.946 474.385C466.723 475.709 464.658 475.792 463.334 474.569C462.01 473.346 461.927 471.281 463.15 469.957C464.372 468.632 466.437 468.55 467.762 469.773Z" fill="white"/>
<path d="M480.706 455.753C482.03 456.976 482.113 459.041 480.89 460.365C479.667 461.689 477.602 461.772 476.278 460.549C474.954 459.326 474.871 457.261 476.094 455.937C477.317 454.612 479.382 454.53 480.706 455.753Z" fill="#FF7620"/>
</g>
<mask id="mask4_820_512" style="mask-type:luminance" maskUnits="userSpaceOnUse" x="0" y="0" width="750" height="500">
<path d="M750 0H0V500H750V0Z" fill="white"/>
</mask>
<g mask="url(#mask4_820_512)">
<path d="M351.367 59.306C352.691 60.529 352.774 62.594 351.551 63.918C350.328 65.242 348.263 65.325 346.939 64.102C345.615 62.879 345.532 60.814 346.755 59.49C347.978 58.165 350.043 58.083 351.367 59.306Z" fill="white"/>
<path d="M390.2 17.247C391.524 18.47 391.607 20.535 390.384 21.859C389.161 23.183 387.096 23.266 385.772 22.043C384.448 20.82 384.365 18.755 385.588 17.431C386.811 16.106 388.876 16.024 390.2 17.247Z" fill="white"/>
<path d="M403.145 3.22717C404.469 4.45017 404.552 6.51517 403.329 7.83917C402.106 9.16317 400.041 9.24617 398.717 8.02317C397.393 6.80017 397.31 4.73517 398.533 3.41117C399.755 2.08717 401.82 2.00517 403.145 3.22717Z" fill="#FF7620"/>
<path d="M351.583 33.5341C352.907 34.7571 352.99 36.8221 351.767 38.1461C350.544 39.4701 348.479 39.5531 347.155 38.3301C345.831 37.1071 345.748 35.0421 346.971 33.7181C348.194 32.3931 350.259 32.3111 351.583 33.5341Z" fill="white"/>
<path d="M364.528 19.5143C365.852 20.7373 365.935 22.8023 364.712 24.1263C363.489 25.4503 361.424 25.5333 360.1 24.3103C358.776 23.0873 358.693 21.0223 359.916 19.6983C361.138 18.3743 363.203 18.2923 364.528 19.5143Z" fill="white"/>
<path d="M325.91 35.8013C327.234 37.0243 327.317 39.0893 326.094 40.4133C324.871 41.7373 322.806 41.8203 321.482 40.5973C320.157 39.3743 320.075 37.3093 321.298 35.9853C322.521 34.6613 324.586 34.5783 325.91 35.8013Z" fill="white"/>
<path d="M338.855 21.7821C340.179 23.0051 340.262 25.0701 339.039 26.3941C337.816 27.7181 335.751 27.8011 334.427 26.5781C333.102 25.3551 333.02 23.2901 334.243 21.9661C335.465 20.6411 337.53 20.5591 338.855 21.7821Z" fill="#FF7620"/>
<path d="M351.799 7.76223C353.123 8.98523 353.206 11.0502 351.983 12.3742C350.76 13.6982 348.695 13.7812 347.371 12.5582C346.047 11.3352 345.964 9.27023 347.187 7.94623C348.41 6.62223 350.475 6.53923 351.799 7.76223Z" fill="white"/>
<path d="M313.182 24.0493C314.506 25.2723 314.589 27.3373 313.366 28.6613C312.143 29.9853 310.078 30.0683 308.754 28.8453C307.43 27.6223 307.347 25.5573 308.57 24.2333C309.793 22.9093 311.858 22.8263 313.182 24.0493Z" fill="#FF7620"/>
<path d="M339.071 -3.98972C340.395 -2.76672 340.478 -0.701721 339.255 0.622279C338.032 1.94628 335.967 2.02928 334.643 0.806279C333.319 -0.416721 333.236 -2.48172 334.459 -3.80572C335.682 -5.12972 337.747 -5.21272 339.071 -3.98972Z" fill="white"/>
</g>
<mask id="mask5_820_512" style="mask-type:luminance" maskUnits="userSpaceOnUse" x="0" y="0" width="750" height="500">
<path d="M750 0H0V500H750V0Z" fill="white"/>
</mask>
<g mask="url(#mask5_820_512)">
<path d="M742.328 278.411C743.236 277.503 744.708 277.503 745.616 278.411C746.524 279.319 746.524 280.791 745.616 281.699C744.708 282.607 743.236 282.607 742.328 281.699C741.42 280.791 741.42 279.319 742.328 278.411Z" fill="#FF7620"/>
<path d="M716.573 252.656C717.481 251.748 718.953 251.748 719.861 252.656C720.769 253.564 720.769 255.036 719.861 255.944C718.953 256.852 717.481 256.852 716.573 255.944C715.665 255.036 715.665 253.564 716.573 252.656Z" fill="#FF7620"/>
<path d="M692.461 230.87C693.745 230.87 694.786 229.829 694.786 228.545C694.786 227.261 693.745 226.22 692.461 226.22C691.177 226.22 690.136 227.261 690.136 228.545C690.136 229.829 691.177 230.87 692.461 230.87Z" fill="#FF7620"/>
<path d="M665.062 201.145C665.97 200.237 667.442 200.237 668.35 201.145C669.258 202.053 669.258 203.525 668.35 204.433C667.442 205.341 665.97 205.341 665.062 204.433C664.154 203.525 664.154 202.053 665.062 201.145Z" fill="#FF7620"/>
<path d="M639.307 175.39C640.215 174.482 641.687 174.482 642.595 175.39C643.503 176.298 643.503 177.77 642.595 178.678C641.687 179.586 640.215 179.586 639.307 178.678C638.399 177.77 638.399 176.298 639.307 175.39Z" fill="#FF7620"/>
<path d="M741.232 233.609C742.516 233.609 743.557 232.568 743.557 231.284C743.557 230 742.516 228.959 741.232 228.959C739.948 228.959 738.907 230 738.907 231.284C738.907 232.568 739.948 233.609 741.232 233.609Z" fill="#FF7620"/>
<path d="M713.833 203.885C714.741 202.977 716.213 202.977 717.121 203.885C718.029 204.793 718.029 206.265 717.121 207.173C716.213 208.081 714.741 208.081 713.833 207.173C712.925 206.265 712.925 204.793 713.833 203.885Z" fill="#FF7620"/>
<path d="M688.078 178.13C688.986 177.222 690.458 177.222 691.366 178.13C692.274 179.038 692.274 180.51 691.366 181.418C690.458 182.326 688.986 182.326 688.078 181.418C687.17 180.51 687.17 179.038 688.078 178.13Z" fill="#FF7620"/>
<path d="M662.322 152.374C663.23 151.466 664.702 151.466 665.61 152.374C666.518 153.282 666.518 154.754 665.61 155.662C664.702 156.57 663.23 156.57 662.322 155.662C661.414 154.754 661.414 153.282 662.322 152.374Z" fill="#FF7620"/>
<path d="M736.848 180.87C737.756 179.962 739.228 179.962 740.136 180.87C741.044 181.778 741.044 183.25 740.136 184.158C739.228 185.066 737.756 185.066 736.848 184.158C735.94 183.25 735.94 181.778 736.848 180.87Z" fill="#FF7620"/>
<path d="M711.093 155.114C712.001 154.206 713.473 154.206 714.381 155.114C715.289 156.022 715.289 157.494 714.381 158.402C713.473 159.31 712.001 159.31 711.093 158.402C710.185 157.494 710.185 156.022 711.093 155.114Z" fill="#FF7620"/>
<path d="M685.338 129.359C686.246 128.451 687.718 128.451 688.626 129.359C689.534 130.267 689.534 131.739 688.626 132.647C687.718 133.555 686.246 133.555 685.338 132.647C684.43 131.739 684.43 130.267 685.338 129.359Z" fill="#FF7620"/>
<path d="M734.108 132.098C735.016 131.19 736.488 131.19 737.396 132.098C738.304 133.006 738.304 134.478 737.396 135.386C736.488 136.294 735.016 136.294 734.108 135.386C733.201 134.478 733.201 133.006 734.108 132.098Z" fill="#FF7620"/>
<path d="M708.353 106.344C709.261 105.436 710.733 105.436 711.641 106.344C712.549 107.252 712.549 108.724 711.641 109.632C710.733 110.54 709.261 110.54 708.353 109.632C707.445 108.724 707.445 107.252 708.353 106.344Z" fill="#FF7620"/>
<path d="M731.368 83.328C732.276 82.42 733.748 82.42 734.656 83.328C735.564 84.236 735.564 85.708 734.656 86.616C733.748 87.524 732.276 87.524 731.368 86.616C730.461 85.708 730.461 84.236 731.368 83.328Z" fill="#FF7620"/>
</g>
<path d="M166.452 143.709C169.191 130.012 160.308 116.688 146.611 113.949C132.914 111.21 119.59 120.093 116.851 133.789C114.112 147.486 122.995 160.81 136.692 163.549C150.389 166.289 163.713 157.405 166.452 143.709Z" fill="#FFA56C"/>
<path d="M168.561 112.053L238.729 111.709L238.385 41.541L168.217 41.8848L168.561 112.053Z" stroke="white" stroke-width="2" stroke-miterlimit="10"/>
<path d="M238.73 111.711L212.374 138.327L141.572 138.675L141.226 68.2177L167.754 41.4287" stroke="white" stroke-width="2" stroke-miterlimit="10"/>
<path d="M168.563 112.055L141.891 138.99" stroke="white" stroke-width="2" stroke-miterlimit="10"/>
<path d="M169.196 312.774L161.881 320.089L169.322 327.53L162.345 334.507L154.904 327.066L147.589 334.381L140.951 327.743L148.266 320.428L140.782 312.944L147.759 305.967L155.243 313.451L162.558 306.136L169.196 312.774Z" fill="#FFA56C"/>
<path d="M731.945 18.4178L724.63 25.7328L732.071 33.1738L725.095 40.1508L717.654 32.7098L710.339 40.0248L703.701 33.3868L711.016 26.0718L703.532 18.5878L710.509 11.6108L717.993 19.0948L725.308 11.7798L731.945 18.4178Z" fill="#FF7620"/>
<path d="M42.1259 74.1097L34.8109 81.4247L42.2519 88.8657L35.2749 95.8417L27.8339 88.4007L20.5189 95.7157L13.8809 89.0777L21.1959 81.7627L13.7119 74.2787L20.6879 67.3027L28.1719 74.7867L35.4869 67.4717L42.1259 74.1097Z" fill="#FFD9C1"/>
<path d="M169.196 264.263L161.881 271.578L169.322 279.019L162.345 285.996L154.904 278.555L147.589 285.87L140.951 279.232L148.266 271.917L140.782 264.433L147.759 257.456L155.243 264.94L162.558 257.625L169.196 264.263Z" fill="#FFA56C"/>
<path d="M169.196 215.751L161.881 223.066L169.322 230.507L162.345 237.483L154.904 230.042L147.589 237.357L140.951 230.719L148.266 223.404L140.782 215.92L147.759 208.944L155.243 216.428L162.558 209.113L169.196 215.751Z" fill="#FFA56C"/>
<path d="M544.446 375.938L538.876 381.508L544.542 387.174L539.23 392.486L533.564 386.82L527.994 392.39L522.939 387.335L528.509 381.765L522.811 376.066L528.123 370.754L533.822 376.453L539.392 370.883L544.446 375.938Z" stroke="white"/>
<path d="M614.536 242.092L608.966 247.662L614.632 253.328L609.32 258.64L603.654 252.974L598.084 258.544L593.029 253.489L598.599 247.919L592.901 242.22L598.213 236.908L603.911 242.607L609.481 237.037L614.536 242.092Z" stroke="#FF7620" stroke-miterlimit="10"/>
<path d="M259.393 132.754L253.823 138.324L259.489 143.99L254.177 149.302L248.511 143.636L242.941 149.206L237.886 144.151L243.456 138.581L237.757 132.882L243.069 127.57L248.768 133.269L254.338 127.699L259.393 132.754Z" stroke="white"/>
<path d="M200.748 467.24L195.178 472.81L200.844 478.476L195.532 483.788L189.866 478.122L184.296 483.692L179.241 478.637L184.811 473.067L179.112 467.368L184.424 462.056L190.123 467.755L195.693 462.185L200.748 467.24Z" stroke="#FF7620" stroke-miterlimit="10"/>
<path d="M53.0227 266.043L47.4527 271.613L53.1187 277.279L47.8067 282.591L42.1407 276.925L36.5707 282.495L31.5157 277.44L37.0857 271.87L31.3867 266.171L36.6987 260.859L42.3977 266.557L47.9677 260.987L53.0227 266.043Z" stroke="white" stroke-width="1.3" stroke-miterlimit="10"/>
<path d="M623.448 323.463C628.883 328.847 628.885 337.576 623.45 342.96L603.766 323.461C609.202 318.077 618.014 318.079 623.448 323.463Z" fill="white"/>
<path d="M587.844 332.587C582.409 327.203 582.407 318.474 587.842 313.091L607.526 332.59C602.091 337.973 593.279 337.97 587.844 332.587Z" stroke="#FF7620" stroke-miterlimit="10"/>
<path d="M299.171 57.3951C304.606 62.7781 304.608 71.5081 299.173 76.8911L279.489 57.3921C284.924 52.0091 293.736 52.0111 299.171 57.3951Z" fill="white"/>
<path d="M263.566 66.5189C258.131 61.1359 258.129 52.4059 263.564 47.0229L283.248 66.522C277.813 71.905 269.001 71.9019 263.566 66.5189Z" stroke="#FF7620" stroke-miterlimit="10"/>
<path d="M256.425 421.67C261.86 427.054 261.862 435.783 256.427 441.167L236.743 421.668C242.178 416.284 250.991 416.287 256.425 421.67Z" fill="#FFA56C"/>
<path d="M220.821 430.795C215.386 425.411 215.384 416.682 220.819 411.298L240.503 430.797C235.068 436.181 226.256 436.178 220.821 430.795Z" stroke="white" stroke-miterlimit="10"/>
<path d="M696.857 145.362C694.398 145.362 691.94 144.424 690.063 142.548C686.309 138.796 686.309 132.711 690.062 128.959C695.182 123.838 695.183 115.507 690.062 110.387C684.942 105.265 676.612 105.265 671.492 110.387C667.739 114.138 661.655 114.138 657.902 110.387C654.15 106.633 654.15 100.55 657.902 96.7969C670.516 84.1849 691.038 84.1849 703.652 96.7969C716.264 109.41 716.264 129.933 703.652 142.547C701.775 144.424 699.315 145.362 696.857 145.362Z" fill="#FFA56C"/>
<path d="M702.622 139.597C700.164 139.597 697.705 138.659 695.828 136.783C692.075 133.031 692.075 126.946 695.827 123.194C700.947 118.073 700.948 109.742 695.827 104.622C690.707 99.4998 682.377 99.4998 677.257 104.622C673.504 108.373 667.42 108.373 663.667 104.622C659.915 100.869 659.915 94.7848 663.667 91.0318C676.281 78.4198 696.803 78.4198 709.417 91.0318C722.029 103.645 722.029 124.168 709.417 136.782C707.54 138.658 705.081 139.597 702.622 139.597Z" stroke="#FF7620" stroke-miterlimit="10"/>
<path d="M63.6127 472.923C61.1537 472.923 58.6957 471.985 56.8187 470.109C53.0657 466.357 53.0657 460.272 56.8177 456.52C61.9377 451.399 61.9387 443.068 56.8177 437.948C51.6977 432.826 43.3677 432.826 38.2477 437.948C34.4937 441.699 28.4108 441.699 24.6578 437.948C20.9058 434.195 20.9058 428.111 24.6578 424.358C37.2718 411.746 57.7937 411.746 70.4077 424.358C83.0197 436.971 83.0197 457.494 70.4077 470.108C68.5317 471.984 66.0717 472.923 63.6127 472.923Z" fill="#FF7620"/>
<path d="M69.3789 467.157C66.9199 467.157 64.4619 466.219 62.5849 464.343C58.8319 460.591 58.8319 454.506 62.5839 450.754C67.7039 445.633 67.7049 437.301 62.5839 432.182C57.4639 427.06 49.1339 427.06 44.0139 432.182C40.2599 435.933 34.1769 435.933 30.4239 432.182C26.6719 428.428 26.6719 422.345 30.4239 418.592C43.0379 405.98 63.5599 405.98 76.1739 418.592C88.7859 431.205 88.7859 451.728 76.1739 464.342C74.2969 466.219 71.8369 467.157 69.3789 467.157Z" stroke="white" stroke-width="1.3" stroke-miterlimit="10"/>
<path d="M705.974 358.518H721.651V374.196H705.974V358.518ZM720.901 359.268H706.724V373.446H720.901V359.268Z" fill="#FF7620"/>
<path d="M691.047 373.446H706.724V389.123H691.047V373.446ZM705.974 374.196H691.797V388.373H705.974V374.196Z" fill="#FF7620"/>
<path d="M676.12 373.446H691.797V389.123H676.12V373.446ZM691.047 374.196H676.87V388.373H691.047V374.196Z" fill="#FF7620"/>
<path d="M691.047 388.373H706.724V404.05H691.047V388.373ZM705.974 389.123H691.797V403.3H705.974V389.123Z" fill="#FF7620"/>
<path d="M691.047 358.518H706.724V374.196H691.047V358.518ZM705.974 359.268H691.797V373.446H705.974V359.268Z" fill="#FF7620"/>
<path d="M676.12 358.518H691.797V374.196H676.12V358.518ZM691.047 359.268H676.87V373.446H691.047V359.268Z" fill="#FF7620"/>
<path d="M661.192 358.518H676.87V374.196H661.192V358.518ZM676.12 359.268H661.942V373.446H676.12V359.268Z" fill="#FF7620"/>
<path d="M705.974 373.446H721.651V389.123H705.974V373.446ZM720.901 374.196H706.724V388.373H720.901V374.196Z" fill="#FF7620"/>
<path d="M705.974 388.373H721.651V404.05H705.974V388.373ZM720.901 389.123H706.724V403.3H720.901V389.123Z" fill="#FF7620"/>
<path d="M705.974 403.299H721.651V418.977H705.974V403.299ZM720.901 404.049H706.724V418.227H720.901V404.049Z" fill="#FF7620"/>
<path d="M38.7708 204.938H23.0938V189.26H38.7708V204.938ZM23.8438 204.188H38.0208V190.01H23.8438V204.188Z" fill="white"/>
<path d="M53.6975 190.011H38.0205V174.334H53.6975V190.011ZM38.7705 189.261H52.9475V175.084H38.7705V189.261Z" fill="white"/>
<path d="M68.6248 190.011H52.9478V174.334H68.6248V190.011ZM53.6978 189.261H67.8748V175.084H53.6978V189.261Z" fill="white"/>
<path d="M53.6975 175.084H38.0205V159.407H53.6975V175.084ZM38.7705 174.334H52.9475V160.157H38.7705V174.334Z" fill="white"/>
<path d="M53.6975 204.938H38.0205V189.26H53.6975V204.938ZM38.7705 204.188H52.9475V190.01H38.7705V204.188Z" fill="white"/>
<path d="M68.6248 204.938H52.9478V189.26H68.6248V204.938ZM53.6978 204.188H67.8748V190.01H53.6978V204.188Z" fill="white"/>
<path d="M83.5525 204.938H67.8745V189.26H83.5525V204.938ZM68.6245 204.188H82.8025V190.01H68.6245V204.188Z" fill="white"/>
<path d="M38.7708 190.011H23.0938V174.334H38.7708V190.011ZM23.8438 189.261H38.0208V175.084H23.8438V189.261Z" fill="white"/>
<path d="M38.7708 175.084H23.0938V159.407H38.7708V175.084ZM23.8438 174.334H38.0208V160.157H23.8438V174.334Z" fill="white"/>
<path d="M38.7708 160.157H23.0938V144.479H38.7708V160.157ZM23.8438 159.407H38.0208V145.229H23.8438V159.407Z" fill="white"/>
<path d="M94.8059 413.362L104.834 403.334L114.863 413.362H117.54L104.834 400.657L92.1279 413.362H94.8059Z" fill="#FF7620"/>
<path d="M87.3149 402.123V404.8L104.834 387.281L122.353 404.8V402.123L104.834 384.604L87.3149 402.123Z" fill="#FF7620"/>
<path d="M87.3149 410.149V412.827L104.834 395.307L122.353 412.827V410.149L104.834 392.63L87.3149 410.149Z" fill="#FF7620"/>
<path d="M87.8719 345.381L87.3149 345.938V348.615L90.5499 345.381H87.8719Z" fill="#FF7620"/>
<path d="M95.8989 345.381L87.3149 353.964V356.642L98.5759 345.381H95.8989Z" fill="#FF7620"/>
<path d="M102.832 413.362L104.834 411.36L106.836 413.362H109.514L104.834 408.683L100.155 413.362H102.832Z" fill="#FF7620"/>
<path d="M103.925 345.381L87.3149 361.991V364.668L104.834 347.149L122.353 364.668V361.991L105.743 345.381H103.925Z" fill="#FF7620"/>
<path d="M111.092 345.381L122.353 356.642V353.964L113.77 345.381H111.092Z" fill="#FF7620"/>
<path d="M119.118 345.381L122.353 348.616V345.938L121.796 345.381H119.118Z" fill="#FF7620"/>
<path d="M87.3149 386.07V388.747L104.834 371.228L122.353 388.748V386.07L104.834 368.551L87.3149 386.07Z" fill="#FF7620"/>
<path d="M87.3149 394.096V396.774L104.834 379.255L122.353 396.774V394.096L104.834 376.577L87.3149 394.096Z" fill="#FF7620"/>
<path d="M87.3149 370.017V372.695L104.834 355.176L122.353 372.695V370.017L104.834 352.498L87.3149 370.017Z" fill="#FF7620"/>
<path d="M87.3149 378.043V380.721L104.834 363.202L122.353 380.721V378.044L104.834 360.525L87.3149 378.043Z" fill="#FF7620"/>
<path d="M633.247 234.455L643.276 224.427L653.304 234.455H655.981L643.276 221.749L630.57 234.455H633.247Z" fill="white"/>
<path d="M625.756 223.216V225.893L643.276 208.374L660.795 225.893V223.216L643.276 205.697L625.756 223.216Z" fill="white"/>
<path d="M625.756 231.242V233.919L643.276 216.4L660.795 233.92V231.242L643.276 213.723L625.756 231.242Z" fill="white"/>
<path d="M626.314 166.473L625.756 167.031V169.708L628.991 166.473H626.314Z" fill="white"/>
<path d="M634.34 166.473L625.756 175.057V177.735L637.018 166.473H634.34Z" fill="white"/>
<path d="M641.273 234.455L643.276 232.453L645.278 234.455H647.955L643.276 229.776L638.596 234.455H641.273Z" fill="white"/>
<path d="M642.367 166.473L625.756 183.084V185.761L643.276 168.242L660.795 185.761V183.084L644.184 166.473H642.367Z" fill="white"/>
<path d="M649.533 166.473L660.795 177.735V175.057L652.211 166.473H649.533Z" fill="white"/>
<path d="M657.56 166.473L660.795 169.708V167.031L660.237 166.473H657.56Z" fill="white"/>
<path d="M625.756 207.163V209.84L643.276 192.321L660.795 209.84V207.163L643.276 189.644L625.756 207.163Z" fill="white"/>
<path d="M625.756 215.188V217.866L643.276 200.347L660.795 217.866V215.188L643.276 197.669L625.756 215.188Z" fill="white"/>
<path d="M625.756 191.11V193.788L643.276 176.269L660.795 193.788V191.11L643.276 173.591L625.756 191.11Z" fill="white"/>
<path d="M625.756 199.136V201.814L643.276 184.295L660.795 201.814V199.136L643.276 181.617L625.756 199.136Z" fill="white"/>
<path d="M288.074 479.443L312.075 455.442H307.49L283.49 479.443H288.074Z" fill="#FF7620"/>
<path d="M302.367 479.443L326.367 455.442H321.782L297.782 479.443H302.367Z" fill="#FF7620"/>
<path d="M316.659 479.443L340.66 455.442H336.075L312.075 479.443H316.659Z" fill="#FF7620"/>
<path d="M330.952 479.443L354.952 455.442H350.367L326.367 479.443H330.952Z" fill="#FF7620"/>
<path d="M345.244 479.443L369.245 455.442H364.66L340.66 479.443H345.244Z" fill="#FF7620"/>
<path d="M359.537 479.443L383.537 455.442H378.952L354.952 479.443H359.537Z" fill="#FF7620"/>
<path d="M373.829 479.443L397.829 455.442H393.245L369.245 479.443H373.829Z" fill="#FF7620"/>
<path d="M388.122 479.443L412.122 455.442H407.537L383.537 479.443H388.122Z" fill="#FF7620"/>
<path d="M434.049 148.898L458.049 124.898H453.464L429.464 148.898H434.049Z" fill="#FF7620"/>
<path d="M448.341 148.898L472.341 124.898H467.757L443.756 148.898H448.341Z" fill="#FF7620"/>
<path d="M462.633 148.898L486.634 124.898H482.049L458.049 148.898H462.633Z" fill="#FF7620"/>
<path d="M476.926 148.898L500.926 124.898H496.342L472.341 148.898H476.926Z" fill="#FF7620"/>
<path d="M491.218 148.898L515.219 124.898H510.634L486.634 148.898H491.218Z" fill="#FF7620"/>
<path d="M505.511 148.898L529.511 124.898H524.927L500.926 148.898H505.511Z" fill="#FF7620"/>
<path d="M519.803 148.898L543.804 124.898H539.219L515.219 148.898H519.803Z" fill="#FF7620"/>
<path d="M534.096 148.898L558.096 124.898H553.511L529.511 148.898H534.096Z" fill="#FF7620"/>
<path d="M313.435 371.743H247.578V381.412H313.435V371.743Z" fill="#FF7620"/>
<path d="M334.006 371.743H323.435V381.412H334.006V371.743Z" fill="#FFA56C"/>
<path d="M473.329 170.687C472.106 172.011 470.041 172.094 468.717 170.871C467.393 169.648 467.31 167.583 468.533 166.259C469.756 164.935 471.821 164.852 473.145 166.075C474.469 167.298 474.551 169.363 473.329 170.687Z" stroke="white" stroke-width="1.3" stroke-miterlimit="10"/>
<path d="M487.348 183.631C486.125 184.955 484.06 185.038 482.736 183.815C481.412 182.592 481.329 180.527 482.552 179.203C483.775 177.879 485.84 177.796 487.164 179.019C488.489 180.242 488.571 182.307 487.348 183.631Z" stroke="white" stroke-width="1.3" stroke-miterlimit="10"/>
<path d="M501.368 196.576C500.145 197.9 498.08 197.983 496.756 196.76C495.432 195.537 495.349 193.472 496.572 192.148C497.795 190.823 499.86 190.741 501.184 191.964C502.508 193.186 502.59 195.251 501.368 196.576Z" stroke="white" stroke-width="1.3" stroke-miterlimit="10"/>
<path d="M515.387 209.52C514.164 210.844 512.099 210.927 510.775 209.704C509.451 208.481 509.368 206.416 510.591 205.092C511.814 203.767 513.879 203.685 515.203 204.908C516.528 206.131 516.61 208.196 515.387 209.52Z" stroke="white" stroke-width="1.3" stroke-miterlimit="10"/>
<path d="M529.407 222.465C528.184 223.789 526.119 223.872 524.795 222.649C523.471 221.426 523.388 219.361 524.611 218.037C525.834 216.713 527.899 216.63 529.223 217.853C530.547 219.075 530.63 221.14 529.407 222.465Z" stroke="white" stroke-width="1.3" stroke-miterlimit="10"/>
<path d="M225.389 281.964C224.166 283.288 222.101 283.371 220.777 282.148C219.453 280.925 219.37 278.86 220.593 277.536C221.816 276.212 223.881 276.129 225.205 277.352C226.53 278.574 226.612 280.639 225.389 281.964Z" stroke="white" stroke-width="1.3" stroke-miterlimit="10"/>
<path d="M239.409 294.907C238.186 296.231 236.121 296.314 234.797 295.091C233.473 293.868 233.39 291.803 234.613 290.479C235.836 289.155 237.901 289.072 239.225 290.295C240.549 291.518 240.632 293.583 239.409 294.907Z" stroke="white" stroke-width="1.3" stroke-miterlimit="10"/>
<path d="M253.428 307.853C252.205 309.177 250.14 309.26 248.816 308.037C247.492 306.814 247.409 304.749 248.632 303.425C249.855 302.101 251.92 302.018 253.244 303.241C254.569 304.463 254.651 306.528 253.428 307.853Z" stroke="white" stroke-width="1.3" stroke-miterlimit="10"/>
<path d="M267.448 320.797C266.225 322.121 264.16 322.204 262.836 320.981C261.512 319.758 261.429 317.693 262.652 316.369C263.875 315.045 265.94 314.962 267.264 316.185C268.589 317.408 268.671 319.473 267.448 320.797Z" stroke="white" stroke-width="1.3" stroke-miterlimit="10"/>
<path d="M281.468 333.74C280.245 335.064 278.18 335.147 276.856 333.924C275.532 332.701 275.449 330.636 276.672 329.312C277.895 327.988 279.96 327.905 281.284 329.128C282.608 330.351 282.69 332.416 281.468 333.74Z" stroke="white" stroke-width="1.3" stroke-miterlimit="10"/>
<path d="M268.81 199.485L263.24 205.055L268.906 210.721L263.594 216.033L257.928 210.367L252.358 215.937L247.303 210.882L252.873 205.312L247.174 199.613L252.486 194.301L258.185 200L263.755 194.43L268.81 199.485Z" fill="#FFA56C"/>
<path d="M268.81 192.732L263.24 198.302L268.906 203.968L263.594 209.28L257.928 203.614L252.358 209.184L247.303 204.129L252.873 198.559L247.174 192.86L252.486 187.548L258.185 193.247L263.755 187.677L268.81 192.732Z" stroke="white" stroke-miterlimit="10"/>
<path d="M502.729 295.903L497.159 301.473L502.825 307.139L497.513 312.451L491.847 306.785L486.277 312.355L481.222 307.3L486.792 301.73L481.093 296.031L486.405 290.719L492.103 296.418L497.673 290.848L502.729 295.903Z" fill="#FFA56C"/>
<path d="M502.729 289.15L497.159 294.72L502.825 300.386L497.513 305.698L491.847 300.032L486.277 305.602L481.222 300.547L486.792 294.977L481.093 289.279L486.405 283.967L492.103 289.666L497.673 284.096L502.729 289.15Z" stroke="white" stroke-miterlimit="10"/>
<path d="M444.624 410.521L439.054 416.091L444.72 421.757L439.408 427.069L433.742 421.403L428.172 426.973L423.117 421.918L428.687 416.348L422.989 410.649L428.301 405.337L434 411.036L439.57 405.466L444.624 410.521Z" fill="#FFA56C"/>
<path d="M444.624 403.767L439.054 409.337L444.72 415.003L439.408 420.315L433.742 414.649L428.172 420.219L423.117 415.164L428.687 409.594L422.989 403.896L428.301 398.584L434 404.283L439.57 398.713L444.624 403.767Z" stroke="white" stroke-miterlimit="10"/>
<path d="M373.083 103.884L367.513 109.454L373.179 115.12L367.867 120.432L362.201 114.766L356.631 120.336L351.576 115.281L357.146 109.711L351.448 104.012L356.76 98.6997L362.459 104.399L368.029 98.8287L373.083 103.884Z" fill="#FFA56C"/>
<path d="M373.083 97.1308L367.513 102.701L373.179 108.367L367.867 113.679L362.201 108.013L356.631 113.583L351.576 108.528L357.146 102.958L351.448 97.2588L356.76 91.9468L362.459 97.6448L368.029 92.0748L373.083 97.1308Z" stroke="white" stroke-miterlimit="10"/>
<path d="M510.55 180.262H239.451V319.738H510.55V180.262Z" stroke="white" stroke-width="2" stroke-miterlimit="10"/>
<path d="M270.09 281V223.514H284.676V246.368L302.46 223.514H318.606L298.326 248.552L318.606 281H303.084L290.136 258.77L284.676 265.478V281H270.09ZM341.958 281L327.216 223.514H343.908L353.424 270.002H356.232L365.748 223.514H382.44L367.698 281H341.958ZM402.642 218.99L410.832 206.744H425.028L413.328 218.99H402.642ZM394.14 281V270.002H400.536L400.38 234.512H394.14V223.514H420.66V234.512H414.342L414.186 270.002H420.66V281H394.14ZM435.864 281V268.754L462.384 238.1V235.37H437.736V223.514H481.884V235.76L455.442 266.414V269.144H481.884V281H435.864Z" fill="#C84D00"/>
</g>
<defs>
<clipPath id="clip0_820_512">
<rect width="750" height="500" fill="white"/>
</clipPath>
</defs>
</svg>
