<svg width="330" height="330" viewBox="0 0 330 330" fill="none" xmlns="http://www.w3.org/2000/svg">
<path d="M95.7708 76.6534L58.8182 91.9759L66.2006 123.321L46.6173 142.925L15.3047 135.535L0 172.525L27.3617 189.463V217.19L0 234.129L15.3047 271.118L46.6173 263.728L66.2006 283.332L58.8182 314.677L95.769 330L112.692 302.608H140.386L157.308 330L194.261 314.677L186.879 283.332L206.462 263.728L237.773 271.118L253.079 234.127L225.717 217.188V189.465L253.079 172.526L237.773 135.535L206.462 142.925L186.879 123.321L194.261 91.9759L157.308 76.6534L140.387 104.044H112.69L95.7708 76.6534ZM126.539 158.662C132.398 158.661 138.2 159.817 143.614 162.061C149.027 164.306 153.946 167.596 158.089 171.743C162.232 175.891 165.519 180.815 167.761 186.234C170.003 191.653 171.157 197.461 171.157 203.327C171.157 209.192 170.003 215 167.76 220.419C165.518 225.838 162.232 230.762 158.088 234.909C153.945 239.056 149.026 242.346 143.613 244.591C138.2 246.835 132.398 247.99 126.539 247.99C114.706 247.99 103.357 243.284 94.9902 234.908C86.623 226.532 81.9223 215.172 81.922 203.327C81.9219 197.461 83.0759 191.653 85.318 186.234C87.5601 180.815 90.8465 175.892 94.9896 171.744C99.1326 167.597 104.051 164.306 109.464 162.062C114.878 159.817 120.679 158.662 126.539 158.662Z" fill="#07478F"/>
<path d="M216.35 13.0375L200.711 28.6926L211.109 43.1418L205.248 57.3053L187.69 60.1628L187.69 82.3012L205.249 85.1586L211.11 99.323L200.712 113.772L216.35 129.426L230.784 119.018L244.933 124.884L247.787 142.461L269.903 142.462L272.758 124.883L286.906 119.017L301.341 129.425L316.979 113.77L306.582 99.3209L312.442 85.1575L330 82.3003L330 60.1601L312.441 57.3027L306.581 43.1401L316.979 28.691L301.34 13.0358L286.907 23.4434L272.758 17.5769L269.904 0.000116902L247.787 0L244.932 17.5768L230.783 23.4439L216.35 13.0353L216.35 13.0375ZM249.403 48.4155C252.396 47.1742 255.605 46.5353 258.845 46.5353C262.085 46.5353 265.293 47.1741 268.286 48.4154C271.28 49.6566 273.999 51.4759 276.29 53.7694C278.581 56.0628 280.399 58.7856 281.638 61.7822C282.878 64.7786 283.516 67.9902 283.516 71.2335C283.516 74.4768 282.878 77.6883 281.638 80.6847C280.398 83.6811 278.581 86.4037 276.29 88.697C273.999 90.9903 271.279 92.8095 268.286 94.0506C262.241 96.5569 255.449 96.5568 249.404 94.0502C243.359 91.5437 238.556 86.736 236.052 80.6848C233.548 74.6333 233.548 67.834 236.052 61.7825C238.556 55.731 243.359 50.9231 249.404 48.4164L249.403 48.4155Z" fill="#FF7620"/>
</svg>
