<svg xmlns="http://www.w3.org/2000/svg" id="SK" viewBox="0 0 425.96 141.73"><defs><style>.cls-1{fill:#d43620}.cls-2{fill:#0060a8}</style></defs><title>SOS_Logo_D_SK</title><path d="M396.39,256.62H337c14.31,6.46,23.67,19.33,23.67,35.7a52.34,52.34,0,0,1-.55,7.54Z" class="cls-1" transform="translate(-209.29 -226.77)"/><path d="M261.57,302.91a51.92,51.92,0,0,1,.51-7.24l-36.25,43.2h59.53c-14.4-6.5-23.79-19.48-23.79-36" class="cls-1" transform="translate(-209.29 -226.77)"/><path d="M224.14,354a0.48,0.48,0,0,0,0-.2,2.35,2.35,0,0,0-2.64-2.16,3.23,3.23,0,0,0-3.06,2.35h5.68Zm-10.44,2.44a8,8,0,0,1,8-8.17c3.46,0,6.3,2.18,6.3,6.19a12.17,12.17,0,0,1-.28,2.38H218V357c0,0.68,1,2.27,3.29,2.27a6,6,0,0,0,3.21-.85l1.34,2.89a9,9,0,0,1-4.88,1.33c-4.37,0-7.29-2.27-7.29-6.21" class="cls-2" transform="translate(-209.29 -226.77)"/><polygon points="18.45 135.54 22.62 116.61 26.99 116.61 22.82 135.54 18.45 135.54" class="cls-2"/><path d="M245.21,354a0.48,0.48,0,0,0,0-.2,2.35,2.35,0,0,0-2.64-2.16,3.23,3.23,0,0,0-3.06,2.35h5.68Zm-10.44,2.44a8,8,0,0,1,8-8.17c3.46,0,6.3,2.18,6.3,6.19a12.17,12.17,0,0,1-.28,2.38h-9.71V357c0,0.68,1,2.27,3.29,2.27a6,6,0,0,0,3.21-.85l1.34,2.89a9,9,0,0,1-4.88,1.33c-4.37,0-7.29-2.27-7.29-6.21" class="cls-2" transform="translate(-209.29 -226.77)"/><path d="M249.39,356.35a8,8,0,0,1,8.11-8.09c3,0,4.88,1.22,5.82,2.78l-3.26,2.47a3,3,0,0,0-2.58-1.39,3.73,3.73,0,0,0-3.66,4,2.72,2.72,0,0,0,3,2.7,3.52,3.52,0,0,0,2.58-1.22l2.35,2.87a7.35,7.35,0,0,1-5.37,2.21c-4.28,0-7-2.61-7-6.3" class="cls-2" transform="translate(-209.29 -226.77)"/><path d="M264.05,359.42a8.18,8.18,0,0,1,.09-1l1.33-6H263.2l0.85-3.77h2.27l0.82-3.75h4.37l-0.82,3.75h2.78l-0.85,3.77h-2.78l-1,4.66a2.93,2.93,0,0,0-.09.62,1.11,1.11,0,0,0,1.31,1.13,1.69,1.69,0,0,0,.85-0.23l0.06,3.49a4.14,4.14,0,0,1-2.35.6c-2.67,0-4.54-1-4.54-3.23" class="cls-2" transform="translate(-209.29 -226.77)"/><path d="M272,362.31l3-13.71h4.37L279,350.25a6.26,6.26,0,0,1,4.74-2l-1,4.28a5.92,5.92,0,0,0-1.42-.2,4.46,4.46,0,0,0-3.12,1.36l-1.9,8.63H272Z" class="cls-2" transform="translate(-209.29 -226.77)"/><path d="M293,354.79a2.5,2.5,0,0,0-2.75-2.67c-2.07,0-3.44,1.93-3.44,4a2.5,2.5,0,0,0,2.75,2.67c2,0,3.43-1.93,3.43-4m-10.67,1.56a8,8,0,0,1,8.06-8.09c4.62,0,7.06,2.75,7.06,6.33a8,8,0,0,1-8.06,8.06c-4.6,0-7.07-2.75-7.07-6.3" class="cls-2" transform="translate(-209.29 -226.77)"/><path d="M306.41,362.31l1.7-7.69a4.94,4.94,0,0,0,.14-1,1.6,1.6,0,0,0-1.87-1.5,4.17,4.17,0,0,0-2.92,1.33l-2,8.86h-4.37l3-13.71h4.37l-0.4,1.67a6.39,6.39,0,0,1,4.45-2c2.75,0,4.4,1.48,4.4,3.55a8.22,8.22,0,0,1-.14,1.13l-2.07,9.37h-4.37Z" class="cls-2" transform="translate(-209.29 -226.77)"/><path d="M316.42,345.23a2.86,2.86,0,0,1,2.84-2.87,2.15,2.15,0,0,1,2.24,2.13,2.88,2.88,0,0,1-2.81,2.89,2.18,2.18,0,0,1-2.27-2.16m-3.49,17.08,3-13.71h4.37l-3,13.71h-4.37Z" class="cls-2" transform="translate(-209.29 -226.77)"/><path d="M320,356.35a8,8,0,0,1,8.11-8.09c3,0,4.88,1.22,5.82,2.78l-3.26,2.47a3,3,0,0,0-2.58-1.39,3.73,3.73,0,0,0-3.66,4,2.72,2.72,0,0,0,3,2.7,3.51,3.51,0,0,0,2.58-1.22l2.36,2.87a7.34,7.34,0,0,1-5.37,2.21c-4.28,0-7-2.61-7-6.3" class="cls-2" transform="translate(-209.29 -226.77)"/><path d="M328.59,295.1c0-8.69-6.36-15-15.89-15-11.23,0-19.07,9.54-19.07,20.35,0,8.69,6.36,15,15.89,15,11.23,0,19.07-9.54,19.07-20.35m-57.12,6.78c0-22.57,17.91-40.69,42.49-40.69,20.88,0,36.77,13.14,36.77,32.21,0,22.57-17.8,40.9-42.38,40.9-21,0-36.88-13.25-36.88-32.43" class="cls-2" transform="translate(-209.29 -226.77)"/><path d="M274,269.66c-2.77-10.08-15-14.14-23.9-17-5.3-1.7-9.43-3.07-9.43-5,0-1.59,1.59-2.86,4.35-2.86,6.68,0,15.68,2.75,21.51,8.58l12.82-14.83c-7.74-7.74-19.29-11.76-30.84-11.76-20.13,0-30.31,13-30.31,25.33,0,13.57,14.52,18.12,24.48,21.3,5.3,1.7,9.32,3.07,9.32,5.09,0,1.27-1.59,3.07-5.62,3.07-9.54,0-19.5-4.45-24.37-10.81L209.29,286c7,8.37,20.35,13.78,35.39,13.78a35,35,0,0,0,17.41-4.2A49.56,49.56,0,0,1,274,269.66" class="cls-2" transform="translate(-209.29 -226.77)"/><path d="M379.44,321.35c-5.3-1.69-9.43-3.07-9.43-5,0-1.59,1.59-2.86,4.34-2.86,6.68,0,15.68,2.75,21.51,8.58l12.82-14.83c-7.74-7.74-19.28-11.76-30.83-11.76a34.88,34.88,0,0,0-17.75,4.37,50.1,50.1,0,0,1-11.84,25.83c3,9.85,15.11,13.66,23.77,16.42,5.3,1.69,9.32,3.07,9.32,5.09,0,1.27-1.59,3.07-5.62,3.07-9.54,0-19.5-4.45-24.37-10.81l-12.72,15.26c7,8.37,20.35,13.77,35.39,13.77,18.23,0,29.88-10.91,29.88-25.75,0-13.35-14.41-18.12-24.48-21.41" class="cls-2" transform="translate(-209.29 -226.77)"/><path d="M456.24,277.17v-2.38a6.35,6.35,0,0,1-5.19,2.75c-4,0-6.67-3-6.67-7.81s2.72-7.84,6.67-7.84a6.33,6.33,0,0,1,5.19,2.78v-8.09h1.64v20.59h-1.64Zm0-3.73v-7.38a6,6,0,0,0-4.91-2.72c-3.3,0-5.22,2.78-5.22,6.39s1.91,6.36,5.22,6.36A6,6,0,0,0,456.24,273.44Z" class="cls-2" transform="translate(-209.29 -226.77)"/><path d="M462.39,258.68a1.23,1.23,0,0,1,1.23-1.2,1.21,1.21,0,0,1,1.23,1.2,1.24,1.24,0,0,1-1.23,1.23A1.26,1.26,0,0,1,462.39,258.68Zm0.43,18.49V262.26h1.61v14.91h-1.61Z" class="cls-2" transform="translate(-209.29 -226.77)"/><path d="M468.07,275.2l1-1.2a6.21,6.21,0,0,0,4.82,2.19c2.5,0,4-1.3,4-3,0-1.88-2-2.41-4.17-3-2.5-.62-5.25-1.27-5.25-4.17,0-2.28,1.94-4.14,5.31-4.14a6.86,6.86,0,0,1,5.34,2.19l-0.9,1.14a5.43,5.43,0,0,0-4.44-2c-2.32,0-3.74,1.17-3.74,2.72,0,1.7,1.91,2.13,4,2.65,2.56,0.65,5.43,1.36,5.43,4.54,0,2.41-1.85,4.38-5.59,4.38A7.22,7.22,0,0,1,468.07,275.2Z" class="cls-2" transform="translate(-209.29 -226.77)"/><path d="M484.28,274.3V263.68h-2.47v-1.42h2.47v-4.07h1.64v4.07h3v1.42h-3v10.37c0,1.2.49,2,1.54,2a2.33,2.33,0,0,0,1.67-.71l0.62,1.23a3.35,3.35,0,0,1-2.53.93C485.23,277.54,484.28,276.34,484.28,274.3Z" class="cls-2" transform="translate(-209.29 -226.77)"/><path d="M492.71,277.17V262.26h1.6v2.56a6.41,6.41,0,0,1,5-2.87v1.76a3.38,3.38,0,0,0-.8-0.06,5.68,5.68,0,0,0-4.23,2.65v10.87h-1.6Z" class="cls-2" transform="translate(-209.29 -226.77)"/><path d="M502.09,258.68a1.23,1.23,0,0,1,1.23-1.2,1.21,1.21,0,0,1,1.23,1.2,1.24,1.24,0,0,1-1.23,1.23A1.26,1.26,0,0,1,502.09,258.68Zm0.43,18.49V262.26h1.61v14.91h-1.61Z" class="cls-2" transform="translate(-209.29 -226.77)"/><path d="M509,277.17V256.58h1.61v8.09a6.37,6.37,0,0,1,5.19-2.78c4,0,6.67,3.12,6.67,7.84s-2.72,7.81-6.67,7.81a6.35,6.35,0,0,1-5.19-2.75v2.38H509Zm6.51-1.08c3.33,0,5.22-2.75,5.22-6.36s-1.88-6.39-5.22-6.39a6.08,6.08,0,0,0-4.91,2.72v7.38A6,6,0,0,0,515.52,276.09Z" class="cls-2" transform="translate(-209.29 -226.77)"/><path d="M536.64,277.17V275a7.57,7.57,0,0,1-5.37,2.56c-3.06,0-4.69-1.42-4.69-4.78v-10.5h1.61v10.13c0,2.9,1.45,3.7,3.61,3.7a6.45,6.45,0,0,0,4.85-2.47V262.26h1.6v14.91h-1.6ZM532.1,260h-1.36l4.75-4.44h1.91Z" class="cls-2" transform="translate(-209.29 -226.77)"/><path d="M542.32,269.7c0-4.35,2.87-7.81,7.25-7.81a6.15,6.15,0,0,1,5.28,2.53l-1.11,1a4.72,4.72,0,0,0-4.07-2.07c-3.49,0-5.62,2.78-5.62,6.36s2.13,6.39,5.62,6.39a4.75,4.75,0,0,0,4.07-2.1l1.11,1a6.1,6.1,0,0,1-5.28,2.56C545.19,277.54,542.32,274.05,542.32,269.7Z" class="cls-2" transform="translate(-209.29 -226.77)"/><path d="M557.88,258.68a1.23,1.23,0,0,1,1.23-1.2,1.21,1.21,0,0,1,1.23,1.2,1.24,1.24,0,0,1-1.23,1.23A1.26,1.26,0,0,1,557.88,258.68Zm0.43,18.49V262.26h1.61v14.91h-1.61Z" class="cls-2" transform="translate(-209.29 -226.77)"/><path d="M574.15,277.17v-1.76a6.49,6.49,0,0,1-5.06,2.13,5,5,0,0,1-5.22-5,4.93,4.93,0,0,1,5.22-4.94,6.45,6.45,0,0,1,5.06,2.13v-3c0-2.22-1.79-3.43-4-3.43a5.8,5.8,0,0,0-4.66,2.19l-0.89-1.11a7.24,7.24,0,0,1,5.74-2.5c3,0,5.43,1.45,5.43,4.78v10.5h-1.6Zm0-2.93V271a5.6,5.6,0,0,0-4.51-2.07c-2.47,0-4.08,1.57-4.08,3.7s1.61,3.67,4.08,3.67A5.57,5.57,0,0,0,574.15,274.24Z" class="cls-2" transform="translate(-209.29 -226.77)"/><path d="M444.39,300.58c0-4.32,3.06-7.81,7.19-7.81,4.54,0,7,3.61,7,7.9v0.43H446.15c0.15,3.24,2.32,5.93,5.83,5.93a6.55,6.55,0,0,0,4.88-2.07l0.83,1a7.69,7.69,0,0,1-5.83,2.41C447.5,308.42,444.39,305.18,444.39,300.58Zm7.16-6.42c-3.52,0-5.28,3.09-5.4,5.68H457C457,297.3,455.28,294.16,451.55,294.16Z" class="cls-2" transform="translate(-209.29 -226.77)"/><path d="M462.63,308V287.46h1.61V308h-1.61Z" class="cls-2" transform="translate(-209.29 -226.77)"/><path d="M468.32,300.58c0-4.32,3.06-7.81,7.19-7.81,4.54,0,7,3.61,7,7.9v0.43H470.07c0.15,3.24,2.32,5.93,5.83,5.93a6.55,6.55,0,0,0,4.88-2.07l0.83,1a7.69,7.69,0,0,1-5.83,2.41C471.43,308.42,468.32,305.18,468.32,300.58Zm7.16-6.42c-3.52,0-5.28,3.09-5.4,5.68h10.83C480.88,297.3,479.21,294.16,475.48,294.16Z" class="cls-2" transform="translate(-209.29 -226.77)"/><path d="M496.9,308l-6-7.1-2.78,2.62V308h-1.61V287.46h1.61v14.2l8.8-8.52h2.13l-6.95,6.73,6.92,8.18H496.9Z" class="cls-2" transform="translate(-209.29 -226.77)"/><path d="M503.64,305.18V294.56h-2.47v-1.42h2.47v-4.07h1.64v4.07h3v1.42h-3v10.37c0,1.2.49,2,1.54,2a2.33,2.33,0,0,0,1.67-.71l0.62,1.23a3.35,3.35,0,0,1-2.53.93C504.59,308.42,503.64,307.21,503.64,305.18Z" class="cls-2" transform="translate(-209.29 -226.77)"/><path d="M512.06,308V293.14h1.61v2.56a6.41,6.41,0,0,1,5-2.87v1.76a3.37,3.37,0,0,0-.8-0.06,5.68,5.68,0,0,0-4.23,2.65V308h-1.61Z" class="cls-2" transform="translate(-209.29 -226.77)"/><path d="M520.55,300.58c0-4.35,2.81-7.81,7.16-7.81s7.19,3.46,7.19,7.81-2.78,7.84-7.19,7.84S520.55,304.93,520.55,300.58Zm12.63,0c0-3.3-1.94-6.36-5.46-6.36s-5.43,3.06-5.43,6.36,2,6.39,5.43,6.39S533.18,303.91,533.18,300.58Z" class="cls-2" transform="translate(-209.29 -226.77)"/><path d="M549.05,308V298c0-2.87-1.45-3.73-3.61-3.73a6.38,6.38,0,0,0-4.85,2.56V308H539V293.14h1.61v2.25a7.56,7.56,0,0,1,5.37-2.62c3,0,4.69,1.48,4.69,4.85V308h-1.6Z" class="cls-2" transform="translate(-209.29 -226.77)"/><path d="M555.07,289.56a1.23,1.23,0,0,1,1.23-1.2,1.21,1.21,0,0,1,1.24,1.2,1.24,1.24,0,0,1-1.24,1.23A1.26,1.26,0,0,1,555.07,289.56ZM555.51,308V293.14h1.6V308h-1.6Z" class="cls-2" transform="translate(-209.29 -226.77)"/><path d="M561.09,300.58c0-4.35,2.87-7.81,7.25-7.81a6.15,6.15,0,0,1,5.28,2.53l-1.11,1a4.72,4.72,0,0,0-4.08-2.07c-3.49,0-5.62,2.78-5.62,6.36S565,307,568.44,307a4.75,4.75,0,0,0,4.08-2.1l1.11,1a6.1,6.1,0,0,1-5.28,2.56C564,308.42,561.09,304.93,561.09,300.58Z" class="cls-2" transform="translate(-209.29 -226.77)"/><path d="M587.43,308l-6-7.1-2.78,2.62V308h-1.6V287.46h1.6v14.2l8.8-8.52h2.13l-6.95,6.73,6.91,8.18h-2.16Z" class="cls-2" transform="translate(-209.29 -226.77)"/><path d="M593.2,312.4a3.71,3.71,0,0,0,1.3.25c1,0,1.67-.4,2.25-1.82l1.17-2.65-6.3-15h1.79l5.43,13,5.37-13H606l-7.72,18.18a4,4,0,0,1-3.83,2.78,6.23,6.23,0,0,1-1.57-.22Zm5.34-21.52h-1.36l4.75-4.44h1.91Z" class="cls-2" transform="translate(-209.29 -226.77)"/><path d="M607.59,300.58c0-4.35,2.87-7.81,7.25-7.81a6.15,6.15,0,0,1,5.28,2.53l-1.11,1a4.72,4.72,0,0,0-4.08-2.07c-3.49,0-5.62,2.78-5.62,6.36s2.13,6.39,5.62,6.39a4.75,4.75,0,0,0,4.08-2.1l1.11,1a6.1,6.1,0,0,1-5.28,2.56C610.46,308.42,607.59,304.93,607.59,300.58Z" class="cls-2" transform="translate(-209.29 -226.77)"/><path d="M633.65,308V297.89c0-2.87-1.45-3.67-3.61-3.67a6.38,6.38,0,0,0-4.85,2.56V308h-1.61V287.46h1.61v7.93a7.56,7.56,0,0,1,5.37-2.62c3,0,4.69,1.42,4.69,4.78V308h-1.6Z" class="cls-2" transform="translate(-209.29 -226.77)"/><path d="M444,336.95l1-1.2a6.21,6.21,0,0,0,4.82,2.19c2.5,0,4-1.3,4-3,0-1.88-2-2.41-4.17-3-2.5-.62-5.25-1.27-5.25-4.17,0-2.28,1.94-4.14,5.31-4.14a6.85,6.85,0,0,1,5.34,2.19L454,327a5.43,5.43,0,0,0-4.44-2c-2.32,0-3.74,1.17-3.74,2.72,0,1.7,1.91,2.13,4,2.65,2.56,0.65,5.43,1.36,5.43,4.54,0,2.41-1.85,4.38-5.59,4.38A7.22,7.22,0,0,1,444,336.95Z" class="cls-2" transform="translate(-209.29 -226.77)"/><path d="M469.24,338.92v-2.19a7.56,7.56,0,0,1-5.37,2.56c-3.06,0-4.69-1.42-4.69-4.79V324h1.6v10.13c0,2.9,1.45,3.7,3.61,3.7a6.45,6.45,0,0,0,4.85-2.47V324h1.61v14.91h-1.61Zm-4.54-17.16h-1.36l4.75-4.44H470Z" class="cls-2" transform="translate(-209.29 -226.77)"/><path d="M475,331.45c0-4.35,2.87-7.81,7.25-7.81a6.15,6.15,0,0,1,5.28,2.53l-1.11,1a4.72,4.72,0,0,0-4.08-2.07c-3.49,0-5.62,2.78-5.62,6.36s2.13,6.39,5.62,6.39a4.75,4.75,0,0,0,4.08-2.1l1.11,1a6.1,6.1,0,0,1-5.28,2.56C477.86,339.29,475,335.8,475,331.45Zm6.51-9.69-3.09-4.44h1.2l2.72,3.49,2.56-3.49h1.23l-3,4.44H481.5Z" class="cls-2" transform="translate(-209.29 -226.77)"/><path d="M490.61,320.43a1.23,1.23,0,0,1,1.23-1.2,1.21,1.21,0,0,1,1.23,1.2,1.24,1.24,0,0,1-1.23,1.24A1.26,1.26,0,0,1,490.61,320.43ZM491,338.92V324h1.61v14.91H491Z" class="cls-2" transform="translate(-209.29 -226.77)"/><path d="M506.88,338.92v-1.76a6.5,6.5,0,0,1-5.06,2.13,5,5,0,0,1-5.22-5,4.93,4.93,0,0,1,5.22-4.94,6.45,6.45,0,0,1,5.06,2.13v-3c0-2.22-1.79-3.43-4-3.43a5.8,5.8,0,0,0-4.66,2.19l-0.89-1.11a7.24,7.24,0,0,1,5.74-2.5c3,0,5.43,1.45,5.43,4.78v10.5h-1.6Zm0-2.93v-3.27a5.6,5.6,0,0,0-4.51-2.07c-2.47,0-4.08,1.57-4.08,3.7s1.61,3.67,4.08,3.67A5.57,5.57,0,0,0,506.88,336Z" class="cls-2" transform="translate(-209.29 -226.77)"/><path d="M512.13,336.95l1-1.2a6.21,6.21,0,0,0,4.82,2.19c2.5,0,4-1.3,4-3,0-1.88-2-2.41-4.17-3-2.5-.62-5.25-1.27-5.25-4.17,0-2.28,1.94-4.14,5.31-4.14a6.85,6.85,0,0,1,5.34,2.19l-0.9,1.14a5.43,5.43,0,0,0-4.44-2c-2.32,0-3.74,1.17-3.74,2.72,0,1.7,1.91,2.13,4,2.65,2.56,0.65,5.43,1.36,5.43,4.54,0,2.41-1.85,4.38-5.59,4.38A7.22,7.22,0,0,1,512.13,336.95Z" class="cls-2" transform="translate(-209.29 -226.77)"/><path d="M528.34,336.05V325.43h-2.47V324h2.47v-4.08H530V324h3v1.42h-3V335.8c0,1.2.49,2,1.54,2a2.33,2.33,0,0,0,1.67-.71l0.62,1.23a3.35,3.35,0,0,1-2.53.93C529.29,339.29,528.34,338.09,528.34,336.05Z" class="cls-2" transform="translate(-209.29 -226.77)"/><path d="M535.22,331.45c0-4.35,2.81-7.81,7.16-7.81s7.19,3.46,7.19,7.81-2.78,7.84-7.19,7.84S535.22,335.8,535.22,331.45Zm12.63,0c0-3.3-1.94-6.36-5.46-6.36s-5.43,3.06-5.43,6.36,2,6.39,5.43,6.39S547.85,334.79,547.85,331.45Z" class="cls-2" transform="translate(-209.29 -226.77)"/><path d="M564,338.92l-6-7.1-2.78,2.62v4.48h-1.6V318.33h1.6v14.2l8.8-8.52h2.13l-6.95,6.73,6.91,8.18H564Z" class="cls-2" transform="translate(-209.29 -226.77)"/></svg>