<svg xmlns="http://www.w3.org/2000/svg" version="1.1" viewBox="0 0 1231.9 417.43"><metadata>image/svg+xml</metadata><g><title>Layer 1</title><text x="405.851" y="340.957" fill="#fda702" stroke-width="1" font-family="Verdana" font-size="350" font-weight="bold" xml:space="preserve"><tspan x="405.851" y="340.957" fill="#fda702" font-size="350">RBA</tspan></text><g stroke-width="7"><rect width="382" height="382" x="17.717" y="17.717" fill="#0e5eb7" rx="70" ry="70"/><path fill="#addfe0" d="m132.2 110.54-41.041 17 8.1992 34.777-21.75 21.75-34.777-8.1992-16.998 41.039 30.389 18.793v30.762l-30.389 18.793 16.998 41.039 34.777-8.1992 21.75 21.75-8.1992 34.777 41.039 17 18.795-30.391h30.758l18.795 30.391 41.041-17-8.1992-34.777 21.75-21.75 34.775 8.1992 17-41.041-30.389-18.793v-30.758l30.389-18.793-17-41.041-34.775 8.1992-21.75-21.75 8.1992-34.777-41.041-17-18.793 30.389h-30.762l-18.791-30.389zm34.172 90.986a49.554 49.554 0 0 1 49.555 49.555 49.554 49.554 0 0 1-49.555 49.553 49.554 49.554 0 0 1-49.553-49.553 49.554 49.554 0 0 1 49.553-49.555z"/><path fill="#ff9700" d="m266.12 39.96-17.369 17.369 11.548 16.031-6.5088 15.714-19.501 3.1704 4.5e-4 24.562 19.501 3.1702 6.5094 15.715-11.548 16.031 17.368 17.368 16.031-11.548 15.714 6.5088 3.1704 19.501 24.563 5.4e-4 3.1708-19.503 15.713-6.5086 16.032 11.548 17.369-17.369-11.548-16.031 6.5088-15.714 19.5-3.17 1.2e-4 -24.564-19.501-3.1702-6.5086-15.713 11.548-16.031-17.369-17.369-16.03 11.547-15.714-6.5088-3.1704-19.501-24.564-1.3e-4 -3.1702 19.501-15.715 6.5094-16.03-11.548zm36.71 39.251a27.401 27.401 0 0 1 35.802 14.83 27.401 27.401 0 0 1-14.83 35.801 27.401 27.401 0 0 1-35.8-14.829 27.401 27.401 0 0 1 14.829-35.801z"/></g></g></svg>