<svg xmlns="http://www.w3.org/2000/svg" xmlns:svg="http://www.w3.org/2000/svg" id="svg2" width="1314.045" height="445.262" version="1.1" viewBox="0 0 1231.918 417.433"><metadata id="metadata7"/><g id="layer1" transform="translate(-578.18159,-471.59845)"><text id="text4334" x="984.033" y="812.556" fill="#fda702" fill-opacity="1" stroke="none" stroke-linecap="butt" stroke-linejoin="miter" stroke-opacity="1" stroke-width="1" font-family="Verdana" font-size="350" font-stretch="normal" font-style="normal" font-variant="normal" font-weight="bold" letter-spacing="0" word-spacing="0" xml:space="preserve" style="line-height:125%;-inkscape-font-specification:'Verdana Bold'"><tspan id="tspan4336" x="984.033" y="812.556" fill="#fda702" fill-opacity="1" font-size="350">RBA</tspan></text><rect id="rect4183" width="382" height="382" x="595.898" y="489.315" fill="#0e5eb7" fill-opacity="1" stroke="none" stroke-dasharray="none" stroke-miterlimit="4" stroke-opacity="1" stroke-width="7" rx="70" ry="70"/><path id="path4165" fill="#addfe0" fill-opacity="1" stroke="none" stroke-dasharray="none" stroke-miterlimit="4" stroke-opacity="1" stroke-width="7" d="m 710.38614,582.14054 -41.04102,17 8.19922,34.77734 -21.75,21.75 -34.77734,-8.19922 -16.99805,41.03907 30.38867,18.79297 0,30.76172 -30.38867,18.79296 16.99805,41.03906 34.77734,-8.1992 21.75,21.75 -8.19922,34.7773 41.03907,17 18.79492,-30.3906 30.75781,0 18.79492,30.3906 41.04102,-17 -8.19922,-34.7773 21.75,-21.75 34.77539,8.1992 17,-41.04101 -30.38867,-18.79297 0,-30.75781 30.38867,-18.79297 -17,-41.04102 -34.77539,8.19922 -21.75,-21.75 8.19922,-34.77734 -41.04102,-17 -18.79297,30.38867 -30.76171,0 -18.79102,-30.38867 z m 34.17187,90.98633 a 49.55357,49.55357 0 0 1 49.55469,49.55469 49.55357,49.55357 0 0 1 -49.55469,49.55273 49.55357,49.55357 0 0 1 -49.55273,-49.55273 49.55357,49.55357 0 0 1 49.55273,-49.55469 z"/><path id="path4181" fill="#ff9700" fill-opacity="1" stroke="none" stroke-dasharray="none" stroke-miterlimit="4" stroke-opacity="1" stroke-width="7" d="m 844.3002,511.55843 -17.36905,17.36923 11.54779,16.03147 -6.50883,15.71373 -19.50148,3.17043 4.5e-4,24.56227 19.50119,3.17018 6.50938,15.71504 -11.54775,16.03109 17.36781,17.36847 16.03148,-11.5478 15.71372,6.50884 3.17043,19.50149 24.56268,5.4e-4 3.17079,-19.50259 15.71304,-6.50855 16.0325,11.54832 17.36905,-17.36923 -11.5478,-16.03146 6.50884,-15.71374 19.50049,-3.17001 1.2e-4,-24.56367 -19.50119,-3.1702 -6.50855,-15.71305 11.54776,-16.03109 -17.36923,-17.36904 -16.03048,11.54739 -15.71373,-6.50884 -3.17042,-19.50149 -24.56368,-1.3e-4 -3.17021,19.50118 -15.71503,6.50938 -16.03009,-11.54816 z m 36.71047,39.25061 a 27.40088,27.40088 0 0 1 35.80178,14.82958 27.40088,27.40088 0 0 1 -14.82998,35.80079 27.40088,27.40088 0 0 1 -35.80037,-14.82899 27.40088,27.40088 0 0 1 14.82857,-35.80138 z"/></g></svg>