<?xml version="1.0" encoding="UTF-8" standalone="no"?>
<!-- Created with Inkscape (http://www.inkscape.org/) -->

<svg
   xmlns:dc="http://purl.org/dc/elements/1.1/"
   xmlns:cc="http://creativecommons.org/ns#"
   xmlns:rdf="http://www.w3.org/1999/02/22-rdf-syntax-ns#"
   xmlns:svg="http://www.w3.org/2000/svg"
   xmlns="http://www.w3.org/2000/svg"
   xmlns:sodipodi="http://sodipodi.sourceforge.net/DTD/sodipodi-0.dtd"
   xmlns:inkscape="http://www.inkscape.org/namespaces/inkscape"
   inkscape:version="0.91 r13725"
   version="1.1"
   id="svg2"
   viewBox="0 0 1231.9175 417.43304"
   height="117.80888mm"
   width="347.67447mm"
   sodipodi:docname="rba_logo_text.svg">
  <sodipodi:namedview
     inkscape:window-maximized="1"
     inkscape:window-y="-3"
     inkscape:window-x="-2"
     inkscape:window-height="1025"
     inkscape:window-width="1920"
     showgrid="false"
     inkscape:current-layer="layer1"
     inkscape:document-units="px"
     inkscape:cy="26.78276"
     inkscape:cx="412.76237"
     inkscape:zoom="0.57651027"
     inkscape:pageshadow="2"
     inkscape:pageopacity="0.0"
     borderopacity="1.0"
     bordercolor="#666666"
     pagecolor="#ffffff"
     id="base"
     showguides="false"
     fit-margin-top="5"
     fit-margin-left="5"
     fit-margin-right="5"
     fit-margin-bottom="5" />
  <defs
     id="defs4">
    <inkscape:path-effect
       vertical="false"
       scale_y_rel="false"
       prop_scale="1"
       bendpath="m -99.999997,465.21931 135.714279,0"
       is_visible="true"
       id="path-effect4406"
       effect="bend_path" />
    <inkscape:path-effect
       vertical="false"
       scale_y_rel="false"
       prop_scale="1"
       bendpath="m -111.12019,533.14 222.50457,0"
       is_visible="true"
       id="path-effect4390"
       effect="bend_path" />
    <inkscape:path-effect
       phi="5"
       teeth="10"
       is_visible="true"
       id="path-effect4386"
       effect="gears" />
    <inkscape:path-effect
       phi="5"
       teeth="10"
       is_visible="true"
       id="path-effect4384"
       effect="gears" />
  </defs>
  <metadata
     id="metadata7">
    <rdf:RDF>
      <cc:Work
         rdf:about="">
        <dc:format>image/svg+xml</dc:format>
        <dc:type
           rdf:resource="http://purl.org/dc/dcmitype/StillImage" />
        <dc:title></dc:title>
      </cc:Work>
    </rdf:RDF>
  </metadata>
  <g
     inkscape:label="Layer 1"
     inkscape:groupmode="layer"
     id="layer1"
     transform="translate(-578.18159,-471.59845)">
    <text
       xml:space="preserve"
       style="font-style:normal;font-variant:normal;font-weight:bold;font-stretch:normal;font-size:350px;line-height:125%;font-family:Verdana;-inkscape-font-specification:'Verdana Bold';letter-spacing:0px;word-spacing:0px;fill:#fda702;fill-opacity:1;stroke:none;stroke-width:1px;stroke-linecap:butt;stroke-linejoin:miter;stroke-opacity:1"
       x="984.03296"
       y="812.55585"
       id="text4334"
       sodipodi:linespacing="125%"><tspan
         sodipodi:role="line"
         id="tspan4336"
         x="984.03296"
         y="812.55585"
         style="font-size:350px;fill:#fda702;fill-opacity:1">RBA</tspan></text>
    <rect
       style="fill:#0e5eb7;fill-opacity:1;stroke:none;stroke-width:7;stroke-miterlimit:4;stroke-dasharray:none;stroke-opacity:1"
       id="rect4183"
       width="382"
       height="382"
       x="595.89813"
       y="489.31497"
       rx="70"
       ry="70" />
    <path
       style="fill:#addfe0;fill-opacity:1;stroke:none;stroke-width:7;stroke-miterlimit:4;stroke-dasharray:none;stroke-opacity:1"
       d="m 710.38614,582.14054 -41.04102,17 8.19922,34.77734 -21.75,21.75 -34.77734,-8.19922 -16.99805,41.03907 30.38867,18.79297 0,30.76172 -30.38867,18.79296 16.99805,41.03906 34.77734,-8.1992 21.75,21.75 -8.19922,34.7773 41.03907,17 18.79492,-30.3906 30.75781,0 18.79492,30.3906 41.04102,-17 -8.19922,-34.7773 21.75,-21.75 34.77539,8.1992 17,-41.04101 -30.38867,-18.79297 0,-30.75781 30.38867,-18.79297 -17,-41.04102 -34.77539,8.19922 -21.75,-21.75 8.19922,-34.77734 -41.04102,-17 -18.79297,30.38867 -30.76171,0 -18.79102,-30.38867 z m 34.17187,90.98633 a 49.55357,49.55357 0 0 1 49.55469,49.55469 49.55357,49.55357 0 0 1 -49.55469,49.55273 49.55357,49.55357 0 0 1 -49.55273,-49.55273 49.55357,49.55357 0 0 1 49.55273,-49.55469 z"
       id="path4165"
       inkscape:connector-curvature="0" />
    <path
       id="path4181"
       d="m 844.3002,511.55843 -17.36905,17.36923 11.54779,16.03147 -6.50883,15.71373 -19.50148,3.17043 4.5e-4,24.56227 19.50119,3.17018 6.50938,15.71504 -11.54775,16.03109 17.36781,17.36847 16.03148,-11.5478 15.71372,6.50884 3.17043,19.50149 24.56268,5.4e-4 3.17079,-19.50259 15.71304,-6.50855 16.0325,11.54832 17.36905,-17.36923 -11.5478,-16.03146 6.50884,-15.71374 19.50049,-3.17001 1.2e-4,-24.56367 -19.50119,-3.1702 -6.50855,-15.71305 11.54776,-16.03109 -17.36923,-17.36904 -16.03048,11.54739 -15.71373,-6.50884 -3.17042,-19.50149 -24.56368,-1.3e-4 -3.17021,19.50118 -15.71503,6.50938 -16.03009,-11.54816 z m 36.71047,39.25061 a 27.40088,27.40088 0 0 1 35.80178,14.82958 27.40088,27.40088 0 0 1 -14.82998,35.80079 27.40088,27.40088 0 0 1 -35.80037,-14.82899 27.40088,27.40088 0 0 1 14.82857,-35.80138 z"
       style="fill:#ff9700;fill-opacity:1;stroke:none;stroke-width:7;stroke-miterlimit:4;stroke-dasharray:none;stroke-opacity:1"
       inkscape:connector-curvature="0" />
  </g>
</svg>
